<?xml version="1.0" encoding="UTF-8" standalone="no"?>
<!DOCTYPE svg PUBLIC "-//W3C//DTD SVG 1.1//EN" "http://www.w3.org/Graphics/SVG/1.1/DTD/svg11.dtd">
<svg version="1.1" xmlns="http://www.w3.org/2000/svg" xmlns:xlink="http://www.w3.org/1999/xlink" preserveAspectRatio="xMidYMid meet" viewBox="39.963419213305116 52.583324999999995 716.5457823491948 154.91776297895234" width="716.55" height="154.92"><defs><path d="M398.84 59.1L399.56 59.1L400.28 59.1L401 59.1L401.71 59.11L402.43 59.11L403.15 59.11L403.87 59.12L404.58 59.12L405.3 59.12L406.02 59.13L406.73 59.14L407.45 59.14L408.16 59.15L408.88 59.15L409.59 59.16L410.31 59.17L411.02 59.18L411.74 59.19L412.45 59.2L413.17 59.21L413.88 59.22L414.59 59.23L415.31 59.24L416.02 59.25L416.73 59.27L417.45 59.28L418.16 59.3L418.87 59.31L419.59 59.33L420.3 59.34L421.01 59.36L421.72 59.38L422.44 59.4L423.15 59.42L423.86 59.44L424.57 59.46L425.29 59.48L426 59.5L426.37 59.52L426.75 59.53L427.12 59.55L427.5 59.56L427.87 59.58L428.24 59.6L428.62 59.61L428.99 59.63L429.36 59.65L429.73 59.67L430.1 59.69L430.48 59.7L430.85 59.72L431.22 59.74L431.59 59.76L431.96 59.78L432.33 59.8L432.7 59.82L433.07 59.84L433.44 59.86L433.81 59.88L434.18 59.9L434.54 59.93L434.91 59.95L435.28 59.97L435.65 59.99L436.02 60.01L436.39 60.03L436.76 60.05L437.12 60.08L437.49 60.1L437.86 60.12L438.23 60.14L438.59 60.17L438.96 60.19L439.33 60.21L439.7 60.23L440.06 60.26L440.43 60.28L440.8 60.3L441.12 60.32L441.43 60.34L441.75 60.36L442.08 60.39L442.4 60.42L442.73 60.45L443.05 60.48L443.38 60.52L443.71 60.56L444.04 60.6L444.37 60.64L444.71 60.69L445.04 60.73L445.37 60.77L445.71 60.82L446.04 60.87L446.38 60.91L446.72 60.96L447.05 61L447.39 61.05L447.72 61.09L448.06 61.14L448.39 61.18L448.73 61.22L449.06 61.26L449.39 61.3L449.73 61.33L450.06 61.37L450.39 61.4L450.71 61.43L451.04 61.45L451.37 61.47L451.69 61.49L452.01 61.5L452.33 61.51L452.65 61.52L452.97 61.52L453.28 61.52L453.59 61.51L453.9 61.5L454.2 61.49L454.49 61.47L454.77 61.45L455.05 61.42L455.32 61.38L455.59 61.35L455.85 61.31L456.11 61.26L456.36 61.22L456.61 61.17L456.86 61.13L457.1 61.08L457.34 61.04L457.57 61L457.8 60.96L458.03 60.93L458.26 60.9L458.49 60.87L458.71 60.85L458.94 60.84L459.16 60.83L459.38 60.83L459.6 60.85L459.83 60.87L460.05 60.9L460.27 60.94L460.49 60.99L460.72 61.06L460.94 61.14L461.17 61.23L461.4 61.34L461.63 61.46L461.87 61.6L462.1 61.76L462.34 61.94L462.59 62.13L462.83 62.34L463.08 62.57L463.34 62.83L463.6 63.1L463.79 63.31L463.98 63.53L464.17 63.75L464.35 63.97L464.53 64.2L464.7 64.44L464.87 64.67L465.04 64.91L465.2 65.15L465.36 65.4L465.52 65.65L465.67 65.9L465.82 66.15L465.97 66.41L466.12 66.67L466.26 66.93L466.4 67.19L466.54 67.45L466.68 67.72L466.81 67.99L466.94 68.26L467.07 68.53L467.2 68.8L467.33 69.07L467.45 69.34L467.58 69.61L467.7 69.89L467.82 70.16L467.94 70.43L468.06 70.71L468.17 70.98L468.29 71.25L468.41 71.53L468.52 71.8L468.64 72.07L468.75 72.34L468.86 72.6L468.97 72.87L469.09 73.14L469.2 73.4L469.45 74L469.7 74.6L469.94 75.21L470.17 75.81L470.4 76.42L470.62 77.03L470.84 77.64L471.05 78.26L471.25 78.87L471.45 79.49L471.65 80.1L471.84 80.72L472.02 81.34L472.2 81.96L472.38 82.58L472.55 83.21L472.71 83.83L472.88 84.46L473.03 85.08L473.19 85.71L473.34 86.34L473.48 86.97L473.63 87.6L473.76 88.23L473.9 88.86L474.03 89.5L474.16 90.13L474.29 90.76L474.41 91.4L474.53 92.03L474.65 92.67L474.76 93.3L474.87 93.94L474.98 94.58L475.09 95.21L475.2 95.85L475.3 96.49L475.4 97.13L475.5 97.76L475.6 98.4L475.64 98.66L475.67 98.92L475.71 99.19L475.75 99.45L475.79 99.71L475.82 99.97L475.86 100.23L475.9 100.49L475.93 100.75L475.97 101.01L476.01 101.27L476.04 101.53L476.08 101.78L476.11 102.04L476.15 102.3L476.18 102.56L476.21 102.82L476.25 103.07L476.28 103.33L476.31 103.59L476.34 103.84L476.38 104.1L476.41 104.36L476.44 104.61L476.46 104.87L476.49 105.13L476.52 105.38L476.55 105.64L476.57 105.89L476.6 106.15L476.62 106.4L476.65 106.66L476.67 106.91L476.69 107.17L476.71 107.42L476.73 107.68L476.75 107.93L476.77 108.19L476.78 108.44L476.8 108.7L476.86 108.7L476.92 108.7L476.98 108.7L477.04 108.7L477.1 108.7L477.16 108.69L477.22 108.69L477.28 108.69L477.34 108.69L477.4 108.68L477.46 108.68L477.52 108.68L477.58 108.68L477.64 108.67L477.7 108.67L477.76 108.66L477.82 108.66L477.88 108.66L477.94 108.65L478.06 108.65L478.12 108.64L478.18 108.64L478.24 108.64L478.3 108.63L478.36 108.63L478.42 108.62L478.48 108.62L478.54 108.62L478.6 108.62L478.66 108.61L478.72 108.61L478.78 108.61L478.84 108.61L478.9 108.6L478.96 108.6L479.02 108.6L479.08 108.6L479.14 108.6L479.2 108.6L479.51 108.6L479.8 108.63L480.07 108.67L480.33 108.74L480.57 108.83L480.8 108.93L481.01 109.05L481.21 109.18L481.4 109.34L481.57 109.5L481.73 109.68L481.88 109.88L482.01 110.08L482.14 110.3L482.25 110.52L482.35 110.76L482.44 111L482.52 111.25L482.59 111.51L482.65 111.78L482.7 112.04L482.75 112.32L482.78 112.59L482.81 112.87L482.83 113.15L482.84 113.43L482.85 113.71L482.85 113.99L482.84 114.26L482.83 114.53L482.81 114.8L482.79 115.07L482.76 115.33L482.74 115.58L482.7 115.82L482.67 116.06L482.63 116.28L482.59 116.5L482.54 116.71L482.5 116.9L482.46 117.06L482.42 117.22L482.37 117.38L482.33 117.54L482.28 117.7L482.22 117.86L482.17 118.03L482.11 118.19L482.05 118.35L481.98 118.52L481.91 118.68L481.84 118.85L481.77 119.02L481.7 119.18L481.62 119.35L481.54 119.51L481.46 119.68L481.38 119.84L481.29 120.01L481.2 120.17L481.11 120.34L481.02 120.5L480.92 120.67L480.82 120.83L480.72 120.99L480.62 121.16L480.52 121.32L480.41 121.48L480.3 121.64L480.19 121.79L480.08 121.95L479.97 122.11L479.85 122.26L479.74 122.41L479.62 122.57L479.5 122.72L479.38 122.86L479.25 123.01L479.13 123.16L479 123.3L479.12 123.38L479.23 123.47L479.35 123.56L479.46 123.66L479.57 123.76L479.67 123.86L479.77 123.97L479.87 124.08L479.96 124.19L480.05 124.31L480.14 124.43L480.23 124.56L480.31 124.69L480.38 124.82L480.46 124.95L480.53 125.09L480.59 125.24L480.65 125.38L480.71 125.53L480.76 125.69L480.81 125.84L480.86 126.01L480.89 126.17L480.93 126.34L480.96 126.51L480.99 126.69L481.01 126.86L481.02 127.05L481.03 127.23L481.04 127.42L481.04 127.61L481.04 127.81L481.03 128.01L481.01 128.21L480.99 128.42L480.96 128.63L480.93 128.84L480.89 129.06L480.85 129.28L480.8 129.5L480.62 130.29L480.42 131.08L480.22 131.87L480.01 132.65L479.79 133.43L479.56 134.21L479.33 134.98L479.08 135.75L478.83 136.51L478.57 137.27L478.29 138.03L478.01 138.78L477.72 139.53L477.43 140.27L477.12 141.01L476.8 141.75L476.48 142.48L476.14 143.21L475.8 143.93L475.45 144.65L475.09 145.36L474.72 146.07L474.34 146.78L473.95 147.48L473.56 148.17L473.15 148.86L472.73 149.55L472.31 150.23L471.88 150.91L471.43 151.58L470.98 152.24L470.52 152.9L470.05 153.56L469.57 154.21L469.08 154.86L468.59 155.5L468.08 156.13L467.56 156.76L467.04 157.38L466.5 158L466.32 158.2L466.13 158.4L465.93 158.6L465.72 158.79L465.51 158.98L465.3 159.16L465.08 159.34L464.85 159.52L464.62 159.69L464.39 159.86L464.15 160.02L463.91 160.18L463.67 160.33L463.42 160.47L463.17 160.61L462.92 160.73L462.67 160.86L462.42 160.97L462.17 161.08L461.91 161.17L461.66 161.26L461.41 161.34L461.16 161.42L460.91 161.48L460.66 161.53L460.41 161.57L460.17 161.6L459.93 161.62L459.69 161.63L459.45 161.63L459.22 161.61L459 161.59L458.78 161.55L458.56 161.5L458.35 161.43L458.15 161.35L457.95 161.26L457.76 161.16L457.58 161.04L457.4 160.9L457.36 160.91L457.33 160.92L457.29 160.92L457.25 160.93L457.22 160.94L457.18 160.94L457.15 160.95L457.11 160.96L457.08 160.97L457.04 160.98L457.01 160.98L456.97 160.99L456.94 161L456.9 161.01L456.87 161.01L456.84 161.02L456.77 161.04L456.63 161.07L456.56 161.08L456.53 161.09L456.5 161.09L456.46 161.1L456.43 161.11L456.39 161.12L456.36 161.12L456.32 161.13L456.29 161.14L456.25 161.15L456.22 161.15L456.18 161.16L456.15 161.17L456.11 161.18L456.07 161.19L456.04 161.19L456 161.2L454.87 161.41L453.74 161.61L452.61 161.8L451.48 161.98L450.34 162.16L449.21 162.34L448.07 162.51L446.93 162.67L445.78 162.82L444.64 162.97L443.49 163.12L442.34 163.26L441.19 163.39L440.04 163.52L438.89 163.64L437.74 163.76L436.59 163.88L435.43 163.99L434.28 164.1L433.13 164.2L431.97 164.3L430.81 164.4L429.66 164.49L428.5 164.58L427.35 164.66L426.19 164.75L425.04 164.83L423.88 164.9L422.73 164.98L421.58 165.05L420.42 165.12L419.27 165.19L418.12 165.26L416.97 165.33L415.82 165.39L414.67 165.46L413.53 165.52L412.38 165.58L411.24 165.64L410.1 165.7L408 165.81L405.9 165.91L403.8 166.01L401.7 166.11L399.6 166.19L397.49 166.28L395.39 166.36L393.29 166.43L391.19 166.5L389.08 166.57L386.98 166.63L384.88 166.68L382.78 166.74L380.67 166.78L378.57 166.83L376.46 166.87L374.36 166.91L372.26 166.94L370.15 166.97L368.05 167L365.95 167.02L363.84 167.05L361.74 167.07L359.64 167.08L357.53 167.1L355.43 167.11L353.32 167.12L351.22 167.13L349.12 167.13L347.02 167.13L344.91 167.14L342.81 167.14L340.71 167.14L338.61 167.13L336.5 167.13L334.4 167.13L332.3 167.12L330.2 167.11L328.1 167.11L326 167.1L324.97 167.09L323.94 167.09L322.9 167.09L321.85 167.1L320.81 167.11L319.76 167.11L318.7 167.12L317.65 167.13L316.59 167.14L315.53 167.15L314.47 167.15L313.4 167.16L312.34 167.16L311.27 167.15L310.2 167.15L309.13 167.13L308.07 167.12L307 167.09L305.93 167.06L304.86 167.02L303.8 166.98L302.73 166.93L301.67 166.86L300.61 166.79L299.55 166.71L298.49 166.61L297.43 166.51L296.38 166.39L295.33 166.26L294.29 166.12L293.25 165.96L292.21 165.78L291.18 165.6L290.15 165.39L289.13 165.17L288.11 164.93L287.1 164.68L286.09 164.41L285.09 164.11L284.1 163.8L284.05 163.78L284 163.77L283.94 163.75L283.89 163.73L283.84 163.72L283.79 163.7L283.73 163.68L283.68 163.66L283.63 163.64L283.58 163.62L283.52 163.6L283.47 163.57L283.42 163.55L283.37 163.53L283.32 163.51L283.27 163.48L283.22 163.46L283.16 163.44L283.11 163.41L283.06 163.39L283.01 163.36L282.96 163.34L282.91 163.31L282.86 163.29L282.81 163.26L282.76 163.24L282.71 163.21L282.66 163.19L282.62 163.16L282.57 163.14L282.52 163.11L282.42 163.07L282.38 163.04L282.33 163.02L282.28 162.99L282.24 162.97L282.19 162.95L282.15 162.92L282.1 162.9L281.93 163.09L281.75 163.28L281.57 163.46L281.39 163.64L281.21 163.82L281.03 163.98L280.84 164.14L280.66 164.3L280.47 164.45L280.28 164.6L280.09 164.73L279.89 164.86L279.7 164.99L279.5 165.11L279.31 165.22L279.11 165.32L278.91 165.42L278.71 165.51L278.51 165.59L278.31 165.66L278.11 165.73L277.91 165.78L277.71 165.83L277.51 165.87L277.3 165.9L277.1 165.93L276.9 165.94L276.7 165.94L276.49 165.94L276.29 165.92L276.09 165.9L275.89 165.86L275.69 165.82L275.49 165.76L275.29 165.7L275.09 165.62L274.89 165.53L274.69 165.43L274.5 165.32L274.3 165.2L273.24 164.49L272.22 163.76L271.24 163.01L270.28 162.24L269.36 161.45L268.47 160.64L267.62 159.81L266.79 158.96L265.99 158.09L265.23 157.21L264.49 156.31L263.78 155.39L263.11 154.45L262.45 153.5L261.83 152.53L261.23 151.55L260.66 150.55L260.12 149.54L259.6 148.51L259.1 147.48L258.63 146.42L258.18 145.36L257.75 144.28L257.35 143.19L256.97 142.09L256.61 140.98L256.27 139.85L255.95 138.72L255.65 137.58L255.37 136.43L255.11 135.27L254.87 134.1L254.64 132.92L254.43 131.74L254.24 130.55L254.06 129.35L253.9 128.15L253.75 126.94L253.62 125.72L253.5 124.5L253.43 123.69L253.37 122.88L253.31 122.07L253.26 121.26L253.22 120.45L253.19 119.63L253.16 118.82L253.14 118.01L253.12 117.2L253.12 116.39L253.11 115.57L253.12 114.76L253.13 113.95L253.14 113.14L253.17 112.32L253.19 111.51L253.22 110.7L253.26 109.89L253.3 109.07L253.35 108.26L253.4 107.45L253.46 106.64L253.52 105.83L253.58 105.02L253.65 104.21L253.72 103.4L253.79 102.59L253.87 101.78L253.95 100.97L254.03 100.16L254.12 99.35L254.21 98.54L254.3 97.73L254.4 96.93L254.49 96.12L254.59 95.32L254.69 94.51L254.79 93.71L254.9 92.9L255 92.1L255.09 91.39L255.18 90.68L255.28 89.98L255.37 89.27L255.47 88.57L255.57 87.88L255.68 87.18L255.78 86.49L255.9 85.81L256.01 85.12L256.13 84.44L256.26 83.76L256.39 83.08L256.52 82.41L256.66 81.73L256.81 81.06L256.96 80.4L257.12 79.73L257.29 79.07L257.46 78.41L257.64 77.76L257.83 77.1L258.03 76.45L258.24 75.8L258.46 75.15L258.68 74.51L258.92 73.86L259.16 73.22L259.42 72.58L259.68 71.95L259.96 71.31L260.25 70.68L260.55 70.05L260.86 69.42L261.18 68.8L261.52 68.18L261.87 67.55L262.23 66.93L262.61 66.32L263 65.7L263.13 65.49L263.27 65.28L263.43 65.05L263.59 64.83L263.75 64.59L263.93 64.35L264.12 64.11L264.31 63.86L264.51 63.61L264.72 63.36L264.93 63.12L265.15 62.87L265.38 62.62L265.61 62.38L265.85 62.14L266.1 61.91L266.35 61.68L266.6 61.46L266.86 61.24L267.13 61.04L267.39 60.84L267.67 60.66L267.94 60.48L268.22 60.32L268.5 60.17L268.79 60.04L269.07 59.92L269.36 59.82L269.65 59.73L269.95 59.67L270.24 59.62L270.54 59.59L270.83 59.58L271.13 59.6L271.42 59.64L271.72 59.7L272.02 59.78L272.31 59.9L272.61 60.03L272.9 60.2L272.94 60.22L272.97 60.25L273.01 60.27L273.05 60.3L273.09 60.32L273.12 60.35L273.16 60.37L273.2 60.4L273.24 60.43L273.27 60.46L273.31 60.49L273.34 60.52L273.38 60.55L273.42 60.58L273.45 60.61L273.49 60.64L273.52 60.68L273.56 60.71L273.59 60.74L273.63 60.78L273.66 60.81L273.69 60.84L273.72 60.88L273.76 60.91L273.79 60.95L273.82 60.98L273.85 61.02L273.88 61.06L273.91 61.09L273.94 61.13L273.97 61.16L274 61.2L274.03 61.24L274.05 61.28L274.08 61.31L274.1 61.35L274.13 61.39L274.15 61.43L274.18 61.46L274.2 61.5L274.3 61.46L274.4 61.43L274.49 61.39L274.59 61.36L274.69 61.33L274.79 61.3L274.88 61.27L274.98 61.25L275.08 61.22L275.18 61.2L275.27 61.18L275.37 61.16L275.47 61.14L275.57 61.13L275.67 61.11L275.77 61.1L275.87 61.09L275.96 61.08L276.06 61.07L276.16 61.06L276.26 61.06L276.36 61.05L276.46 61.05L276.56 61.05L276.66 61.06L276.76 61.06L276.86 61.07L276.96 61.07L277.07 61.08L277.17 61.09L277.27 61.1L277.37 61.12L277.47 61.14L277.58 61.15L277.68 61.17L277.78 61.19L277.89 61.22L277.99 61.24L278.1 61.27L278.2 61.3L278.22 61.31L278.24 61.32L278.27 61.32L278.29 61.33L278.31 61.34L278.33 61.34L278.35 61.35L278.37 61.36L278.39 61.37L278.41 61.37L278.43 61.38L278.45 61.39L278.47 61.4L278.49 61.4L278.52 61.42L278.56 61.43L278.64 61.47L278.68 61.48L278.71 61.5L278.73 61.5L278.75 61.51L278.77 61.52L278.79 61.53L278.81 61.53L278.83 61.54L278.85 61.55L278.87 61.55L278.89 61.56L278.91 61.57L278.93 61.58L278.96 61.58L278.98 61.59L279 61.6L280.5 61.63L282 61.65L283.5 61.68L285 61.69L286.5 61.71L288.01 61.72L289.51 61.73L291.01 61.74L292.51 61.74L294.02 61.74L295.52 61.74L297.02 61.74L298.53 61.73L300.03 61.72L301.54 61.71L303.04 61.69L304.55 61.68L306.05 61.66L307.56 61.64L309.06 61.61L310.57 61.59L312.07 61.56L313.58 61.53L315.09 61.5L316.59 61.47L318.1 61.43L319.61 61.4L321.11 61.36L322.62 61.32L324.13 61.28L325.63 61.23L327.14 61.19L328.65 61.15L330.16 61.1L331.66 61.05L333.17 61L334.68 60.95L336.19 60.9L337.69 60.85L339.2 60.8L340.66 60.75L342.11 60.69L343.57 60.64L345.02 60.59L346.48 60.53L347.93 60.48L349.39 60.43L350.84 60.37L352.29 60.32L353.75 60.27L355.21 60.21L356.66 60.16L358.12 60.11L359.57 60.06L361.03 60.01L362.48 59.96L363.94 59.91L365.39 59.86L366.85 59.81L368.3 59.76L369.76 59.72L371.21 59.67L372.66 59.63L374.12 59.58L375.58 59.54L377.03 59.5L378.49 59.46L379.94 59.42L381.4 59.39L382.85 59.35L384.31 59.32L385.76 59.29L387.22 59.26L388.67 59.23L390.13 59.2L391.58 59.18L393.04 59.15L394.49 59.13L395.94 59.12L397.4 59.1L398.12 59.1L398.84 59.1ZM459.3 129.15L458.4 129.3L459.23 129.43L460.88 129.67L461.7 129.8L461.72 129.67L461.78 129.43L461.8 129.3L461.82 129.15L461.86 129L461.93 128.85L462 128.7L460.2 129L459.3 129.15Z" id="b1qjOkgoWy"></path><path d="M289.3 76.5C285.5 71.1 276.9 59.9 269.2 61.5C264.2 62.6 260.3 69.4 260.5 74.2C260.5 74.3 260.5 74.3 260.5 74.4C260.6 77.2 262.1 79 264.3 79.2C275.3 85 284.4 98.4 285.4 110.7C286.4 122.9 286.7 138.9 279.2 149.4C277 152.5 273.9 158.2 276.7 161.8C279.4 165.3 284.4 162.2 286.3 159.5C298.3 142.9 301.2 122 299.4 102C298.5 92.4 294.9 84.3 289.3 76.5Z" id="auLIPqEHu"></path><path d="M678.37 52.62L679.78 52.65L681.18 52.7L682.59 52.75L683.99 52.82L685.38 52.9L686.77 52.99L688.16 53.08L689.54 53.19L690.92 53.31L692.28 53.43L693.65 53.56L695 53.7L695.68 53.77L696.36 53.85L697.04 53.93L697.72 54.01L698.39 54.11L699.07 54.21L699.74 54.31L700.41 54.42L701.08 54.53L701.75 54.65L702.42 54.78L703.08 54.91L703.75 55.05L704.41 55.19L705.07 55.33L705.73 55.49L706.39 55.64L707.05 55.81L707.71 55.98L708.36 56.15L709.02 56.33L709.67 56.51L710.32 56.7L710.97 56.9L711.62 57.1L712.27 57.3L712.91 57.51L713.56 57.73L714.2 57.95L714.84 58.17L715.48 58.4L716.12 58.64L716.76 58.88L717.4 59.12L718.04 59.37L718.67 59.63L719.3 59.89L719.94 60.15L720.57 60.42L721.2 60.7L721.81 60.98L722.42 61.26L723.03 61.54L723.65 61.82L724.27 62.11L724.89 62.4L725.51 62.69L726.13 62.98L726.75 63.28L727.37 63.58L728 63.88L728.62 64.19L729.24 64.5L729.86 64.82L730.48 65.14L731.09 65.46L731.71 65.79L732.32 66.12L732.93 66.46L733.54 66.8L734.14 67.15L734.74 67.5L735.34 67.86L735.93 68.22L736.52 68.59L737.1 68.97L737.68 69.35L738.25 69.74L738.82 70.14L739.38 70.54L739.94 70.95L740.49 71.37L741.03 71.8L741.56 72.23L742.09 72.67L742.61 73.12L743.12 73.58L743.62 74.04L744.12 74.52L744.6 75L745 75.41L745.39 75.83L745.77 76.25L746.14 76.68L746.51 77.12L746.86 77.57L747.21 78.02L747.54 78.48L747.87 78.95L748.19 79.42L748.5 79.9L748.8 80.39L749.1 80.88L749.39 81.37L749.67 81.87L749.94 82.38L750.21 82.89L750.47 83.4L750.72 83.92L750.96 84.44L751.2 84.96L751.43 85.49L751.66 86.02L751.88 86.56L752.09 87.09L752.3 87.63L752.5 88.17L752.7 88.72L752.89 89.26L753.08 89.81L753.26 90.36L753.44 90.9L753.61 91.45L753.78 92L753.94 92.55L754.1 93.1L754.26 93.65L754.41 94.2L754.56 94.75L754.7 95.3L754.83 95.77L754.95 96.25L755.07 96.73L755.19 97.21L755.31 97.69L755.42 98.18L755.53 98.66L755.63 99.15L755.73 99.64L755.83 100.13L755.92 100.62L756.01 101.11L756.09 101.6L756.16 102.09L756.23 102.58L756.29 103.07L756.34 103.57L756.39 104.06L756.43 104.55L756.46 105.04L756.49 105.53L756.5 106.01L756.51 106.5L756.51 106.99L756.5 107.47L756.47 107.95L756.44 108.43L756.4 108.91L756.35 109.38L756.29 109.85L756.22 110.32L756.13 110.79L756.03 111.25L755.92 111.72L755.8 112.17L755.67 112.63L755.52 113.08L755.36 113.52L755.19 113.96L755 114.4L755.04 114.72L755.06 115.04L755.07 115.36L755.07 115.69L755.05 116.02L755.02 116.36L754.98 116.7L754.93 117.03L754.86 117.38L754.79 117.72L754.7 118.06L754.6 118.4L754.49 118.75L754.37 119.09L754.24 119.44L754.1 119.78L753.95 120.12L753.79 120.46L753.63 120.8L753.45 121.14L753.27 121.47L753.07 121.8L752.87 122.13L752.67 122.46L752.45 122.78L752.23 123.09L752.01 123.41L751.77 123.71L751.53 124.02L751.29 124.31L751.04 124.6L750.78 124.89L750.52 125.17L750.26 125.44L749.99 125.7L749.72 125.96L749.44 126.21L749.17 126.45L748.88 126.68L748.6 126.9L748.75 127.38L748.87 127.88L748.96 128.38L749.01 128.89L749.03 129.4L749.02 129.92L748.98 130.44L748.9 130.96L748.81 131.49L748.68 132.01L748.53 132.54L748.35 133.06L748.15 133.58L747.93 134.1L747.68 134.61L747.41 135.11L747.13 135.61L746.82 136.1L746.5 136.58L746.16 137.05L745.81 137.51L745.44 137.96L745.06 138.39L744.66 138.81L744.26 139.21L743.84 139.6L743.41 139.97L742.98 140.32L742.54 140.65L742.09 140.96L741.64 141.25L741.18 141.52L740.72 141.76L740.26 141.98L739.79 142.17L739.33 142.33L738.87 142.47L738.41 142.58L737.95 142.65L737.5 142.7L737.16 142.72L736.82 142.74L736.49 142.77L736.15 142.79L735.81 142.81L735.47 142.83L735.13 142.86L734.79 142.88L734.45 142.9L734.11 142.92L733.77 142.95L733.43 142.97L733.08 142.99L732.74 143.01L732.4 143.03L732.06 143.05L731.72 143.07L731.37 143.1L731.03 143.12L730.69 143.14L730.34 143.16L730 143.18L729.66 143.2L729.31 143.22L728.97 143.24L728.63 143.26L728.28 143.28L727.94 143.3L727.59 143.31L727.25 143.33L726.9 143.35L726.56 143.37L726.21 143.39L725.87 143.4L725.52 143.42L725.18 143.44L724.83 143.45L724.49 143.47L724.14 143.48L723.8 143.5L723.79 143.67L723.78 143.85L723.77 144.02L723.75 144.19L723.73 144.37L723.71 144.54L723.69 144.72L723.66 144.89L723.64 145.07L723.61 145.24L723.58 145.41L723.55 145.59L723.51 145.76L723.48 145.93L723.44 146.1L723.4 146.27L723.36 146.43L723.32 146.6L723.28 146.76L723.24 146.93L723.19 147.09L723.15 147.24L723.1 147.4L723.06 147.55L723.01 147.71L722.96 147.85L722.92 148L722.87 148.14L722.82 148.28L722.77 148.42L722.73 148.56L722.68 148.69L722.63 148.81L722.58 148.94L722.53 149.06L722.49 149.18L722.44 149.29L722.39 149.4L722.35 149.5L722.3 149.6L722.16 149.88L722.02 150.16L721.87 150.44L721.71 150.71L721.55 150.99L721.38 151.27L721.21 151.55L721.03 151.82L720.85 152.09L720.66 152.36L720.46 152.63L720.26 152.89L720.06 153.15L719.84 153.41L719.63 153.66L719.4 153.91L719.18 154.15L718.94 154.39L718.71 154.61L718.46 154.84L718.21 155.05L717.96 155.26L717.7 155.46L717.44 155.66L717.17 155.84L716.9 156.01L716.62 156.18L716.34 156.34L716.05 156.48L715.76 156.62L715.46 156.74L715.16 156.85L714.86 156.96L714.55 157.04L714.23 157.12L713.92 157.18L713.59 157.23L713.27 157.27L712.94 157.29L712.6 157.3L712.37 157.3L712.14 157.3L711.9 157.3L711.67 157.3L711.44 157.3L711.21 157.29L710.98 157.29L710.75 157.29L710.52 157.29L710.29 157.28L710.06 157.28L709.83 157.28L709.6 157.27L709.37 157.27L709.14 157.26L708.92 157.26L708.69 157.25L708.46 157.25L708.23 157.24L708 157.24L707.77 157.23L707.54 157.23L707.31 157.22L707.08 157.21L706.86 157.21L706.63 157.2L706.4 157.19L706.17 157.19L705.94 157.18L705.71 157.17L705.48 157.17L705.25 157.16L705.02 157.15L704.79 157.14L704.56 157.14L704.33 157.13L704.1 157.12L703.86 157.11L703.4 157.1L703.3 157.32L703.2 157.55L703.09 157.77L702.98 157.99L702.87 158.21L702.76 158.43L702.64 158.65L702.52 158.87L702.39 159.08L702.26 159.29L702.13 159.5L702 159.71L701.86 159.92L701.72 160.12L701.58 160.32L701.43 160.52L701.29 160.72L701.13 160.91L700.98 161.1L700.82 161.29L700.67 161.47L700.5 161.65L700.34 161.83L700.17 162L700.01 162.17L699.83 162.34L699.66 162.5L699.48 162.66L699.31 162.81L699.12 162.96L698.94 163.11L698.76 163.25L698.57 163.39L698.38 163.52L698.19 163.64L697.99 163.77L697.8 163.88L697.6 163.99L697.4 164.1L697.2 164.2L696.46 164.57L695.71 164.92L694.96 165.25L694.21 165.56L693.46 165.86L692.7 166.15L691.94 166.41L691.18 166.67L690.42 166.9L689.65 167.13L688.88 167.34L688.11 167.53L687.34 167.71L686.57 167.88L685.79 168.04L685.02 168.18L684.24 168.31L683.46 168.43L682.67 168.54L681.89 168.64L681.1 168.72L680.31 168.8L679.52 168.87L678.73 168.92L677.94 168.97L677.15 169.01L676.35 169.04L675.55 169.06L674.75 169.07L673.95 169.08L673.15 169.08L672.35 169.07L671.55 169.06L670.74 169.04L669.94 169.01L669.13 168.98L668.33 168.94L667.52 168.9L666.71 168.85L665.9 168.8L665.09 168.75L664.28 168.69L663.47 168.63L662.66 168.57L661.85 168.51L661.03 168.45L660.22 168.38L659.41 168.31L658.6 168.24L657.79 168.17L656.98 168.09L656.16 168.01L655.35 167.93L654.54 167.84L653.73 167.75L652.92 167.66L652.11 167.57L651.3 167.47L650.49 167.37L649.68 167.26L648.87 167.15L648.06 167.04L647.25 166.93L646.44 166.81L645.63 166.68L644.82 166.55L644.02 166.42L643.21 166.29L642.4 166.15L641.6 166L640.8 165.85L639.99 165.7L639.19 165.54L638.39 165.38L637.59 165.21L636.79 165.04L635.99 164.86L635.19 164.68L634.4 164.49L633.6 164.3L632.15 163.94L630.7 163.56L629.26 163.17L627.82 162.76L626.39 162.34L624.97 161.89L623.55 161.44L622.14 160.96L620.74 160.47L619.35 159.96L617.96 159.43L616.58 158.88L615.21 158.32L613.85 157.74L612.5 157.14L611.16 156.52L609.83 155.88L608.51 155.22L607.2 154.55L605.9 153.85L604.61 153.14L603.34 152.4L602.07 151.65L600.82 150.87L599.58 150.08L598.35 149.26L597.14 148.43L595.94 147.57L594.75 146.69L593.58 145.79L592.42 144.87L591.28 143.93L590.15 142.97L589.04 141.98L587.94 140.98L586.86 139.95L585.79 138.89L584.74 137.82L583.71 136.72L582.7 135.6L582.53 135.4L582.38 135.2L582.24 134.98L582.1 134.76L581.98 134.54L581.87 134.3L581.78 134.07L581.69 133.82L581.61 133.57L581.55 133.32L581.49 133.06L581.45 132.79L581.41 132.52L581.38 132.25L581.37 131.97L581.36 131.69L581.36 131.41L581.37 131.12L581.4 130.83L581.43 130.54L581.46 130.24L581.51 129.94L581.56 129.64L581.63 129.34L581.7 129.04L581.78 128.74L581.86 128.43L581.96 128.13L582.06 127.82L582.17 127.51L582.28 127.21L582.4 126.9L582.53 126.6L582.67 126.29L582.81 125.99L582.95 125.69L583.11 125.39L583.27 125.09L583.43 124.79L583.6 124.5L583.33 124.38L583.06 124.26L582.79 124.13L582.52 124.01L582.25 123.89L581.99 123.76L581.72 123.63L581.45 123.5L581.19 123.37L580.92 123.24L580.65 123.11L580.39 122.98L580.13 122.84L579.86 122.71L579.6 122.57L579.33 122.43L579.07 122.29L578.81 122.15L578.55 122.01L578.29 121.86L578.03 121.72L577.77 121.57L577.51 121.42L577.25 121.27L576.99 121.12L576.73 120.97L576.48 120.82L576.22 120.66L575.97 120.51L575.71 120.35L575.46 120.19L575.2 120.03L574.95 119.87L574.7 119.71L574.45 119.54L574.2 119.38L573.95 119.21L573.7 119.04L573.45 118.87L573.2 118.7L572.74 118.36L572.34 117.99L571.97 117.59L571.66 117.18L571.38 116.74L571.15 116.28L570.96 115.81L570.82 115.32L570.71 114.81L570.63 114.29L570.6 113.76L570.6 113.22L570.63 112.67L570.7 112.12L570.79 111.56L570.92 110.99L571.08 110.42L571.26 109.86L571.48 109.29L571.71 108.73L571.97 108.16L572.26 107.61L572.56 107.06L572.89 106.52L573.24 106L573.6 105.48L573.98 104.98L574.38 104.49L574.79 104.02L575.21 103.57L575.65 103.14L576.09 102.73L576.55 102.34L577.01 101.97L577.48 101.64L577.96 101.33L578.44 101.05L578.93 100.8L579.41 100.58L579.9 100.4L579.86 100.32L579.83 100.23L579.79 100.15L579.76 100.06L579.72 99.98L579.69 99.89L579.66 99.8L579.62 99.72L579.59 99.63L579.56 99.54L579.53 99.45L579.51 99.35L579.48 99.26L579.45 99.17L579.43 99.07L579.4 98.98L579.38 98.88L579.36 98.78L579.33 98.69L579.31 98.59L579.29 98.49L579.27 98.39L579.25 98.29L579.24 98.18L579.22 98.08L579.21 97.97L579.19 97.87L579.18 97.76L579.17 97.65L579.15 97.55L579.14 97.44L579.14 97.32L579.13 97.21L579.12 97.1L579.11 96.99L579.11 96.87L579.11 96.75L579.1 96.64L579.1 96.52L579.1 96.4L579.11 96L579.13 95.59L579.16 95.19L579.2 94.78L579.25 94.38L579.32 93.98L579.4 93.58L579.49 93.19L579.59 92.79L579.7 92.4L579.82 92.01L579.95 91.62L580.08 91.23L580.23 90.85L580.39 90.47L580.56 90.09L580.74 89.72L580.92 89.34L581.11 88.98L581.31 88.61L581.52 88.25L581.74 87.9L581.96 87.55L582.19 87.2L582.43 86.86L582.67 86.52L582.92 86.19L583.17 85.86L583.43 85.54L583.7 85.22L583.97 84.91L584.25 84.6L584.53 84.31L584.81 84.01L585.1 83.73L585.39 83.45L585.69 83.18L585.99 82.91L586.29 82.65L586.6 82.4L586.64 82.37L586.68 82.34L586.71 82.31L586.75 82.28L586.79 82.25L586.83 82.23L586.86 82.2L586.9 82.17L586.94 82.14L586.98 82.12L587.01 82.09L587.05 82.06L587.09 82.03L587.13 82.01L587.16 81.98L587.2 81.96L587.24 81.93L587.28 81.9L587.31 81.88L587.39 81.82L587.43 81.8L587.46 81.77L587.5 81.74L587.54 81.72L587.57 81.69L587.61 81.67L587.65 81.64L587.69 81.61L587.73 81.58L587.76 81.56L587.8 81.53L587.84 81.5L587.87 81.47L587.91 81.45L587.95 81.42L587.99 81.39L588.02 81.36L588.06 81.33L588.1 81.3L588.14 81.22L588.18 81.14L588.21 81.06L588.25 80.98L588.29 80.9L588.32 80.82L588.36 80.74L588.4 80.66L588.44 80.59L588.48 80.51L588.51 80.44L588.55 80.36L588.59 80.29L588.63 80.22L588.66 80.15L588.7 80.08L588.74 80.01L588.78 79.94L588.81 79.87L588.85 79.8L588.89 79.73L588.93 79.67L588.96 79.6L589 79.54L589.04 79.47L589.07 79.41L589.11 79.35L589.15 79.28L589.19 79.22L589.23 79.16L589.26 79.1L589.3 79.04L589.34 78.99L589.38 78.93L589.41 78.87L589.45 78.82L589.49 78.76L589.53 78.71L589.56 78.65L589.6 78.6L589.77 78.36L589.94 78.12L590.12 77.88L590.3 77.65L590.49 77.41L590.68 77.18L590.88 76.95L591.08 76.73L591.29 76.51L591.5 76.29L591.71 76.08L591.93 75.87L592.16 75.67L592.39 75.47L592.62 75.28L592.85 75.1L593.09 74.92L593.34 74.75L593.59 74.59L593.84 74.44L594.09 74.29L594.35 74.16L594.61 74.03L594.88 73.92L595.15 73.82L595.42 73.72L595.69 73.64L595.97 73.57L596.25 73.51L596.53 73.47L596.82 73.43L597.11 73.42L597.4 73.41L597.69 73.42L597.99 73.44L598.29 73.48L598.59 73.54L598.89 73.61L599.19 73.7L599.5 73.8L599.52 73.81L599.53 73.81L599.55 73.82L599.56 73.83L599.58 73.83L599.59 73.84L599.61 73.84L599.62 73.85L599.64 73.85L599.65 73.86L599.67 73.86L599.68 73.87L599.7 73.87L599.71 73.88L599.72 73.88L599.74 73.88L599.77 73.89L599.83 73.91L599.86 73.92L599.88 73.92L599.89 73.92L599.91 73.93L599.92 73.93L599.94 73.94L599.95 73.94L599.97 73.95L599.98 73.95L599.99 73.96L600.01 73.96L600.02 73.97L600.04 73.97L600.06 73.98L600.07 73.99L600.08 73.99L600.1 74L600.2 73.7L600.31 73.4L600.42 73.1L600.54 72.81L600.67 72.51L600.8 72.22L600.94 71.93L601.09 71.64L601.24 71.36L601.4 71.07L601.56 70.79L601.73 70.52L601.91 70.24L602.09 69.97L602.28 69.71L602.47 69.44L602.67 69.18L602.88 68.93L603.09 68.68L603.3 68.44L603.52 68.2L603.75 67.96L603.98 67.74L604.21 67.51L604.45 67.3L604.7 67.09L604.95 66.88L605.2 66.68L605.46 66.49L605.73 66.31L605.99 66.13L606.27 65.96L606.54 65.8L606.83 65.65L607.11 65.5L607.4 65.36L607.69 65.23L607.99 65.11L608.29 65L608.6 64.9L609.25 64.7L609.89 64.5L610.54 64.31L611.19 64.12L611.83 63.94L612.48 63.76L613.13 63.58L613.78 63.41L614.43 63.24L615.09 63.08L615.74 62.91L616.39 62.76L617.04 62.6L617.7 62.45L618.35 62.31L619.01 62.16L619.67 62.02L620.32 61.89L620.98 61.75L621.64 61.63L622.3 61.5L622.95 61.38L623.61 61.26L624.27 61.14L624.93 61.03L625.6 60.92L626.26 60.81L626.92 60.71L627.58 60.61L628.25 60.51L628.91 60.42L629.57 60.33L630.24 60.24L630.9 60.15L631.57 60.07L632.23 59.99L632.9 59.91L633.57 59.84L634.23 59.77L634.9 59.7L635.01 59.66L635.13 59.61L635.24 59.57L635.35 59.52L635.47 59.48L635.58 59.43L635.7 59.39L635.81 59.34L635.93 59.3L636.04 59.25L636.16 59.21L636.27 59.16L636.39 59.12L636.51 59.07L636.62 59.03L636.74 58.98L636.86 58.94L636.98 58.89L637.09 58.85L637.21 58.8L637.33 58.76L637.45 58.71L637.57 58.66L637.69 58.62L637.81 58.58L637.92 58.53L638.04 58.49L638.16 58.44L638.28 58.4L638.4 58.35L638.52 58.31L638.64 58.26L638.76 58.22L638.88 58.17L639 58.13L639.12 58.08L639.24 58.04L639.36 57.99L639.6 57.9L640.9 57.45L642.22 57.03L643.54 56.63L644.87 56.25L646.21 55.89L647.56 55.55L648.91 55.24L650.28 54.94L651.65 54.66L653.02 54.4L654.41 54.16L655.79 53.94L657.19 53.74L658.58 53.56L659.99 53.39L661.39 53.24L662.8 53.11L664.21 52.99L665.62 52.89L667.04 52.8L668.45 52.73L669.87 52.67L671.29 52.63L672.71 52.6L674.12 52.59L675.54 52.58L676.95 52.59L678.37 52.62ZM679.29 82.31L679.73 82.47L680.17 82.64L680.61 82.8L681.06 82.96L681.51 83.13L681.96 83.29L682.43 83.45L682.9 83.6L684.94 84.33L686.97 85.06L689 85.81L691.02 86.56L693.05 87.31L695.08 88.07L697.1 88.83L699.13 89.59L701.16 90.35L703.2 91.1L700.87 89.8L698.5 88.61L696.09 87.51L693.65 86.5L691.18 85.58L688.67 84.73L686.14 83.95L683.58 83.24L681 82.6L678.4 82L678.85 82.15L679.29 82.31Z" id="a3YU2ig3u5"></path><path d="M249.7 106.1C249 122.5 251.1 143.1 261 156.9C265.2 162.7 271.3 167.5 278.8 166.3C285.5 165.3 290.3 160.7 292.9 154.7C300.3 137.7 300.8 117.4 299.4 99.3C298.1 81.7 289.7 62.2 269.3 61.9C266.8 61.9 266.8 65.7 269.3 65.8C286.6 66 294.1 82.7 295.5 97.6C296.9 113 296.5 128.9 292.5 143.9C290.9 150 289.2 157.3 283.4 160.8C274.8 165.9 267.1 159.9 262.7 152.6C255.6 140.8 253.5 125.1 253.3 111.7C253.2 102.3 254.2 92.8 256.5 83.7C258.4 76.1 261.6 68.8 268.4 64.4C269.5 63.8 268.5 62 267.2 62.6C267.2 62.6 267.2 62.6 267.2 62.6C255.87 81.87 250.03 96.37 249.7 106.1Z" id="a4rLLr2mYo"></path><path d="M413.4 66.4C424.4 66.5 435.4 66.6 446.4 66.7C450.1 66.8 454.9 66.2 458.4 67.2C464.3 68.9 467.8 78 470 83.1C472.5 88.8 474.3 94.8 475.4 100.9C477.7 113.6 476.9 126.9 473.4 139.3C471.9 144.6 470.1 153.2 465.2 156.4C461.5 158.8 455.4 158.9 451 159.5C433.5 161.7 415.8 162.3 398.2 162.8C358.6 163.8 319.1 162.8 279.6 162.8C277.1 162.8 277.1 166.7 279.6 166.7C316.5 166.7 353.3 167.6 390.2 166.9C409.2 166.5 428.3 165.9 447.1 163.9C454.7 163.1 465.4 163.3 470.5 156.7C473.7 152.6 475.3 146.9 476.7 142C478.4 136.2 479.6 130.2 480.1 124.2C481.3 111.9 479.9 99.3 475.8 87.7C472.8 79.2 467.6 64.8 457.3 63.4C448.7 62.3 439.5 63 430.9 62.9C399.4 62.7 367.9 62.6 336.5 62.5C314.1 62.5 291.7 62.6 269.3 62.7C267.5 62.5 267.5 65.3 269.3 65.4C269.3 65.4 269.3 65.4 269.3 65.4C333.3 65.87 381.33 66.2 413.4 66.4Z" id="d50EUGn7u6"></path><path d="M61.6 118.8C61.5 121.2 65.1 121.2 65.3 118.8C65.7 113.8 65.7 108.6 64.9 103.6C64.7 101.9 61.8 102.4 61.8 104.1C61.8 104.1 61.8 104.1 61.8 104.1C61.87 110.63 61.8 115.53 61.6 118.8Z" id="a2w5jKR6Tb"></path><path d="M65.3 116.9C63.2 116.3 61.8 119.4 63.8 120.4C69.8 123.4 73.2 116.3 73.1 111.4C73.1 108.8 72.4 106 70.3 104.2C68.4 102.7 65.9 102.3 63.9 103.7C62.6 104.5 63.3 106.5 64.9 106.1C64.9 106.1 64.9 106.1 64.9 106.1C68.63 114.23 68.77 117.83 65.3 116.9Z" id="b4U30eTDp"></path><path d="M75.3 111C75.3 113.8 75 116.7 75.5 119.5C75.8 121.2 78.5 121.1 78.9 119.5C79.5 116.7 79.1 113.8 79 111C78.9 108.6 79.2 105.7 77.9 103.6C77.4 102.9 76.4 102.8 76 103.6C76 103.6 76 103.6 76 103.6C75.53 106.87 75.3 109.33 75.3 111Z" id="bfsexGwq2"></path><path d="M82.1 105.8C81.4 107.8 82.1 109.9 83.4 111.5C84.3 112.6 85.5 113.4 86.6 114.3C87 114.6 88.6 115.6 88.6 116.1C88.6 117.6 85.9 117.6 85.5 116.3C85 114.6 82.7 114.7 82.1 116.3C80 122 89.7 122.5 92.1 118.7C93.5 116.6 92.4 114.2 90.8 112.6C89.7 111.5 88.2 110.7 87.2 109.6C86.7 109.2 86.3 108.6 86 108C86.3 107.5 86.6 107 86.9 106.5C87.7 106.2 89.1 107.4 89.7 107.8C90.9 108.8 92.3 107 91.7 105.8C91.7 105.8 91.7 105.8 91.7 105.8C86.37 102.67 83.17 102.67 82.1 105.8Z" id="g53rNcKOyw"></path><path d="M95.2 119.7C95.4 122.1 98.7 122.1 99 119.7C99.6 114.8 99.4 109.1 98.9 104.2C98.6 102.2 96 102.3 95.7 104.2C95.7 104.2 95.7 104.2 95.7 104.2C95.03 111.27 94.87 116.43 95.2 119.7Z" id="a3ivyrZ5OB"></path><path d="M100.7 106.4C101.9 106.8 102.3 107.2 102.5 108.5C102.9 110.5 100.1 110.6 98.7 110.4C96.2 110 95.1 113.5 97.6 114.3C101.4 115.5 107.2 113.2 106.5 108.6C106.2 106.6 105.4 104.7 103.5 103.8C101.5 102.8 99 103 96.9 103.4C95.4 103.6 95.7 106.2 97.3 106.1C97.3 106.1 97.3 106.1 97.3 106.1C98.83 106.1 99.97 106.2 100.7 106.4Z" id="bAOz8oxPI"></path><path d="M114.9 105.1C113.7 105.1 112.5 105.1 111.3 105.1C112.9 109.7 114.5 114.4 115.7 119.2C116.3 121.7 120.4 120.6 119.6 118.1C118 113.5 116.5 108.8 114.9 104.1C114.2 102.2 112 102.4 111.3 104.1C109.3 108.9 107.3 114.2 106.9 119.5C106.8 121.1 109.1 121.1 109.6 119.8C109.6 119.8 109.6 119.8 109.6 119.8C111.8 113.2 113.57 108.3 114.9 105.1Z" id="i7ohBBqBh"></path><path d="M113 116.7C113.9 116.7 114.8 116.7 115.6 116.2C116.8 115.5 116.7 113.4 115.2 113.1C114.3 112.9 113.5 113.2 112.6 113.4C111.8 113.6 111.1 113.6 110.3 113.8C109.6 114 109.1 114.7 109.3 115.4C109.4 116.2 109.9 116.7 110.7 116.7C110.7 116.7 110.7 116.7 110.7 116.7C111.77 116.7 112.53 116.7 113 116.7Z" id="afWQBg8lf"></path><path d="M128.2 106.3C130.7 106.2 130.7 102.5 128.2 102.4C125.1 102.3 121.7 102.6 118.6 103.2C116.9 103.6 117.5 105.9 119 106C119 106 119 106 119 106C123.13 106.27 126.2 106.37 128.2 106.3Z" id="b2FQ2ys5Sq"></path><path d="M122.9 118.8C123.8 118.1 124.6 117.5 125.5 116.8C125.5 116.8 125.4 116.8 125.4 116.8C125.9 117.6 126.3 118.4 126.8 119.3C126.8 119.3 126.8 119.3 126.8 119.2C127.2 117.9 126.2 116.9 124.9 116.7C124.9 116.7 124.9 116.7 124.8 116.7C123.7 116.6 122.9 117.7 122.8 118.7C122.8 118.7 122.8 118.8 122.8 118.8C122.7 120.6 125.2 121.5 126.3 120.3C127.8 118.7 126.9 115.8 126.7 113.8C126.4 110.9 126.3 108.1 126.2 105.2C126.3 103.5 124 103.1 123.5 104.7C123.5 104.7 123.5 104.7 123.5 104.7C123.37 110.97 123.17 115.67 122.9 118.8Z" id="bS5wgTvy0"></path><path d="M136.1 103C132.5 103.3 131.6 107.2 131.4 110.3C131.2 113.5 131.6 118.3 134.7 120.2C137.8 122 140.6 119.6 141.8 116.8C142.8 114.6 139.6 112.7 138.6 114.9C137.8 116.7 136.7 118 135.6 115.3C135.1 114.1 135.1 112.5 135.1 111.2C135.1 110.2 135.1 106.8 136.8 106.7C138 106.6 138.8 108 139.5 108.7C140.3 109.5 141.9 108.8 141.9 107.6C141.9 107.6 141.9 107.6 141.9 107.6C139.9 104.33 137.97 102.8 136.1 103Z" id="cQaE8STkE"></path><path d="M146.2 119.2C146.4 121.7 150.4 121.8 150.2 119.2C149.9 114 149.7 108.2 148.3 103.2C147.9 101.8 146 102.2 145.8 103.6C145.8 103.6 145.8 103.6 145.8 103.6C145.8 110.67 145.93 115.87 146.2 119.2Z" id="b4NBM8QF1j"></path><path d="M154.9 113.6C157.6 113.9 157.4 109 154.4 109.7C152.4 110.2 150.3 110.3 148.3 110.6C146.4 110.8 146.3 113.4 148.2 113.4C148.2 113.4 148.2 113.4 148.2 113.4C151.2 113.33 153.43 113.4 154.9 113.6Z" id="b24GzDw7zx"></path><path d="M153.8 111.3C153.8 114 153.8 116.8 154.4 119.5C154.9 121.7 158.1 121.1 158.2 119C158.4 116.3 157.9 113.5 157.6 110.8C157.4 108.3 157.5 105.7 156.7 103.4C156.3 102.1 154.5 102 154.1 103.3C154.1 103.3 154.1 103.3 154.1 103.3C153.83 106.9 153.73 109.57 153.8 111.3Z" id="a5DTweivd5"></path><path d="M336.5 118C336.5 120.5 340.4 120.5 340.4 118C340.4 113.1 340.8 107.8 340 103C339.7 101.5 337.1 101.5 336.9 103C336.9 103 336.9 103 336.9 103C336.63 109.73 336.5 114.73 336.5 118Z" id="a4MDJSjLW"></path><path d="M343.4 107.1C343.7 108.3 341.4 109.2 340.5 109.1C339.4 108.9 338.4 109.4 338 110.5C337.7 111.4 338.3 112.8 339.4 113C342.8 113.5 347.5 111.2 347.3 107.3C347 103 342.3 101.6 338.8 102.6C337.3 102.9 337.5 105.5 339.2 105.4C339.2 105.4 339.2 105.4 339.2 105.4C341.73 105.47 343.13 106.03 343.4 107.1Z" id="a1YPGQSOqN"></path><path d="M343.5 119.5C344.6 121.3 348 120.1 347.1 118C346.2 115.6 344.8 113.3 343.3 111.2C342.4 109.9 340.4 110.6 340.7 112.3C340.7 112.3 340.7 112.3 340.7 112.3C341.7 115.63 342.63 118.03 343.5 119.5Z" id="b2jmSRhK9O"></path><path d="M349.7 110.8C349.7 113.2 349.1 116.4 349.8 118.7C350 119.4 350.5 120 351.2 120.1C353.2 120.6 355.7 120.2 357.7 120.2C360.4 120.2 360.4 116 357.7 116C356.1 116 353.8 116.5 352.2 116.1C352.7 116.6 353.1 117 353.6 117.5C352.9 115.2 353.5 111.9 353.5 109.5C353.5 107.3 353.9 104.8 352.7 102.9C352.2 102.4 351.2 102.4 350.7 103.1C350.7 103.1 350.7 103.1 350.7 103.1C350.03 106.57 349.7 109.13 349.7 110.8Z" id="awFQrlPP3"></path><path d="M356.4 113C357.3 112.8 357.9 111.8 357.8 110.8C357.7 109.9 356.9 109 355.9 109.1C354.5 109.3 353.2 109.9 351.9 110.2C350.2 110.5 350.6 113.1 352.2 113.1C352.2 113.1 352.2 113.1 352.2 113.1C354.07 113.23 355.47 113.2 356.4 113Z" id="arEcNmNcU"></path><path d="M356.9 106.2C358.1 106.5 359.3 105.7 359.5 104.5C359.7 103.3 358.7 102.1 357.4 102.1C355.5 102.1 353.5 102.2 351.6 102.6C349.8 102.9 350.3 105.7 352.1 105.8C352.1 105.8 352.1 105.8 352.1 105.8C354.23 105.8 355.83 105.93 356.9 106.2Z" id="b5IE74Zit"></path><path d="M362.3 118.9C362.6 121.3 366.3 121.5 366.2 118.9C366 113.9 365.8 108.8 365.2 103.9C364.9 101.7 362 101.7 361.8 103.9C361.8 103.9 361.8 103.9 361.8 103.9C361.73 110.63 361.9 115.63 362.3 118.9Z" id="a194uGHkkA"></path><path d="M369.4 110.4C369.8 112.9 368.7 115.8 365.9 116C363.3 116.1 363.3 120 365.9 120.1C370.8 120.2 373.8 115.5 373.5 111C373.1 106.2 369.2 102.8 364.6 102.5C362.9 102.4 362.6 104.8 364.1 105.2C364.1 105.2 364.1 105.2 364.1 105.2C367.3 106.8 369.07 108.53 369.4 110.4Z" id="ayPWJVnjL"></path><path d="M380.9 119.9C388 120.1 386.9 109 386.9 104.6C386.9 102 382.9 102 382.9 104.6C382.9 106.3 382.9 107.9 382.8 109.6C382.8 110.6 382.7 111.6 382.6 112.6C382.5 114 382.6 115.4 380.9 115.1C379.5 114.9 379.6 114.3 379.3 112.9C379.1 111.9 379 110.8 378.9 109.7C378.8 107.8 378.8 105.8 378.8 103.8C378.8 101.7 375.7 101.8 375.5 103.9C375.5 103.9 375.5 103.9 375.5 103.9C374.57 114.43 376.37 119.77 380.9 119.9Z" id="a99FQdgMu"></path><path d="M393.8 101.5C389.8 101.8 389 106.2 388.9 109.5C388.8 113 389.5 117.8 393.1 119.3C396.5 120.8 400 118.7 401 115.3C401.7 112.8 397.8 111.8 397.2 114.2C396.5 116.7 394.4 115.8 393.6 114C393.1 112.8 393 111.2 393 110C393 109.1 392.9 106.4 393.8 105.8C395.1 104.8 396.6 106.5 397.1 107.6C397.5 108.9 399.7 108.8 399.7 107.1C399.7 107.1 399.7 107.1 399.7 107.1C397.9 103.17 395.93 101.3 393.8 101.5Z" id="k1bgDmYXg0"></path><path d="M403.6 111.2C403.6 113.3 403.2 116.2 403.9 118.2C404.2 119.1 404.8 119.5 405.7 119.6C407.8 119.9 412 119.8 413.2 117.7C414.5 115.4 411.1 113.4 409.6 115.6C409.5 115.7 409.4 115.9 409.3 116C409.7 115.7 410.1 115.4 410.5 115C409.1 115.5 407 115.9 405.6 115.7C406.2 116.2 406.8 116.6 407.4 117.1C406.7 115.2 407 112.1 406.9 110C406.7 107.8 406.8 105.5 406 103.5C405.9 102.6 404.2 102.4 403.9 103.7C403.9 103.7 403.9 103.7 403.9 103.7C403.7 107.1 403.6 109.6 403.6 111.2Z" id="aJlCxw0aH"></path><path d="M409.8 112.5C410.8 112.3 411.4 111.1 411.1 110.2C410.8 109.2 409.7 108.6 408.8 108.9C407.8 109.2 406.8 109.2 405.8 109.1C405 109 404.2 109.8 404.2 110.5C404 111.3 404.5 112 405.3 112.3C405.3 112.3 405.3 112.3 405.3 112.3C407.3 112.57 408.8 112.63 409.8 112.5Z" id="d1kCVI2Skn"></path><path d="M411.4 105.8C414 105.9 413.9 101.5 411.4 101.8C409.4 102 407.3 102.1 405.2 102.1C403.4 102.1 402.8 105.1 404.8 105.3C404.8 105.3 404.8 105.3 404.8 105.3C407.73 105.57 409.93 105.73 411.4 105.8Z" id="b1OeNbPA3J"></path><path d="M415 118.6C414.9 121.5 419.1 121.4 419.4 118.6C419.4 118.5 419.4 118.3 419.5 118.2C419.8 115.7 415.9 115.4 415.2 117.6C415.2 117.7 415.1 117.9 415.1 118C416.5 118.2 418 118.4 419.4 118.6C419.3 113.9 419.8 108.2 418.6 103.6C418.2 102.2 416.3 102.3 415.9 103.6C415.9 103.6 415.9 103.6 415.9 103.6C415.37 110.4 415.07 115.4 415 118.6Z" id="jlADSC9Lt"></path><path d="M422.1 107.5C421.8 109.4 418.6 109.2 417.3 109.1C414.5 109 414.5 113.3 417.3 113.5C419.4 113.6 421.7 113.5 423.6 112.2C425.1 111.1 426.3 109.4 426.3 107.4C426.3 102.9 421.3 101.7 417.7 102.3C415.8 102.6 416.2 105.7 418.1 105.6C418.1 105.6 418.1 105.6 418.1 105.6C420.97 105.73 422.3 106.37 422.1 107.5Z" id="d72gCw7kk"></path><path d="M422.8 119.4C424.1 122.4 428.5 120.5 426.9 117.7C425.4 115.1 424.1 112.3 421.7 110.5C420.7 109.6 419.5 111 419.7 112C419.7 112 419.7 112 419.7 112C421.1 115.33 422.13 117.8 422.8 119.4Z" id="a2vSiC6nY"></path><path d="M613.5 110.3C613.6 112.8 613.6 115.3 613.7 117.7C613.8 120.4 618 120.4 617.8 117.7C617.7 115.2 617.5 112.7 617.4 110.3C617.3 108.1 617.3 105.7 616.6 103.5C616.1 102.2 614.2 102.1 613.8 103.5C613.8 103.5 613.8 103.5 613.8 103.5C613.53 106.5 613.43 108.77 613.5 110.3Z" id="cy0cmtgCA"></path><path d="M620.9 119.1C622 121.7 626.2 119.5 624.8 116.8C622.5 112.2 620.3 107.1 617.3 102.9C616.4 101.8 614.4 102.4 614.8 104C614.8 104 614.8 104 614.8 104C617.47 110.8 619.5 115.83 620.9 119.1Z" id="bc1jM23VfB"></path><path d="M621.7 117.2C621.8 120 626.3 120 626.1 117.2C625.8 112.7 625.7 108.2 624.7 103.8C624.4 102.5 622.2 102.4 622 103.8C622 103.8 622 103.8 622 103.8C621.73 109.73 621.63 114.2 621.7 117.2Z" id="d2o6jdLa9T"></path><path d="M628.1 103.4C627.3 104.2 627.5 105.3 627.5 106.4C627.6 108.5 627.7 110.7 627.9 112.8C628 115 627.3 119.3 629.7 120.5C631.9 121.6 635.9 119.9 638 119C640.2 118 638.5 115 636.5 115.4C635.4 115.6 633.6 115.8 632.6 116.3C631.4 116.3 631.3 116.5 632.3 116.9C632.3 116.1 632.2 115.3 632.2 114.6C632.1 113 632 111.5 632 109.9C631.9 108.6 631.5 106.8 631.7 105.5C631.4 105.9 631 106.4 630.7 106.8C632.7 106 635 106.2 637 105.2C638.1 104.6 638 102.4 636.6 102.2C636.6 102.2 636.6 102.2 636.6 102.2C632 101.93 629.17 102.33 628.1 103.4Z" id="f7uLm3xZT"></path><path d="M635.1 112.4C636.1 112.2 636.7 110.9 636.5 110C636.2 109 635.1 108.3 634.1 108.6C633 108.9 631.9 109.1 630.8 109.3C630 109.4 629.4 110.4 629.6 111.2C629.6 112 630.3 112.7 631.2 112.7C631.2 112.7 631.2 112.7 631.2 112.7C632.93 112.63 634.23 112.53 635.1 112.4Z" id="aUsBHEGqI"></path><path d="M642.4 118.2C643.1 120.7 646.7 119.6 646.3 117.1C645.4 112.5 644.1 107.1 642 102.9C641.5 101.8 639.7 102.4 639.7 103.6C639.7 103.6 639.7 103.6 639.7 103.6C640.63 110.33 641.53 115.2 642.4 118.2Z" id="a1ejpdlp4v"></path><path d="M642.3 117.5C642.2 119.7 645.3 119.9 646 118C646.7 115.7 647.1 113.2 647.7 110.8C648.3 108.4 649.2 106.1 649.7 103.7C650.1 102.3 648.1 101.4 647.2 102.7C647.2 102.7 647.2 102.7 647.2 102.7C644.13 109.37 642.5 114.3 642.3 117.5Z" id="b29OfvP8rU"></path><path d="M649.7 104.5C648.9 104.2 648 103.8 647.2 103.5C647.5 108.4 650.2 112.8 651 117.6C651.2 118.7 652.6 119.4 653.6 119.1C653.6 119.1 653.6 119.1 653.6 119.1C655 118.7 655.4 117.2 654.9 116C654.9 116 654.9 115.9 654.9 115.9C654.1 114.1 651.6 114.9 651.1 116.4C651.1 116.4 651.1 116.5 651.1 116.5C651.8 116 652.5 115.5 653.2 114.9C653.2 114.9 653.2 114.9 653.2 114.9C653.9 115.4 654.6 115.9 655.3 116.5C654.3 111.8 652.2 107.1 650.1 102.8C649.2 101 646.3 102.9 647.8 104.6C647.9 104.7 647.9 104.7 648 104.8C648.2 105.2 649 105.2 649.5 104.7C649.5 104.7 649.5 104.7 649.5 104.7C649.57 104.63 649.63 104.57 649.7 104.5Z" id="f2OaeIZGvK"></path><path d="M651.4 116.2C650.7 118.8 654.6 119.9 655.5 117.3C656.3 115.1 656.6 112.6 657.1 110.3C657.5 108 658.2 105.6 658.1 103.3C657.9 102 656.1 101.4 655.4 102.6C655.4 102.6 655.4 102.6 655.4 102.6C653.47 108.73 652.13 113.27 651.4 116.2Z" id="dgsavRRny"></path><path d="M666.9 106C666.5 108.3 668.4 110 670.1 111.2C671.2 112 672.9 112.6 673.3 113.9C673.5 114.7 672.7 116.4 671.7 116.1C671 115.9 670.6 114.9 670.2 114.3C668.9 112.2 665.8 114 666.9 116.2C667.9 118.3 669.7 120.2 672.2 119.9C674.4 119.6 676.4 118 677.1 116C677.9 113.7 677.2 111.5 675.3 110C674.4 109.3 673.3 108.8 672.4 108.1C671.5 107.5 669.7 106.6 671.9 106.5C672.9 106.4 673.8 106.9 674.7 107.4C675.8 107.9 677.3 106.7 676.5 105.5C676.5 105.5 676.5 105.5 676.5 105.5C670.63 102.63 667.43 102.8 666.9 106Z" id="eMAiBXkB0"></path><path d="M690 106.1C692.3 105.7 691.6 102.3 689.5 102.2C686.5 102.1 683.5 102.2 680.5 102.3C678.5 102.3 678.1 105.2 680 105.6C680 105.6 680 105.6 680 105.6C684.53 106.27 687.87 106.43 690 106.1Z" id="f5yykhOT1n"></path><path d="M682.8 111.2C682.8 113 683.2 115.2 682.7 116.9C682 119.5 686 120.6 686.7 118C687.2 115.9 686.8 113.8 686.6 111.6C686.4 109.3 686.2 107.1 685.7 104.8C685.3 103.2 683.1 103.8 683 105.2C683 105.2 683 105.2 683 105.2C682.87 107.87 682.8 109.87 682.8 111.2Z" id="c7HIeo5WR"></path><path d="M693.2 110.6C692.6 113.1 691.7 115.7 691.3 118.2C691 120 693.7 121.7 694.6 119.6C696.7 115 698 108 697.1 103C696.9 101.7 695.2 102 694.8 103C694.8 103 694.8 103 694.8 103C694.07 106.4 693.53 108.93 693.2 110.6Z" id="b1XXkTBqNu"></path><path d="M698 103.8C697.6 104.2 697.1 104.7 696.7 105.1C696.7 105.1 696.8 105.1 696.8 105.1C696.4 104.8 695.9 104.4 695.5 104.1C697.4 108.9 698.1 114.2 699.7 119C700.5 121.4 704.1 120.4 703.5 118C702.7 114.8 701.5 111.7 700.4 108.7C699.7 106.9 699.1 103.8 697.5 102.6C697 102.3 696.3 102.4 695.9 102.8C695.5 103.2 695.4 103.7 695.5 104.2C695.8 105.6 698 105.2 698 103.9C698 103.9 698 103.9 698 103.9C698 103.85 698 103.81 698 103.8Z" id="ceoCleSub"></path><path d="M699.7 115.8C700.9 115.8 701.7 114.8 701.6 113.6C701.4 112.5 700.3 111.7 699.2 112C697.9 112.4 696.6 112.6 695.3 113C693.7 113.6 693.9 116 695.7 116C695.7 116 695.7 116 695.7 116C697.5 115.87 698.83 115.8 699.7 115.8Z" id="h27sfXrpOy"></path><path d="M704.7 104.1C704.1 104.4 703.6 104.7 703 105.1C705.9 106.3 709.8 105.9 712.9 105.8C715.9 105.7 715.4 101.2 712.3 101.7C709.3 102.1 706 101.7 703 102.5C701.7 102.8 701.7 104.9 703 105.1C703.1 105.1 703.2 105.1 703.3 105.2C703.9 105.2 704.5 104.9 704.7 104.3C704.7 104.3 704.7 104.3 704.7 104.3C704.7 104.19 704.7 104.13 704.7 104.1Z" id="dtqxOL5OV"></path><path d="M707 118C707.2 120.6 711.3 120.6 711.1 118C710.8 113.7 711 108.4 709.5 104.3C709.1 103.1 707.2 102.9 706.9 104.3C706.9 104.3 706.9 104.3 706.9 104.3C706.77 110.57 706.8 115.13 707 118Z" id="bJdUvGjO"></path><path d="M715.2 111.3C715.2 113.5 714.8 116.3 715.4 118.4C715.6 119.1 716.1 119.7 716.8 119.8C718.9 120.3 721.5 119.8 723.7 119.8C726.4 119.7 726.4 115.5 723.7 115.6C722 115.7 719.5 116.2 717.9 115.9C718.4 116.4 718.9 116.9 719.3 117.3C718.7 115.3 719 112.4 718.9 110.3C718.8 108.1 718.7 105.8 718.1 103.7C717.8 102.4 715.8 102.3 715.6 103.6C715.6 103.6 715.6 103.6 715.6 103.6C715.33 107 715.2 109.57 715.2 111.3Z" id="c1UpYXx2v1"></path><path d="M719.5 113C719.6 113 719.6 113 719.7 113C719.5 113 719.6 113 719.8 113C720 113 720.2 113.1 720.4 113.2C721.5 113.6 722.7 112.7 722.9 111.6C723.1 110.4 722.1 109.5 721 109.4C719.9 109.3 718.7 109.5 717.7 109.9C716.9 110.2 716.3 111 716.5 112C716.7 112.7 717.7 113.1 718.5 113C718.5 113 718.5 113 718.5 113C718.9 113 719.23 113 719.5 113Z" id="b6TKsdpHZd"></path><path d="M721.3 106.6C722.5 106.9 723.8 106.1 723.9 104.8C724.1 103.5 723.1 102.5 721.8 102.4C720.1 102.3 718.3 102.5 716.6 102.9C715.9 103.1 715.4 103.8 715.5 104.5C715.7 105.3 716.3 105.7 717 105.8C717 105.8 717 105.8 717 105.8C718.87 106.13 720.3 106.4 721.3 106.6Z" id="iQi11ij73"></path><path d="M40.7 143.6C39.3 144.3 40.1 146.2 41.4 146.3C43.8 146.4 40.6 154.8 45.3 155.5C47.3 155.8 48.1 152.8 46.1 152.5C44.9 152.3 45.7 146.5 44.9 145.2C44.1 143.9 42.8 143.6 41.4 143.5C41.6 144.4 41.9 145.3 42.1 146.2C43.3 145.5 44.3 144.8 44.8 143.6C45.7 141.7 44.8 138.1 47.1 137.3C48.5 136.7 48.3 134.7 46.8 134.6C46.8 134.6 46.8 134.6 46.8 134.6C45.13 139.4 43.1 142.4 40.7 143.6Z" id="bTcEHvUFn"></path><path d="M53.5 140.4C51 141.5 50.5 144.4 50.7 146.9C50.9 149.3 51.8 152.2 54.4 152.9C56.9 153.6 59.1 151.9 59.9 149.6C60.5 147.7 57.6 146.9 57 148.8C56.6 150 55.2 150.7 54.3 149.4C53.7 148.6 53.6 147.1 53.6 146.2C53.6 145.3 53.6 144.2 54.2 143.5C55.2 142.3 56.4 143.4 57.1 144.3C57.9 145.4 59.7 144.3 59.3 143.1C59.3 143.1 59.3 143.1 59.3 143.1C57.03 140.63 55.1 139.73 53.5 140.4Z" id="b3C97wRia"></path><path d="M62.2 146.3C62.1 147.9 62 150 63.1 151.3C65.5 154.4 69.5 151.2 70.7 148.7C71.4 147.3 69.5 145.6 68.4 147C67.8 147.8 67.3 148.7 66.4 149.2C64.9 150 65.1 148.1 65.1 147C65.1 145 65.6 142.4 64.9 140.4C64.6 139.7 63.5 139.4 63.1 140.2C63.1 140.2 63.1 140.2 63.1 140.2C62.57 142.93 62.27 144.97 62.2 146.3Z" id="axiOPjKN"></path><path d="M68.4 151.3C68.3 153.5 71.7 153.5 71.7 151.3C71.7 147.7 71.8 143.6 70.6 140.2C70.3 139.3 68.7 139.1 68.6 140.2C68.6 140.2 68.6 140.2 68.6 140.2C68.53 145.2 68.47 148.9 68.4 151.3Z" id="fpnLC9z1z"></path><path d="M74.2 151.6C74.2 153.6 77.3 153.6 77.3 151.6C77.3 147.9 77.5 143.8 76.6 140.2C76.4 139.2 74.7 139.2 74.5 140.2C74.5 140.2 74.5 140.2 74.5 140.2C74.23 145.33 74.13 149.13 74.2 151.6Z" id="a25wim8x"></path><path d="M79 139.8C79.2 139.8 79.4 139.8 79.6 139.8C78.5 139.6 77.4 140.2 76.6 140.8C75.7 141.5 75 142.3 74.6 143.4C74.1 145.2 76.8 146.4 77.6 144.7C77.9 144.1 78.2 143.6 78.7 143.1C79.3 142.5 80 142.1 80.4 141.3C80.3 141.5 80.2 141.7 80.1 141.8C80.2 141.7 80.2 141.7 80.3 141.6C81.2 140.8 80.3 139.7 79.2 139.8C79.2 139.8 79.2 139.8 79.2 139.8C79.13 139.8 79.07 139.8 79 139.8Z" id="aFeSYC0t2"></path><path d="M81.8 151.2C81.9 153.2 85.1 153.2 84.9 151.2C84.6 147.5 85.5 144 84.7 140.3C84.4 139.1 82.8 139.6 82.7 140.6C82.7 140.6 82.7 140.6 82.7 140.6C81.97 145.4 81.67 148.93 81.8 151.2Z" id="cQZ3EJ5Ro"></path><path d="M83.7 142.1C83.1 142.8 83.1 143.7 83.9 144.3C84.6 144.9 85.6 144.6 86.1 143.9C86.6 143.2 87.6 142.7 88.3 142C89.2 141.1 88.3 139.7 87.1 139.9C87.1 139.9 87.1 139.9 87.1 139.9C85.37 140.7 84.23 141.43 83.7 142.1Z" id="deR97kzkY"></path><path d="M98.1 146.9C100 147.1 100 143.8 98.1 144C96.9 144.1 95.8 144.3 94.6 144.4C93.4 144.4 92.2 144.4 91.2 145C90.7 145.4 90.7 146.5 91.5 146.7C91.5 146.7 91.5 146.7 91.5 146.7C94.5 146.7 96.7 146.77 98.1 146.9Z" id="j18GPU8Uj6"></path><path d="M96.6 139.8C93.8 139.3 91.3 141.1 90.7 143.8C90.2 146.3 90.3 150.7 92.8 152.3C95.1 153.8 98.1 152.8 99.8 150.8C101.4 148.9 98.3 146.8 97.2 148.8C96.7 149.8 95 150.6 94.1 149.5C93.3 148.6 93.4 146.2 93.4 145.2C93.5 143.8 94.3 142.3 96 142.6C97.3 142.9 97.3 144.3 97.7 145.3C97.9 146.3 99.2 146.3 99.5 145.4C99.5 145.4 99.5 145.4 99.5 145.4C99.43 142 98.47 140.13 96.6 139.8Z" id="e12l7oc7jp"></path><path d="M102.1 151.5C102 153.4 105 153.4 105.1 151.5C105.3 147.9 105.7 143.7 104.8 140.2C104.6 139.2 103 139.2 102.8 140.2C102.8 140.2 102.8 140.2 102.8 140.2C102.4 145.33 102.17 149.1 102.1 151.5Z" id="jg7BaQQxY"></path><path d="M107.9 142.4C108.4 142.6 108.1 144.9 108 145.3C107.9 147.4 107.5 149.6 107.5 151.7C107.5 153.9 110.9 153.9 110.9 151.7C110.9 149.6 111.1 147.4 111.1 145.3C111.1 143.8 111.3 141.8 110.3 140.5C108.1 137.8 104.8 141.1 103.4 142.9C102.6 144 104.2 145 105.1 144.2C105.1 144.2 105.1 144.2 105.1 144.2C106.63 142.87 107.57 142.27 107.9 142.4Z" id="b1259xMGR"></path><path d="M118.8 152.9C120.7 152.2 120 149.4 118 149.9C118.2 149.9 117 138.2 116.7 137C116.5 135.6 114.6 136.1 114.5 137.3C114.5 137.3 114.5 137.3 114.5 137.3C113.37 149.23 114.8 154.43 118.8 152.9Z" id="a655fFqqr"></path><path d="M115.5 142.9C116.5 143 117.4 143.2 118.3 143.4C120.6 144.1 121.3 140.2 118.8 140.1C116.8 140 114.4 139.7 112.6 140.6C111.7 141.1 112.1 142.2 112.8 142.5C112.8 142.5 112.8 142.5 112.8 142.5C114 142.7 114.9 142.83 115.5 142.9Z" id="cHOVnYsms"></path><path d="M128.2 141.3C127.5 142.7 128 144.3 128.9 145.5C129.5 146.2 130.2 146.7 130.9 147.2C131.2 147.4 132.2 148 132.3 148.4C132 148.8 131.7 149.2 131.3 149.7C130.9 149.5 130.5 149.2 130.2 148.9C129.1 148 126.9 148.8 127.6 150.4C129 153.9 134.9 153.7 135.6 149.7C135.9 147.9 134.8 146.5 133.5 145.4C132.7 144.8 131 144.2 131.4 143.1C131.7 142.1 132.2 142.7 132.9 143.1C133.4 143.3 133.7 143.6 134.2 143.8C135 143.9 135.9 143 135.6 142.2C135.6 142.2 135.6 142.2 135.6 142.2C131.73 139.4 129.27 139.1 128.2 141.3Z" id="bG1QUYf3"></path><path d="M141.2 152.9C142 152.8 142.6 152.4 142.8 151.6C142.8 151.5 142.8 151.4 142.9 151.4C143.4 149.9 141.1 148.4 140.1 149.8C141.1 149.5 141.4 149 141.1 148.3C141 147.8 140.9 147.3 141 146.8C141 145.8 141 144.9 141 143.9C141.1 141.8 141.2 139.7 141 137.7C140.9 136.4 139 135.9 138.7 137.3C138.7 137.3 138.7 137.3 138.7 137.3C136.77 147.97 137.6 153.17 141.2 152.9Z" id="b1yIkTt568"></path><path d="M138.5 143.3C139.6 143.4 140.9 143.7 141.9 143.3C143.3 142.9 143.3 140.9 141.9 140.5C141 140.3 140.1 140.4 139.2 140.5C138.4 140.5 137.6 140.5 136.8 140.8C136.3 141 136 141.5 136.1 142.1C136.1 142.1 136.1 142.1 136.1 142.1C137.17 142.83 137.97 143.23 138.5 143.3Z" id="bmK9Gwkrt"></path><path d="M148.7 143C150.1 142.5 150.2 143 150.3 144.3C150.5 146.4 150.3 148.5 150.3 150.6C150.3 153.5 155 152.6 153.8 149.7C153.8 149.7 153.8 149.6 153.8 149.6C153.6 149.1 152.9 148.7 152.3 148.8C152.3 148.8 152.2 148.8 152.2 148.8C152.8 149.4 153.4 150 154.1 150.7C153.9 148.7 153.9 146.7 153.7 144.8C153.5 143.4 153.4 141.7 152.3 140.6C150.3 138.8 145.9 140.2 145.4 142.9C145.1 143.5 145.7 144.4 146.6 144.1C146.6 144.1 146.6 144.1 146.6 144.1C147.47 143.57 148.17 143.2 148.7 143Z" id="e6gD7BRJ1g"></path><path d="M145 149.6C144.9 151.3 146 152.5 147.6 152.7C149.4 152.9 150.9 151.9 152.2 150.9C153.5 149.8 151.7 147.5 150.4 148.5C149.8 148.9 149.1 149.6 148.4 149.7C148.3 149.7 148.1 149.7 148 149.7C148 149.9 148.1 149.9 148.1 149.8C148 149.6 148.2 149.1 148.3 148.9C148.9 147.6 150.9 147.6 152 147.2C152.9 146.9 153.1 145.2 151.9 145C151.9 145 151.9 145 151.9 145C147.5 145.67 145.2 147.2 145 149.6Z" id="c5Hei58duu"></path><path d="M161.1 152.7C162.8 152.3 162.5 149.5 160.7 149.6C160.1 149.6 159.4 138.3 159.1 137C158.8 135.9 157.1 136.2 157.1 137.3C157.1 137.3 157.1 137.3 157.1 137.3C155.83 148.5 157.17 153.63 161.1 152.7Z" id="b2O26SRKhh"></path><path d="M158.2 142.9C159.1 143 159.9 143.1 160.8 143.1C163.1 143 162.7 139.6 160.4 140C158.8 140.2 157.2 140 155.6 140.8C154.7 141.2 155.1 142.2 155.8 142.5C155.8 142.5 155.8 142.5 155.8 142.5C156.87 142.7 157.67 142.83 158.2 142.9Z" id="jzFGN1FTO"></path><path d="M170.6 146.9C172.5 146.7 172.7 143.7 170.6 143.8C169.5 143.8 168.5 144 167.4 144.2C166.4 144.3 165.3 144.4 164.4 144.8C163.5 145.1 163.3 146.6 164.4 146.8C164.4 146.8 164.4 146.8 164.4 146.8C167.27 147 169.33 147.03 170.6 146.9Z" id="bkC2IsSdb"></path><path d="M169.6 139.9C167.1 139.5 164.8 140.7 164.2 143.3C163.6 145.8 164.3 149.7 166.2 151.5C168.4 153.7 170.9 152.4 172.4 150.3C173.5 148.8 171 146.9 169.8 148.3C169.1 149.1 168.7 150 167.9 148.7C167.3 147.8 167.1 146.1 167 145C167 143.9 167.5 142.5 168.9 142.8C170.2 143.1 170.1 144.8 170.3 145.9C170.7 147.1 172.4 147 172.6 145.9C172.6 145.9 172.6 145.9 172.6 145.9C172.53 142.23 171.53 140.23 169.6 139.9Z" id="e1SuuFWdwK"></path><path d="M178 143.7C178.8 145.1 180.4 145.6 181.8 146C181.7 145.1 181.6 144.2 181.4 143.3C180 144.1 178.9 144.6 178.4 146.2C177.6 148.5 178.8 151.6 175.8 152.3C173.7 152.8 174.7 156.2 176.7 155.5C178.4 154.9 180.1 154.3 180.8 152.5C181.7 150 180.3 147.6 183.1 145.9C184.1 145.3 184.1 143.4 182.7 143.2C179 142.6 181.5 138.5 180.2 136.3C179.3 134.8 177.6 134.9 176.1 135.1C174.9 135.3 175.3 137.1 176.4 137.2C176.4 137.2 176.4 137.2 176.4 137.2C176.8 140.33 177.33 142.5 178 143.7Z" id="duw1fNT7"></path><path d="M75.8 164.9C74 167.2 76.6 171 72.9 172.3C71.8 172.7 71.5 174.6 72.9 174.9C76.9 175.5 72.3 184.5 77.6 183.9C79.5 183.7 79.5 180.7 77.6 180.9C78 180.9 77.4 175.3 77 174.5C76.2 173 74.9 172.5 73.3 172.3C73.4 173.2 73.5 174 73.7 174.9C75.1 174.4 76.5 173.8 77.3 172.5C78.3 170.7 76.9 166.9 79.1 166C80 165.5 80.1 164.1 79 163.8C79 163.8 79 163.8 79 163.8C77.4 163.8 76.33 164.17 75.8 164.9Z" id="e4NVWKRDjG"></path><path d="M86.8 171.6C88.2 171.7 88.3 172.9 88.4 174.1C88.6 176.1 88.6 178.1 88.6 180C88.6 182.1 91.9 182.1 91.9 180C91.9 177 92.2 172.1 89.8 169.8C87.8 168 83.7 168.8 82.6 171.2C82.1 172.1 83 173.4 84 172.7C84 172.7 84 172.7 84 172.7C85.2 171.9 86.13 171.53 86.8 171.6Z" id="c1QM8Oqph7"></path><path d="M82 179.2C82.3 183.1 87.9 182.3 89.7 180.1C90.9 178.7 89.1 176.9 87.7 178.1C87.2 178.5 86.7 179 85.9 179.1C85.1 179.2 84.4 178.9 85.1 178.1C86.1 177 87.9 176.3 89.3 175.7C90.6 175.1 90.5 173.2 89.1 173.3C89.1 173.3 89.1 173.3 89.1 173.3C84.17 174.97 81.8 176.93 82 179.2Z" id="b1wWdj8MAE"></path><path d="M97.7 169.2C95.1 170 94.3 173 94.3 175.4C94.4 177.9 95.5 181.1 98.1 182.1C101 183.2 103 181.1 103.9 178.5C104.5 176.7 101.8 176 101.1 177.7C100.9 178.2 100.7 178.7 100.3 179.2C99.1 179.5 98.3 179.2 97.9 178.2C97.5 177.4 97.2 176.5 97.1 175.5C97 174.7 97 173.5 97.4 172.7C97.8 171.5 98.7 171.3 100.2 172C100.4 172.3 100.6 172.7 100.8 173C101.5 174 102.9 173.6 102.9 172.6C102.9 172.6 102.9 172.6 102.9 172.6C101.17 169.73 99.43 168.6 97.7 169.2Z" id="f3OsHNaxTB"></path><path d="M106.8 178C106.9 180.1 107.4 182 109.8 182.1C111.6 182.2 111.7 179.2 109.8 179.2C109.7 179.2 109.1 167.1 108.9 166C108.6 164.8 106.7 165.2 106.6 166.4C106.6 166.4 106.6 166.4 106.6 166.4C106.6 171.6 106.67 175.47 106.8 178Z" id="a1MCkfM2E"></path><path d="M105.7 169.6C104.8 169.4 104.3 170.4 104.9 171C105.5 171.7 106.7 171.7 107.5 171.8C108.5 171.9 109.7 171.9 110.7 171.7C112.4 171.4 112 168.5 110.3 168.7C109.3 168.8 108.3 169 107.4 169.2C106.5 169.3 105.6 169.3 104.9 169.9C105.2 170.4 105.5 170.9 105.7 171.3C105.7 171.3 105.8 171.3 105.8 171.3C106.5 171 106.6 169.8 105.8 169.6C105.8 169.6 105.8 169.6 105.8 169.6C105.75 169.6 105.71 169.6 105.7 169.6Z" id="b4iMCtOrOi"></path><path d="M113.7 165.6C113.9 166.7 115.3 166.9 116 166.2C116.7 165.5 116.4 164.1 115.4 163.9C115.4 163.9 115.4 163.9 115.4 163.9C114.3 163.7 113.5 164.5 113.7 165.6C113.7 165.6 113.7 165.6 113.7 165.6C113.7 165.6 113.7 165.6 113.7 165.6Z" id="i1tF9BSFXw"></path><path d="M113.9 174.7C114 176.7 114 178.7 114 180.7C114 182.5 116.8 182.5 116.9 180.7C116.9 177.1 117.3 172.4 115.8 169.1C115.4 168.3 114.1 168.5 113.9 169.3C113.9 169.3 113.9 169.3 113.9 169.3C113.83 171.7 113.83 173.5 113.9 174.7Z" id="ccOVRoMRS"></path><path d="M123.7 169.2C120.2 169.9 119.6 174 119.9 176.9C120.2 179.8 122.1 182.4 125.3 182.1C128.8 181.7 129.2 177.7 128.4 175C127.9 173.3 125.5 174 125.8 175.7C126 177 126.4 179.2 124.7 179.4C122.9 179.6 122.6 177.1 122.6 175.9C122.6 174.8 122.5 172.9 123.5 172.2C124.2 171.7 125.2 171.9 125.7 172.6C126.2 173.2 126.3 174.1 126.5 174.8C126.8 175.8 128.4 175.6 128.5 174.5C128.5 174.5 128.5 174.5 128.5 174.5C127.43 170.57 125.83 168.8 123.7 169.2Z" id="d24bmRK8QJ"></path><path d="M132.2 180C132 181.9 135.1 181.9 135.2 180C135.4 176.6 135.5 172.1 134.1 168.9C133.7 168.1 132.5 168.4 132.2 169.2C132.2 169.2 132.2 169.2 132.2 169.2C132.4 174.13 132.4 177.73 132.2 180Z" id="cc41S8vT"></path><path d="M138 171.1C138.6 171.1 138 171 138 171.6C138 172.1 138 172.7 138 173.2C137.9 175.4 137.8 177.6 137.7 179.8C137.6 181.8 141 181.8 140.8 179.8C140.7 177.8 140.7 175.8 140.8 173.8C140.9 172.3 141.2 170.5 140.4 169.2C138.8 166.6 135.1 168.9 134.1 170.8C133.8 171.6 134.4 172.6 135.2 172.3C135.2 172.3 135.2 172.3 135.2 172.3C136.47 171.57 137.4 171.17 138 171.1Z" id="ahVajkros"></path><path d="M146.6 172.6C147.2 173.9 148.2 174.4 149.5 174.8C149.5 173.8 149.5 172.9 149.5 171.9C148 172.5 146.9 173.1 146.4 174.6C145.7 176.6 147.1 180.3 144.4 180.9C142.3 181.4 143.2 184.7 145.3 184.1C146.6 183.7 147.8 183.3 148.6 182.1C149.9 180.1 148.3 175.9 150.7 174.6C151.9 174 151.6 172.1 150.3 171.8C147.5 171.1 149.6 166.6 147.8 164.7C146.7 163.6 145.4 163.6 144 164.1C143 164.6 143.2 165.9 144.2 165.9C144.2 165.9 144.2 165.9 144.2 165.9C145.27 169.3 146.07 171.53 146.6 172.6Z" id="aPtKCQl77"></path><path d="M296.6 116C297.9 114.7 297.4 112 295 112.1C271.6 113 248.1 113.7 224.7 114C212.5 114 200.2 113.9 188 113.6C187.2 113.6 186.6 113.9 186.3 114.3C184.5 114.9 184.7 117.9 186.9 118C187.1 118.1 187.4 118.2 187.6 118.3C185.2 119.1 185.4 123.2 188.3 123.1C215 122.9 241.6 122.5 268.3 121.6C277.6 122 287 122.4 296.3 122.8C299.1 122.9 299.5 119.2 297.6 118.1C297.6 117.3 297.2 116.5 296.6 116Z" id="a1FwkAxMoe"></path><path d="M556.8 111.8C556 111 554.9 110.3 553.7 109.7C547.4 105.3 541.4 100.6 535.7 95.4C534.1 93.9 531.9 95 531.3 96.6C530.4 97.2 529.9 98.3 530.4 99.4C529.8 100.3 529.8 101.4 530.8 102.4C535.3 106.6 539.9 110.7 544.6 114.6C536.6 114.6 528.7 114.7 520.7 115C519.6 115 518.5 115 517.4 115C516 114.9 514.7 114.7 513.3 114.6C507.3 114 501.2 113.5 495.1 113.2C490.4 113 483.8 111.9 479.3 113.7C478.5 114 478.1 114.5 478 115.4C478 115.6 478 115.7 477.9 115.9C477.8 116.7 478.3 117.3 479 117.5C476.9 118.1 476.6 121.1 479 121.9C484 123.5 489.9 122.7 495.1 122.7C501.2 122.7 507.4 122.7 513.5 122.7C523.7 122.7 534 122.8 544.2 122.8C540.4 127.9 536.4 133 532.3 137.9C530.5 140.1 532.8 143.7 535.5 142C535.6 142 535.6 141.9 535.7 141.9C536.3 143.1 537.6 143.8 539.1 142.8C548.4 136.4 553.2 126.1 561 118.3C562.3 117.1 562 115.1 560.6 114.2C559.3 113.4 558.1 112.6 556.8 111.8Z" id="ch043ZgZN"></path><path d="M727.8 64.4C726.4 63.5 725 62.7 723.4 62" id="a36913Nqc"></path><path d="M714.1 58.3C688.1 50.2 649.1 52.6 621.9 63.7C589.2 77 573.7 99.8 577.9 119.8C581.2 135.7 596.6 150.6 622.2 158.4C647.8 166.1 684 165.8 711 155.8C734.3 147.2 748.3 132.8 753.4 118.7C760 100.8 753.5 84.3 736.2 70.4" id="j1Otgj5lSC"></path><path d="M732.2 67.4C730.9 66.5 729.5 65.5 728.1 64.6" id="b2oVmTE20E"></path><path d="M633.3 189.7C631.9 192 632.8 194.2 634.7 195.7C635.9 196.7 637.3 197.4 638.5 198.5C639.1 199.1 639.8 199.9 640 200.7C640.5 202.6 637.6 203.3 637.2 201.1C636.8 198.6 632.4 199.2 632.7 201.7C633.4 207.2 641.2 209.9 643.8 204.1C644.9 201.6 644.3 198.9 642.7 196.9C641.8 195.7 640.7 194.8 639.6 194C639.2 193.7 636.2 192.1 639 191.5C639.4 191.4 641.2 192.8 641.7 193.1C642.6 193.5 644.1 193 643.9 191.8C643.9 191.8 643.9 191.8 643.9 191.8C638.5 187.6 634.97 186.9 633.3 189.7Z" id="bBoT3QFe6"></path><path d="M651.3 191.4C653.2 191.4 655 191.4 656.9 191.4C659.6 191.4 659.6 187 656.9 187.2C654.9 187.3 652.9 187.4 650.9 187.5C649.1 187.6 647.4 187.6 645.8 188.3C644.5 188.9 645 190.6 646.1 191C646.1 191 646.1 191 646.1 191C648.43 191.27 650.17 191.4 651.3 191.4Z" id="c5wMgxyyb"></path><path d="M649.6 204.2C649.4 207 653.9 207.1 654 204.2C654.1 199.6 654.1 195 653.7 190.5C653.5 188.3 650.4 188.3 650.3 190.5C650.3 190.5 650.3 190.5 650.3 190.5C650.03 196.63 649.8 201.2 649.6 204.2Z" id="b3bcAPCg1v"></path><path d="M666.7 187.6C661.6 188 660.5 193.8 660.8 197.9C661.1 201.7 662.7 206.8 667.5 206.4C672.6 205.9 672.8 199.2 672.7 195.3C672.6 192.8 668.9 192.8 668.8 195.3C668.7 197 668.9 199.3 668.1 200.8C666.6 203.8 665.2 200.4 665 198.6C664.8 196.9 664.6 194.7 665.3 193.1C665.8 192 667.1 190.8 668.3 191.9C668.9 192.5 668.7 194.3 668.8 195.1C669.1 196.5 670.8 196.9 671.3 195.5C671.3 195.5 671.3 195.5 671.3 195.5C671.23 190.03 669.7 187.4 666.7 187.6Z" id="cv2zfmKQ6"></path><path d="M674.6 196.7C674.5 199.5 674.5 202.3 674.5 205C674.5 207.9 679.2 207.9 679 205C678.8 202.2 678.7 199.4 678.7 196.7C678.7 194.2 679 191.6 678.2 189.2C677.9 187.8 676.1 188 675.5 189.2C675.5 189.2 675.5 189.2 675.5 189.2C674.97 192.6 674.67 195.1 674.6 196.7Z" id="avbF4Obyg"></path><path d="M681.4 191.7C681.9 192.1 681.9 193.2 681.7 193.8C681.3 195.4 679.6 196.1 678.1 195.8C675.4 195.3 674.2 199.4 676.9 200C680.9 200.9 685.2 198.5 685.7 194.2C685.9 192.4 685.3 190.4 683.9 189.1C682.2 187.6 679.2 188 677.2 188.5C675.7 188.9 676 191.5 677.7 191.4C677.7 191.4 677.7 191.4 677.7 191.4C679.7 191.2 680.93 191.3 681.4 191.7Z" id="a4tMLKMloM"></path><path d="M681.1 202.8C681.7 204 682.1 205.3 682.8 206.4C684.1 208.9 687.8 206.7 686.6 204.2C686 203 685.3 201.9 684.7 200.7C684.1 199.6 683.5 198.4 682.6 197.4C681.3 196.1 679.3 197.5 679.6 199.1C679.6 199.1 679.6 199.1 679.6 199.1C680.2 200.77 680.7 202 681.1 202.8Z" id="j4F0DLyhu9"></path><path d="M691.3 187.8C690.6 187.9 690.1 188.6 689.9 189.2C689.2 191.7 689.7 194.7 689.8 197.3C689.8 199.8 689.4 202.8 690 205.3C690.2 206 690.8 206.6 691.5 206.8C693.4 207.3 695.8 206.9 697.8 206.9C700.7 206.9 700.7 202.2 697.8 202.4C696.3 202.5 694.1 203 692.7 202.7C693.2 203.2 693.7 203.7 694.2 204.2C693.6 202.2 694 199.5 694 197.4C694 195.3 693.4 192.4 693.9 190.4C693.4 190.9 693 191.3 692.5 191.8C694.3 191.3 696.7 191.6 698.6 191.4C699.9 191.2 700.6 188.7 698.8 188.4C698.8 188.4 698.8 188.4 698.8 188.4C695.4 187.6 692.9 187.4 691.3 187.8Z" id="iBm9ZaLea"></path><path d="M695.6 199.5C696.3 199.5 696.9 199.7 697.6 199.7C698.7 199.7 699.7 198.7 699.7 197.6C699.7 196.4 698.7 195.6 697.6 195.5C696.2 195.4 694.5 195.8 693.1 196C691.2 196.4 691.6 199.5 693.6 199.5C693.6 199.5 693.6 199.5 693.6 199.5C694.47 199.5 695.13 199.5 695.6 199.5Z" id="ajTRfRjkp"></path></defs><g visibility="inherit"><g visibility="inherit"><use xlink:href="#b1qjOkgoWy" opacity="1" fill="#c9bea9" fill-opacity="1"></use><g><use xlink:href="#b1qjOkgoWy" opacity="1" fill-opacity="0" stroke="#000000" stroke-width="1" stroke-opacity="0"></use></g></g><g visibility="inherit"><use xlink:href="#auLIPqEHu" opacity="1" fill="#998565" fill-opacity="1"></use><g><use xlink:href="#auLIPqEHu" opacity="1" fill-opacity="0" stroke="#000000" stroke-width="1" stroke-opacity="0"></use></g></g><g visibility="inherit"><use xlink:href="#a3YU2ig3u5" opacity="1" fill="#dfb945" fill-opacity="1"></use><g><use xlink:href="#a3YU2ig3u5" opacity="1" fill-opacity="0" stroke="#000000" stroke-width="1" stroke-opacity="0"></use></g></g><g visibility="inherit"><use xlink:href="#a4rLLr2mYo" opacity="1" fill="#ffffff" fill-opacity="1"></use><g><use xlink:href="#a4rLLr2mYo" opacity="1" fill-opacity="0" stroke="#000000" stroke-width="1" stroke-opacity="0"></use></g></g><g visibility="inherit"><use xlink:href="#d50EUGn7u6" opacity="1" fill="#ffffff" fill-opacity="1"></use><g><use xlink:href="#d50EUGn7u6" opacity="1" fill-opacity="0" stroke="#000000" stroke-width="1" stroke-opacity="0"></use></g></g><g visibility="inherit"><use xlink:href="#a2w5jKR6Tb" opacity="1" fill="#ffffff" fill-opacity="1"></use><g><use xlink:href="#a2w5jKR6Tb" opacity="1" fill-opacity="0" stroke="#000000" stroke-width="1" stroke-opacity="0"></use></g></g><g visibility="inherit"><use xlink:href="#b4U30eTDp" opacity="1" fill="#ffffff" fill-opacity="1"></use><g><use xlink:href="#b4U30eTDp" opacity="1" fill-opacity="0" stroke="#000000" stroke-width="1" stroke-opacity="0"></use></g></g><g visibility="inherit"><use xlink:href="#bfsexGwq2" opacity="1" fill="#ffffff" fill-opacity="1"></use><g><use xlink:href="#bfsexGwq2" opacity="1" fill-opacity="0" stroke="#000000" stroke-width="1" stroke-opacity="0"></use></g></g><g visibility="inherit"><use xlink:href="#g53rNcKOyw" opacity="1" fill="#ffffff" fill-opacity="1"></use><g><use xlink:href="#g53rNcKOyw" opacity="1" fill-opacity="0" stroke="#000000" stroke-width="1" stroke-opacity="0"></use></g></g><g visibility="inherit"><use xlink:href="#a3ivyrZ5OB" opacity="1" fill="#ffffff" fill-opacity="1"></use><g><use xlink:href="#a3ivyrZ5OB" opacity="1" fill-opacity="0" stroke="#000000" stroke-width="1" stroke-opacity="0"></use></g></g><g visibility="inherit"><use xlink:href="#bAOz8oxPI" opacity="1" fill="#ffffff" fill-opacity="1"></use><g><use xlink:href="#bAOz8oxPI" opacity="1" fill-opacity="0" stroke="#000000" stroke-width="1" stroke-opacity="0"></use></g></g><g visibility="inherit"><use xlink:href="#i7ohBBqBh" opacity="1" fill="#ffffff" fill-opacity="1"></use><g><use xlink:href="#i7ohBBqBh" opacity="1" fill-opacity="0" stroke="#000000" stroke-width="1" stroke-opacity="0"></use></g></g><g visibility="inherit"><use xlink:href="#afWQBg8lf" opacity="1" fill="#ffffff" fill-opacity="1"></use><g><use xlink:href="#afWQBg8lf" opacity="1" fill-opacity="0" stroke="#000000" stroke-width="1" stroke-opacity="0"></use></g></g><g visibility="inherit"><use xlink:href="#b2FQ2ys5Sq" opacity="1" fill="#ffffff" fill-opacity="1"></use><g><use xlink:href="#b2FQ2ys5Sq" opacity="1" fill-opacity="0" stroke="#000000" stroke-width="1" stroke-opacity="0"></use></g></g><g visibility="inherit"><use xlink:href="#bS5wgTvy0" opacity="1" fill="#ffffff" fill-opacity="1"></use><g><use xlink:href="#bS5wgTvy0" opacity="1" fill-opacity="0" stroke="#000000" stroke-width="1" stroke-opacity="0"></use></g></g><g visibility="inherit"><use xlink:href="#cQaE8STkE" opacity="1" fill="#ffffff" fill-opacity="1"></use><g><use xlink:href="#cQaE8STkE" opacity="1" fill-opacity="0" stroke="#000000" stroke-width="1" stroke-opacity="0"></use></g></g><g visibility="inherit"><use xlink:href="#b4NBM8QF1j" opacity="1" fill="#ffffff" fill-opacity="1"></use><g><use xlink:href="#b4NBM8QF1j" opacity="1" fill-opacity="0" stroke="#000000" stroke-width="1" stroke-opacity="0"></use></g></g><g visibility="inherit"><use xlink:href="#b24GzDw7zx" opacity="1" fill="#ffffff" fill-opacity="1"></use><g><use xlink:href="#b24GzDw7zx" opacity="1" fill-opacity="0" stroke="#000000" stroke-width="1" stroke-opacity="0"></use></g></g><g visibility="inherit"><use xlink:href="#a5DTweivd5" opacity="1" fill="#ffffff" fill-opacity="1"></use><g><use xlink:href="#a5DTweivd5" opacity="1" fill-opacity="0" stroke="#000000" stroke-width="1" stroke-opacity="0"></use></g></g><g visibility="inherit"><use xlink:href="#a4MDJSjLW" opacity="1" fill="#1e1e1e" fill-opacity="1"></use><g><use xlink:href="#a4MDJSjLW" opacity="1" fill-opacity="0" stroke="#000000" stroke-width="1" stroke-opacity="0"></use></g></g><g visibility="inherit"><use xlink:href="#a1YPGQSOqN" opacity="1" fill="#1e1e1e" fill-opacity="1"></use><g><use xlink:href="#a1YPGQSOqN" opacity="1" fill-opacity="0" stroke="#000000" stroke-width="1" stroke-opacity="0"></use></g></g><g visibility="inherit"><use xlink:href="#b2jmSRhK9O" opacity="1" fill="#1e1e1e" fill-opacity="1"></use><g><use xlink:href="#b2jmSRhK9O" opacity="1" fill-opacity="0" stroke="#000000" stroke-width="1" stroke-opacity="0"></use></g></g><g visibility="inherit"><use xlink:href="#awFQrlPP3" opacity="1" fill="#1e1e1e" fill-opacity="1"></use><g><use xlink:href="#awFQrlPP3" opacity="1" fill-opacity="0" stroke="#000000" stroke-width="1" stroke-opacity="0"></use></g></g><g visibility="inherit"><use xlink:href="#arEcNmNcU" opacity="1" fill="#1e1e1e" fill-opacity="1"></use><g><use xlink:href="#arEcNmNcU" opacity="1" fill-opacity="0" stroke="#000000" stroke-width="1" stroke-opacity="0"></use></g></g><g visibility="inherit"><use xlink:href="#b5IE74Zit" opacity="1" fill="#1e1e1e" fill-opacity="1"></use><g><use xlink:href="#b5IE74Zit" opacity="1" fill-opacity="0" stroke="#000000" stroke-width="1" stroke-opacity="0"></use></g></g><g visibility="inherit"><use xlink:href="#a194uGHkkA" opacity="1" fill="#1e1e1e" fill-opacity="1"></use><g><use xlink:href="#a194uGHkkA" opacity="1" fill-opacity="0" stroke="#000000" stroke-width="1" stroke-opacity="0"></use></g></g><g visibility="inherit"><use xlink:href="#ayPWJVnjL" opacity="1" fill="#1e1e1e" fill-opacity="1"></use><g><use xlink:href="#ayPWJVnjL" opacity="1" fill-opacity="0" stroke="#000000" stroke-width="1" stroke-opacity="0"></use></g></g><g visibility="inherit"><use xlink:href="#a99FQdgMu" opacity="1" fill="#1e1e1e" fill-opacity="1"></use><g><use xlink:href="#a99FQdgMu" opacity="1" fill-opacity="0" stroke="#000000" stroke-width="1" stroke-opacity="0"></use></g></g><g visibility="inherit"><use xlink:href="#k1bgDmYXg0" opacity="1" fill="#1e1e1e" fill-opacity="1"></use><g><use xlink:href="#k1bgDmYXg0" opacity="1" fill-opacity="0" stroke="#000000" stroke-width="1" stroke-opacity="0"></use></g></g><g visibility="inherit"><use xlink:href="#aJlCxw0aH" opacity="1" fill="#1e1e1e" fill-opacity="1"></use><g><use xlink:href="#aJlCxw0aH" opacity="1" fill-opacity="0" stroke="#000000" stroke-width="1" stroke-opacity="0"></use></g></g><g visibility="inherit"><use xlink:href="#d1kCVI2Skn" opacity="1" fill="#1e1e1e" fill-opacity="1"></use><g><use xlink:href="#d1kCVI2Skn" opacity="1" fill-opacity="0" stroke="#000000" stroke-width="1" stroke-opacity="0"></use></g></g><g visibility="inherit"><use xlink:href="#b1OeNbPA3J" opacity="1" fill="#1e1e1e" fill-opacity="1"></use><g><use xlink:href="#b1OeNbPA3J" opacity="1" fill-opacity="0" stroke="#000000" stroke-width="1" stroke-opacity="0"></use></g></g><g visibility="inherit"><use xlink:href="#jlADSC9Lt" opacity="1" fill="#1e1e1e" fill-opacity="1"></use><g><use xlink:href="#jlADSC9Lt" opacity="1" fill-opacity="0" stroke="#000000" stroke-width="1" stroke-opacity="0"></use></g></g><g visibility="inherit"><use xlink:href="#d72gCw7kk" opacity="1" fill="#1e1e1e" fill-opacity="1"></use><g><use xlink:href="#d72gCw7kk" opacity="1" fill-opacity="0" stroke="#000000" stroke-width="1" stroke-opacity="0"></use></g></g><g visibility="inherit"><use xlink:href="#a2vSiC6nY" opacity="1" fill="#1e1e1e" fill-opacity="1"></use><g><use xlink:href="#a2vSiC6nY" opacity="1" fill-opacity="0" stroke="#000000" stroke-width="1" stroke-opacity="0"></use></g></g><g visibility="inherit"><use xlink:href="#cy0cmtgCA" opacity="1" fill="#1e1e1e" fill-opacity="1"></use><g><use xlink:href="#cy0cmtgCA" opacity="1" fill-opacity="0" stroke="#000000" stroke-width="1" stroke-opacity="0"></use></g></g><g visibility="inherit"><use xlink:href="#bc1jM23VfB" opacity="1" fill="#1e1e1e" fill-opacity="1"></use><g><use xlink:href="#bc1jM23VfB" opacity="1" fill-opacity="0" stroke="#000000" stroke-width="1" stroke-opacity="0"></use></g></g><g visibility="inherit"><use xlink:href="#d2o6jdLa9T" opacity="1" fill="#1e1e1e" fill-opacity="1"></use><g><use xlink:href="#d2o6jdLa9T" opacity="1" fill-opacity="0" stroke="#000000" stroke-width="1" stroke-opacity="0"></use></g></g><g visibility="inherit"><use xlink:href="#f7uLm3xZT" opacity="1" fill="#1e1e1e" fill-opacity="1"></use><g><use xlink:href="#f7uLm3xZT" opacity="1" fill-opacity="0" stroke="#000000" stroke-width="1" stroke-opacity="0"></use></g></g><g visibility="inherit"><use xlink:href="#aUsBHEGqI" opacity="1" fill="#1e1e1e" fill-opacity="1"></use><g><use xlink:href="#aUsBHEGqI" opacity="1" fill-opacity="0" stroke="#000000" stroke-width="1" stroke-opacity="0"></use></g></g><g visibility="inherit"><use xlink:href="#a1ejpdlp4v" opacity="1" fill="#1e1e1e" fill-opacity="1"></use><g><use xlink:href="#a1ejpdlp4v" opacity="1" fill-opacity="0" stroke="#000000" stroke-width="1" stroke-opacity="0"></use></g></g><g visibility="inherit"><use xlink:href="#b29OfvP8rU" opacity="1" fill="#1e1e1e" fill-opacity="1"></use><g><use xlink:href="#b29OfvP8rU" opacity="1" fill-opacity="0" stroke="#000000" stroke-width="1" stroke-opacity="0"></use></g></g><g visibility="inherit"><use xlink:href="#f2OaeIZGvK" opacity="1" fill="#1e1e1e" fill-opacity="1"></use><g><use xlink:href="#f2OaeIZGvK" opacity="1" fill-opacity="0" stroke="#000000" stroke-width="1" stroke-opacity="0"></use></g></g><g visibility="inherit"><use xlink:href="#dgsavRRny" opacity="1" fill="#1e1e1e" fill-opacity="1"></use><g><use xlink:href="#dgsavRRny" opacity="1" fill-opacity="0" stroke="#000000" stroke-width="1" stroke-opacity="0"></use></g></g><g visibility="inherit"><use xlink:href="#eMAiBXkB0" opacity="1" fill="#1e1e1e" fill-opacity="1"></use><g><use xlink:href="#eMAiBXkB0" opacity="1" fill-opacity="0" stroke="#000000" stroke-width="1" stroke-opacity="0"></use></g></g><g visibility="inherit"><use xlink:href="#f5yykhOT1n" opacity="1" fill="#1e1e1e" fill-opacity="1"></use><g><use xlink:href="#f5yykhOT1n" opacity="1" fill-opacity="0" stroke="#000000" stroke-width="1" stroke-opacity="0"></use></g></g><g visibility="inherit"><use xlink:href="#c7HIeo5WR" opacity="1" fill="#1e1e1e" fill-opacity="1"></use><g><use xlink:href="#c7HIeo5WR" opacity="1" fill-opacity="0" stroke="#000000" stroke-width="1" stroke-opacity="0"></use></g></g><g visibility="inherit"><use xlink:href="#b1XXkTBqNu" opacity="1" fill="#1e1e1e" fill-opacity="1"></use><g><use xlink:href="#b1XXkTBqNu" opacity="1" fill-opacity="0" stroke="#000000" stroke-width="1" stroke-opacity="0"></use></g></g><g visibility="inherit"><use xlink:href="#ceoCleSub" opacity="1" fill="#1e1e1e" fill-opacity="1"></use><g><use xlink:href="#ceoCleSub" opacity="1" fill-opacity="0" stroke="#000000" stroke-width="1" stroke-opacity="0"></use></g></g><g visibility="inherit"><use xlink:href="#h27sfXrpOy" opacity="1" fill="#1e1e1e" fill-opacity="1"></use><g><use xlink:href="#h27sfXrpOy" opacity="1" fill-opacity="0" stroke="#000000" stroke-width="1" stroke-opacity="0"></use></g></g><g visibility="inherit"><use xlink:href="#dtqxOL5OV" opacity="1" fill="#1e1e1e" fill-opacity="1"></use><g><use xlink:href="#dtqxOL5OV" opacity="1" fill-opacity="0" stroke="#000000" stroke-width="1" stroke-opacity="0"></use></g></g><g visibility="inherit"><use xlink:href="#bJdUvGjO" opacity="1" fill="#1e1e1e" fill-opacity="1"></use><g><use xlink:href="#bJdUvGjO" opacity="1" fill-opacity="0" stroke="#000000" stroke-width="1" stroke-opacity="0"></use></g></g><g visibility="inherit"><use xlink:href="#c1UpYXx2v1" opacity="1" fill="#1e1e1e" fill-opacity="1"></use><g><use xlink:href="#c1UpYXx2v1" opacity="1" fill-opacity="0" stroke="#000000" stroke-width="1" stroke-opacity="0"></use></g></g><g visibility="inherit"><use xlink:href="#b6TKsdpHZd" opacity="1" fill="#1e1e1e" fill-opacity="1"></use><g><use xlink:href="#b6TKsdpHZd" opacity="1" fill-opacity="0" stroke="#000000" stroke-width="1" stroke-opacity="0"></use></g></g><g visibility="inherit"><use xlink:href="#iQi11ij73" opacity="1" fill="#1e1e1e" fill-opacity="1"></use><g><use xlink:href="#iQi11ij73" opacity="1" fill-opacity="0" stroke="#000000" stroke-width="1" stroke-opacity="0"></use></g></g><g visibility="inherit"><use xlink:href="#bTcEHvUFn" opacity="1" fill="#ffffff" fill-opacity="1"></use><g><use xlink:href="#bTcEHvUFn" opacity="1" fill-opacity="0" stroke="#000000" stroke-width="1" stroke-opacity="0"></use></g></g><g visibility="inherit"><use xlink:href="#b3C97wRia" opacity="1" fill="#ffffff" fill-opacity="1"></use><g><use xlink:href="#b3C97wRia" opacity="1" fill-opacity="0" stroke="#000000" stroke-width="1" stroke-opacity="0"></use></g></g><g visibility="inherit"><use xlink:href="#axiOPjKN" opacity="1" fill="#ffffff" fill-opacity="1"></use><g><use xlink:href="#axiOPjKN" opacity="1" fill-opacity="0" stroke="#000000" stroke-width="1" stroke-opacity="0"></use></g></g><g visibility="inherit"><use xlink:href="#fpnLC9z1z" opacity="1" fill="#ffffff" fill-opacity="1"></use><g><use xlink:href="#fpnLC9z1z" opacity="1" fill-opacity="0" stroke="#000000" stroke-width="1" stroke-opacity="0"></use></g></g><g visibility="inherit"><use xlink:href="#a25wim8x" opacity="1" fill="#ffffff" fill-opacity="1"></use><g><use xlink:href="#a25wim8x" opacity="1" fill-opacity="0" stroke="#000000" stroke-width="1" stroke-opacity="0"></use></g></g><g visibility="inherit"><use xlink:href="#aFeSYC0t2" opacity="1" fill="#ffffff" fill-opacity="1"></use><g><use xlink:href="#aFeSYC0t2" opacity="1" fill-opacity="0" stroke="#000000" stroke-width="1" stroke-opacity="0"></use></g></g><g visibility="inherit"><use xlink:href="#cQZ3EJ5Ro" opacity="1" fill="#ffffff" fill-opacity="1"></use><g><use xlink:href="#cQZ3EJ5Ro" opacity="1" fill-opacity="0" stroke="#000000" stroke-width="1" stroke-opacity="0"></use></g></g><g visibility="inherit"><use xlink:href="#deR97kzkY" opacity="1" fill="#ffffff" fill-opacity="1"></use><g><use xlink:href="#deR97kzkY" opacity="1" fill-opacity="0" stroke="#000000" stroke-width="1" stroke-opacity="0"></use></g></g><g visibility="inherit"><use xlink:href="#j18GPU8Uj6" opacity="1" fill="#ffffff" fill-opacity="1"></use><g><use xlink:href="#j18GPU8Uj6" opacity="1" fill-opacity="0" stroke="#000000" stroke-width="1" stroke-opacity="0"></use></g></g><g visibility="inherit"><use xlink:href="#e12l7oc7jp" opacity="1" fill="#ffffff" fill-opacity="1"></use><g><use xlink:href="#e12l7oc7jp" opacity="1" fill-opacity="0" stroke="#000000" stroke-width="1" stroke-opacity="0"></use></g></g><g visibility="inherit"><use xlink:href="#jg7BaQQxY" opacity="1" fill="#ffffff" fill-opacity="1"></use><g><use xlink:href="#jg7BaQQxY" opacity="1" fill-opacity="0" stroke="#000000" stroke-width="1" stroke-opacity="0"></use></g></g><g visibility="inherit"><use xlink:href="#b1259xMGR" opacity="1" fill="#ffffff" fill-opacity="1"></use><g><use xlink:href="#b1259xMGR" opacity="1" fill-opacity="0" stroke="#000000" stroke-width="1" stroke-opacity="0"></use></g></g><g visibility="inherit"><use xlink:href="#a655fFqqr" opacity="1" fill="#ffffff" fill-opacity="1"></use><g><use xlink:href="#a655fFqqr" opacity="1" fill-opacity="0" stroke="#000000" stroke-width="1" stroke-opacity="0"></use></g></g><g visibility="inherit"><use xlink:href="#cHOVnYsms" opacity="1" fill="#ffffff" fill-opacity="1"></use><g><use xlink:href="#cHOVnYsms" opacity="1" fill-opacity="0" stroke="#000000" stroke-width="1" stroke-opacity="0"></use></g></g><g visibility="inherit"><use xlink:href="#bG1QUYf3" opacity="1" fill="#ffffff" fill-opacity="1"></use><g><use xlink:href="#bG1QUYf3" opacity="1" fill-opacity="0" stroke="#000000" stroke-width="1" stroke-opacity="0"></use></g></g><g visibility="inherit"><use xlink:href="#b1yIkTt568" opacity="1" fill="#ffffff" fill-opacity="1"></use><g><use xlink:href="#b1yIkTt568" opacity="1" fill-opacity="0" stroke="#000000" stroke-width="1" stroke-opacity="0"></use></g></g><g visibility="inherit"><use xlink:href="#bmK9Gwkrt" opacity="1" fill="#ffffff" fill-opacity="1"></use><g><use xlink:href="#bmK9Gwkrt" opacity="1" fill-opacity="0" stroke="#000000" stroke-width="1" stroke-opacity="0"></use></g></g><g visibility="inherit"><use xlink:href="#e6gD7BRJ1g" opacity="1" fill="#ffffff" fill-opacity="1"></use><g><use xlink:href="#e6gD7BRJ1g" opacity="1" fill-opacity="0" stroke="#000000" stroke-width="1" stroke-opacity="0"></use></g></g><g visibility="inherit"><use xlink:href="#c5Hei58duu" opacity="1" fill="#ffffff" fill-opacity="1"></use><g><use xlink:href="#c5Hei58duu" opacity="1" fill-opacity="0" stroke="#000000" stroke-width="1" stroke-opacity="0"></use></g></g><g visibility="inherit"><use xlink:href="#b2O26SRKhh" opacity="1" fill="#ffffff" fill-opacity="1"></use><g><use xlink:href="#b2O26SRKhh" opacity="1" fill-opacity="0" stroke="#000000" stroke-width="1" stroke-opacity="0"></use></g></g><g visibility="inherit"><use xlink:href="#jzFGN1FTO" opacity="1" fill="#ffffff" fill-opacity="1"></use><g><use xlink:href="#jzFGN1FTO" opacity="1" fill-opacity="0" stroke="#000000" stroke-width="1" stroke-opacity="0"></use></g></g><g visibility="inherit"><use xlink:href="#bkC2IsSdb" opacity="1" fill="#ffffff" fill-opacity="1"></use><g><use xlink:href="#bkC2IsSdb" opacity="1" fill-opacity="0" stroke="#000000" stroke-width="1" stroke-opacity="0"></use></g></g><g visibility="inherit"><use xlink:href="#e1SuuFWdwK" opacity="1" fill="#ffffff" fill-opacity="1"></use><g><use xlink:href="#e1SuuFWdwK" opacity="1" fill-opacity="0" stroke="#000000" stroke-width="1" stroke-opacity="0"></use></g></g><g visibility="inherit"><use xlink:href="#duw1fNT7" opacity="1" fill="#ffffff" fill-opacity="1"></use><g><use xlink:href="#duw1fNT7" opacity="1" fill-opacity="0" stroke="#000000" stroke-width="1" stroke-opacity="0"></use></g></g><g visibility="inherit"><use xlink:href="#e4NVWKRDjG" opacity="1" fill="#ffffff" fill-opacity="1"></use><g><use xlink:href="#e4NVWKRDjG" opacity="1" fill-opacity="0" stroke="#000000" stroke-width="1" stroke-opacity="0"></use></g></g><g visibility="inherit"><use xlink:href="#c1QM8Oqph7" opacity="1" fill="#ffffff" fill-opacity="1"></use><g><use xlink:href="#c1QM8Oqph7" opacity="1" fill-opacity="0" stroke="#000000" stroke-width="1" stroke-opacity="0"></use></g></g><g visibility="inherit"><use xlink:href="#b1wWdj8MAE" opacity="1" fill="#ffffff" fill-opacity="1"></use><g><use xlink:href="#b1wWdj8MAE" opacity="1" fill-opacity="0" stroke="#000000" stroke-width="1" stroke-opacity="0"></use></g></g><g visibility="inherit"><use xlink:href="#f3OsHNaxTB" opacity="1" fill="#ffffff" fill-opacity="1"></use><g><use xlink:href="#f3OsHNaxTB" opacity="1" fill-opacity="0" stroke="#000000" stroke-width="1" stroke-opacity="0"></use></g></g><g visibility="inherit"><use xlink:href="#a1MCkfM2E" opacity="1" fill="#ffffff" fill-opacity="1"></use><g><use xlink:href="#a1MCkfM2E" opacity="1" fill-opacity="0" stroke="#000000" stroke-width="1" stroke-opacity="0"></use></g></g><g visibility="inherit"><use xlink:href="#b4iMCtOrOi" opacity="1" fill="#ffffff" fill-opacity="1"></use><g><use xlink:href="#b4iMCtOrOi" opacity="1" fill-opacity="0" stroke="#000000" stroke-width="1" stroke-opacity="0"></use></g></g><g visibility="inherit"><use xlink:href="#i1tF9BSFXw" opacity="1" fill="#ffffff" fill-opacity="1"></use><g><use xlink:href="#i1tF9BSFXw" opacity="1" fill-opacity="0" stroke="#000000" stroke-width="1" stroke-opacity="0"></use></g></g><g visibility="inherit"><use xlink:href="#ccOVRoMRS" opacity="1" fill="#ffffff" fill-opacity="1"></use><g><use xlink:href="#ccOVRoMRS" opacity="1" fill-opacity="0" stroke="#000000" stroke-width="1" stroke-opacity="0"></use></g></g><g visibility="inherit"><use xlink:href="#d24bmRK8QJ" opacity="1" fill="#ffffff" fill-opacity="1"></use><g><use xlink:href="#d24bmRK8QJ" opacity="1" fill-opacity="0" stroke="#000000" stroke-width="1" stroke-opacity="0"></use></g></g><g visibility="inherit"><use xlink:href="#cc41S8vT" opacity="1" fill="#ffffff" fill-opacity="1"></use><g><use xlink:href="#cc41S8vT" opacity="1" fill-opacity="0" stroke="#000000" stroke-width="1" stroke-opacity="0"></use></g></g><g visibility="inherit"><use xlink:href="#ahVajkros" opacity="1" fill="#ffffff" fill-opacity="1"></use><g><use xlink:href="#ahVajkros" opacity="1" fill-opacity="0" stroke="#000000" stroke-width="1" stroke-opacity="0"></use></g></g><g visibility="inherit"><use xlink:href="#aPtKCQl77" opacity="1" fill="#ffffff" fill-opacity="1"></use><g><use xlink:href="#aPtKCQl77" opacity="1" fill-opacity="0" stroke="#000000" stroke-width="1" stroke-opacity="0"></use></g></g><g visibility="inherit"><use xlink:href="#a1FwkAxMoe" opacity="1" fill="#ffffff" fill-opacity="1"></use><g><use xlink:href="#a1FwkAxMoe" opacity="1" fill-opacity="0" stroke="#000000" stroke-width="1" stroke-opacity="0"></use></g></g><g visibility="inherit"><use xlink:href="#ch043ZgZN" opacity="1" fill="#ffffff" fill-opacity="1"></use><g><use xlink:href="#ch043ZgZN" opacity="1" fill-opacity="0" stroke="#000000" stroke-width="1" stroke-opacity="0"></use></g></g><g visibility="inherit"><use xlink:href="#a36913Nqc" opacity="1" fill="#000000" fill-opacity="0"></use><g><use xlink:href="#a36913Nqc" opacity="1" fill-opacity="0" stroke="#1e1e1e" stroke-width="1" stroke-opacity="1"></use></g></g><g visibility="inherit"><use xlink:href="#j1Otgj5lSC" opacity="1" fill="#000000" fill-opacity="0"></use><g><use xlink:href="#j1Otgj5lSC" opacity="1" fill-opacity="0" stroke="#ffffff" stroke-width="5" stroke-opacity="1"></use></g></g><g visibility="inherit"><use xlink:href="#b2oVmTE20E" opacity="1" fill="#000000" fill-opacity="0"></use><g><use xlink:href="#b2oVmTE20E" opacity="1" fill-opacity="0" stroke="#1e1e1e" stroke-width="1" stroke-opacity="1"></use></g></g><g visibility="inherit"><use xlink:href="#bBoT3QFe6" opacity="1" fill="#ffffff" fill-opacity="1"></use><g><use xlink:href="#bBoT3QFe6" opacity="1" fill-opacity="0" stroke="#000000" stroke-width="1" stroke-opacity="0"></use></g></g><g visibility="inherit"><use xlink:href="#c5wMgxyyb" opacity="1" fill="#ffffff" fill-opacity="1"></use><g><use xlink:href="#c5wMgxyyb" opacity="1" fill-opacity="0" stroke="#000000" stroke-width="1" stroke-opacity="0"></use></g></g><g visibility="inherit"><use xlink:href="#b3bcAPCg1v" opacity="1" fill="#ffffff" fill-opacity="1"></use><g><use xlink:href="#b3bcAPCg1v" opacity="1" fill-opacity="0" stroke="#000000" stroke-width="1" stroke-opacity="0"></use></g></g><g visibility="inherit"><use xlink:href="#cv2zfmKQ6" opacity="1" fill="#ffffff" fill-opacity="1"></use><g><use xlink:href="#cv2zfmKQ6" opacity="1" fill-opacity="0" stroke="#000000" stroke-width="1" stroke-opacity="0"></use></g></g><g visibility="inherit"><use xlink:href="#avbF4Obyg" opacity="1" fill="#ffffff" fill-opacity="1"></use><g><use xlink:href="#avbF4Obyg" opacity="1" fill-opacity="0" stroke="#000000" stroke-width="1" stroke-opacity="0"></use></g></g><g visibility="inherit"><use xlink:href="#a4tMLKMloM" opacity="1" fill="#ffffff" fill-opacity="1"></use><g><use xlink:href="#a4tMLKMloM" opacity="1" fill-opacity="0" stroke="#000000" stroke-width="1" stroke-opacity="0"></use></g></g><g visibility="inherit"><use xlink:href="#j4F0DLyhu9" opacity="1" fill="#ffffff" fill-opacity="1"></use><g><use xlink:href="#j4F0DLyhu9" opacity="1" fill-opacity="0" stroke="#000000" stroke-width="1" stroke-opacity="0"></use></g></g><g visibility="inherit"><use xlink:href="#iBm9ZaLea" opacity="1" fill="#ffffff" fill-opacity="1"></use><g><use xlink:href="#iBm9ZaLea" opacity="1" fill-opacity="0" stroke="#000000" stroke-width="1" stroke-opacity="0"></use></g></g><g visibility="inherit"><use xlink:href="#ajTRfRjkp" opacity="1" fill="#ffffff" fill-opacity="1"></use><g><use xlink:href="#ajTRfRjkp" opacity="1" fill-opacity="0" stroke="#000000" stroke-width="1" stroke-opacity="0"></use></g></g></g></svg>