<?xml version="1.0" encoding="UTF-8" standalone="no"?>
<!DOCTYPE svg PUBLIC "-//W3C//DTD SVG 1.1//EN" "http://www.w3.org/Graphics/SVG/1.1/DTD/svg11.dtd">
<svg version="1.1" xmlns="http://www.w3.org/2000/svg" xmlns:xlink="http://www.w3.org/1999/xlink" preserveAspectRatio="xMidYMid meet" viewBox="0 0 640 640" width="640" height="640"><defs><path d="M264.9 380.17C264.74 379.68 264.74 379.19 264.58 378.7C263.44 373.65 258.06 374.46 254.8 376.75C254.64 376.75 254.64 376.91 254.47 376.91C253.17 371.21 247.3 372.35 242.9 376.42C242.9 376.42 242.74 376.26 242.74 376.26C237.36 374.14 232.47 376.09 228.23 379.68C220.73 377.89 214.54 383.59 209.81 391.09C207.21 394.02 204.92 397.28 203.13 399.89C197.92 407.55 194.33 416.03 192.38 425.15C191.72 428.41 192.38 432.65 195.8 433.79C196.94 434.12 197.92 434.12 199.06 433.79C200.04 447.48 205.41 461.01 220.57 462.97C223.99 465.9 229.37 466.71 234.59 466.71C236.38 468.02 238.83 468.51 242.25 467.53C246.49 468.18 250.72 467.69 254.96 465.9C257.73 464.76 260.5 463.13 263.11 461.34C264.41 461.17 265.88 460.68 267.51 459.87C273.05 457.1 276.64 452.21 278.76 446.5C279.08 446.02 279.41 445.69 279.73 445.2C294.57 425.15 286.91 399.56 271.1 382.13C269.14 379.84 266.86 379.52 264.9 380.17Z" id="c1obK7UcfM"></path><path d="M374.43 61.53C374.92 59.42 375.57 57.46 375.9 55.18C377.53 47.19 371.98 45.4 366.93 47.84C367.09 47.19 367.42 46.54 367.58 45.89C370.52 37.58 365.46 30.57 357.48 36.6C356.5 37.25 355.69 38.07 354.87 38.88C355.36 33.01 353.4 28.61 345.91 30.4C343.62 30.89 341.67 32.03 340.04 33.34C339.55 33.18 339.06 32.85 338.57 32.69C316.57 26.17 296.2 44.75 290.17 64.79C283.48 86.96 292.77 107.99 310.54 121.68C311.68 122.65 312.98 122.98 314.12 122.82C314.45 126.4 316.41 129.83 320.81 128.68C323.41 128.03 325.86 126.89 328.14 125.59C328.3 126.24 328.3 126.73 328.47 127.38C329.93 133.74 336.29 130.97 339.88 128.03C340.04 128.2 340.04 128.2 340.2 128.36C347.7 134.55 356.34 124.45 361.39 116.62C370.68 113.69 374.59 102.77 377.53 94.29C380.78 85.17 382.41 74.9 378.34 65.28C377.36 63 375.9 61.86 374.43 61.53Z" id="b6Lz3FtXAn"></path><path d="M438.97 155.25C438.64 155.09 438.16 155.09 437.83 155.09C431.96 144.49 422.83 137.32 409.8 140.09C407.68 140.58 405.4 142.21 403.6 144.49C401.48 144.82 399.53 145.31 397.57 145.96C380.46 143.84 365.95 162.91 361.88 178.07C356.01 199.91 365.95 219.47 377.85 237.23C379.48 239.68 381.6 240 383.88 239.19C384.53 239.68 385.19 240.17 385.84 240.49C388.61 241.96 392.36 240.49 394.31 238.37C395.78 236.91 397.25 235.28 398.39 233.81C398.39 233.81 398.39 233.81 398.39 233.81C401.16 236.74 404.42 237.23 407.51 236.58C410.12 237.56 412.89 237.72 415.66 237.4C416.64 238.37 418.27 238.86 420.23 238.21C435.06 233.65 448.42 226.48 454.29 211.15C459.34 197.3 456.74 181.49 450.87 168.13C448.59 162.91 445 156.72 438.97 155.25Z" id="boazUexVZ"></path><path d="M299.78 180.84C299.78 179.05 299.62 177.25 299.62 175.46C299.46 171.39 299.78 166.17 297.34 162.59C295.38 159.65 292.12 158.51 288.7 158.02C286.74 155.9 284.62 153.78 282.18 151.99C281.04 151.18 279.9 150.85 278.76 151.01C274.03 147.26 268.33 144.82 261.32 144.49C260.34 144.17 259.2 144.17 258.06 144.49C257.57 144.49 257.08 144.49 256.59 144.49C251.54 144.82 246.65 145.96 242.09 147.59C241.6 147.43 241.27 147.26 240.62 147.1C230.35 144.98 223.51 152.97 219.43 162.75C210.14 173.34 205.09 187.36 207.21 202.84C211.12 231.85 241.43 247.34 268.49 239.35C285.44 234.3 299.13 220.93 301.25 202.84C302.06 197.79 301.74 192.57 300.43 187.36C300.43 185.24 300.11 182.96 299.78 180.84Z" id="c1sJhBY60x"></path><path d="M526 270.48C518.83 260.86 508.56 253.69 497.16 258.42C496.18 258.75 495.36 259.23 494.55 259.72C494.39 259.07 494.22 258.58 494.22 257.93C492.92 252.39 486.56 253.86 483.3 256.79C481.02 258.91 478.9 261.03 476.95 263.31C476.62 262.82 476.13 262.49 475.64 262.17C470.75 259.4 465.37 265.59 463.26 269.01C448.1 292.81 440.6 328.01 463.26 349.85C466.51 353.11 470.43 351.65 473.36 348.88C483.63 362.89 512.8 357.68 523.23 347.25C529.1 341.54 533.18 334.04 535.46 326.06C539.53 321.17 542.14 314.65 543.12 308.78C544.91 297.21 540.02 281.73 533.01 272.11C530.89 269.34 528.45 269.18 526 270.48Z" id="b10eNKkOKa"></path><path d="M575.06 374.3C574.41 372.84 573.11 371.86 570.99 371.86C549.31 371.69 531.06 387.99 526.49 409.02C523.23 424.01 527.8 437.05 537.41 446.67C540.35 452.86 544.75 458.56 550.29 461.5C555.18 464.11 560.07 463.62 564.31 461.5C580.11 466.55 596.9 467.53 607.99 452.21C620.05 435.58 623.31 404.29 609.45 387.83C600.65 377.4 587.61 372.84 575.06 374.3Z" id="ba7njnksc"></path><path d="M487.87 399.4C487.05 395.65 483.63 395.16 480.69 396.14C478.09 388.16 474.66 380.82 465.7 378.54C465.37 375.44 464.88 372.35 464.07 369.41C462.28 362.08 453.8 366.8 451.03 370.39C449.08 373 447.45 375.61 446.14 378.38C445.16 377.07 444.02 375.61 442.56 374.46C439.79 372.18 436.36 374.14 433.75 376.91C421.86 377.07 410.12 385.71 403.93 397.12C398.71 406.57 396.76 417.49 397.74 428.25C397.9 430.21 398.22 432.49 398.55 434.93C398.71 437.87 399.04 440.64 399.53 443.57C399.85 445.36 400.34 446.99 400.83 448.62C400.83 449.6 401 450.58 401 451.56C401.32 455.14 403.11 457.1 405.4 457.59C408.33 461.5 412.4 464.27 417.62 465.25C419.41 465.57 421.21 465.57 423 465.41C439.46 474.05 458.53 469 471.4 456.28C474.99 453.51 478.25 449.93 481.02 445.69C491.61 436.72 489.01 416.03 488.35 403.64C488.35 402.17 488.19 400.71 487.87 399.4Z" id="aMipDJI23"></path><path d="M395.13 274.56C393.33 269.83 391.38 265.1 388.93 260.54C387.47 257.77 384.04 258.42 381.44 259.72C379.97 257.12 377.85 254.83 374.92 253.37C371.17 251.41 367.58 253.37 364.81 256.63C364.16 255.81 363.35 254.83 362.53 254.18C357.64 249.94 352.43 256.95 349.65 262.98C343.62 261.84 335.48 268.85 331.89 272.6C324.07 281.07 318.69 291.99 317.06 303.4C314.12 324.1 324.88 344.64 344.6 352.3C346.88 353.11 349.49 352.46 351.94 351C354.71 352.95 357.8 354.09 361.39 353.77C361.72 353.77 362.04 353.6 362.37 353.6C365.95 359.14 372.31 360.45 378.18 357.03C380.95 355.4 383.07 353.44 384.86 351.16C386.16 351.32 387.63 351.16 389.1 350.18C399.69 344.48 404.42 333.72 405.72 321.98C414.36 306.17 408.66 289.06 396.11 275.53C395.78 275.21 395.45 274.88 395.13 274.56Z" id="cRcBWUMFD"></path><path d="M192.54 275.21C187.81 270.15 179.17 261.35 171.84 261.03C168.74 260.86 165.81 262.01 163.2 263.8C163.2 263.8 163.04 263.8 163.04 263.64C152.28 258.91 138.92 262.66 133.21 272.6C114.79 284.17 109.58 312.86 122.29 330.79C129.3 340.73 141.85 350.02 154.4 350.83C161.25 351.32 167.6 349.04 172.98 345.13C173.79 345.78 174.61 346.27 175.91 346.59C197.75 350.34 202.97 317.42 202.48 302.43C202.15 292.48 199.38 282.54 192.54 275.21Z" id="e34q15C05O"></path><path d="M98.01 383.59C97.03 382.29 96.05 380.98 95.07 379.84C92.63 376.91 89.86 377.07 87.41 378.7C86.44 376.42 84.97 374.46 82.52 373C79.26 371.04 76.17 372.35 73.72 374.79C70.95 372.35 65.9 374.63 62.8 378.05C61.82 377.72 60.68 377.56 59.38 377.89C39.66 381.47 28.41 403.97 27.11 422.22C25.97 439.5 33.14 456.45 47.16 466.71C48.3 467.53 49.6 467.53 50.9 467.2C51.23 469 52.05 470.79 53.19 472.09C60.19 480.08 78.61 475.19 87.25 472.74C90.51 471.77 93.44 469.16 95.4 466.06C109.25 466.06 116.59 444.87 118.87 433.95C121.64 419.94 119.85 402.99 111.05 391.09C107.13 385.71 102.41 383.59 98.01 383.59Z" id="f2DSrrNB37"></path><path d="M306.14 112.22C312.01 117.6 321.95 119.56 329.61 121.02C339.22 122.98 348.35 122.65 357.15 118.09C363.02 115.16 365.95 99.35 356.99 103.91C350.14 107.33 342.81 106.68 335.48 105.21C328.96 103.91 319.99 102.44 315.1 97.55C305 87.45 305.32 66.42 307.77 53.71C308.42 50.45 307.12 47.03 303.2 47.52C299.46 48.33 296.36 53.55 295.71 56.97C295.71 56.97 295.71 56.97 295.71 56.97C293.43 85.55 296.9 103.97 306.14 112.22Z" id="c3NbxZ5Py"></path><path d="M368.4 209.04C376.71 226.64 395.78 237.07 415.01 235.77C421.69 235.28 427.89 219.63 420.88 220.12C406.54 221.1 392.19 215.39 383.39 203.66C374.92 192.25 373.12 174.97 381.44 162.91C383.23 160.3 386.33 154.92 383.56 151.99C380.95 149.06 376.87 151.34 375.08 153.95C375.08 153.95 375.08 153.95 375.08 153.95C364.87 178.5 362.64 196.87 368.4 209.04Z" id="acErvASuR"></path><path d="M460.65 330.62C472.22 347.57 498.3 353.44 516.88 345.45C522.91 342.85 526 327.36 516.71 331.27C503.02 337.14 481.67 331.11 472.71 319.54C462.28 306.34 463.74 289.39 472.71 275.86C474.34 273.41 475.8 267.71 472.55 265.92C468.96 263.96 465.37 268.53 463.74 270.81C463.74 270.81 463.74 270.81 463.74 270.81C453.31 298.51 452.28 318.45 460.65 330.62Z" id="bfxeFZonQ"></path><path d="M539.69 439.98C552.41 458.08 576.53 468.51 597.23 458.89C603.26 456.12 606.19 440.47 597.07 444.71C583.86 450.74 568.38 444.55 558.11 435.58C548.33 427.11 536.11 406.74 550.61 396.63C553.87 394.35 557.13 390.27 556.65 386.2C556.32 382.94 553.71 380.33 550.45 382.61C550.45 382.61 550.45 382.61 550.45 382.61C534.26 407.93 530.68 427.05 539.69 439.98Z" id="bwXAgDpbL"></path><path d="M460.32 447.48C460.48 447.32 460.32 447.32 460 447.32C459.83 445.69 458.85 444.55 456.74 444.55C442.56 443.9 427.56 442.92 418.11 430.86C409.63 419.94 408.98 404.62 419.9 395C422.51 392.72 425.61 387.67 424.14 383.92C422.67 380.33 419.09 380.82 416.48 383.1C403.44 394.51 395.94 413.09 400.67 430.21C398.88 432.65 398.22 435.91 398.55 438.84C402.79 469.32 459.02 477.31 470.92 448.62C472.22 445.53 472.38 440.96 468.63 440.15C464.88 439.33 461.46 444.71 460.32 447.48Z" id="g1dQ1JIqpF"></path><path d="M323.09 323.94C331.07 343.17 363.18 364.52 381.27 345.45C387.47 339.1 382.74 328.34 374.92 336.49C373.94 337.63 365.79 336.33 364.32 336C360.25 335.35 356.17 333.88 352.59 331.93C345.42 328.18 339.39 322.47 335.64 315.3C328.3 300.96 332.54 282.7 346.23 274.07C349.49 271.95 352.75 267.71 352.26 263.64C352.26 260.38 349.65 258.09 346.23 260.21C346.23 260.21 346.23 260.21 346.23 260.21C324.39 287.16 316.68 308.4 323.09 323.94Z" id="b15ZIO1Qt"></path><path d="M218.45 216.04C229.54 236.09 255.29 242.61 274.36 229.73C277.62 227.62 280.88 223.38 280.39 219.3C280.06 216.04 277.45 213.44 274.03 215.72C260.01 225.33 241.43 220.93 231.65 207.41C221.39 193.06 223.34 174.81 234.26 161.44C236.22 159 238.99 153.46 236.38 150.52C233.77 147.43 230.02 149.87 227.91 152.32C227.91 152.32 227.91 152.32 227.91 152.32C213.89 180.79 210.74 202.03 218.45 216.04Z" id="clWgBP5t7"></path><path d="M150.98 333.07C146.41 329.81 142.83 325.24 139.57 318.56C136.47 312.37 132.23 305.36 133.37 298.35C134.35 291.83 139.08 284.82 144.62 281.24C147.88 279.12 151.14 274.88 150.65 270.81C150.33 267.38 147.72 264.94 144.29 267.22C142.5 268.36 140.71 269.67 139.08 271.13C137.94 270.97 136.47 271.46 134.52 272.76C120.17 283.03 112.35 302.75 116.75 320.03C120.01 332.41 128.81 340.56 139.57 346.11C146.25 351.81 154.24 353.6 163.2 354.42C169.56 355.23 176.89 340.73 169.07 338.93C163.04 337.47 156.84 335.67 150.98 333.07Z" id="j2Do7wVOEw"></path><path d="M33.47 444.87C46.5 471.6 80.73 480.89 101.43 457.1C107.3 450.42 102.57 439.66 95.07 448.13C81.06 464.11 57.1 452.37 47.48 437.87C36.4 421.08 38.19 398.59 59.71 392.39C65.74 390.76 70.79 374.79 62.64 377.07C62.64 377.07 62.64 377.07 62.64 377.07C34.61 404.56 24.88 427.16 33.47 444.87Z" id="a1sJHD1579"></path><path d="M209.65 449.6C225.3 468.02 250.89 466.88 271.26 457.75C277.29 454.98 280.22 439.5 271.1 443.57C256.43 450.25 237.68 451.39 224.48 440.64C210.79 429.55 208.02 409.67 220.41 396.63C226.28 390.27 221.71 379.52 213.89 387.83C213.89 387.83 213.89 387.83 213.89 387.83C200.74 416.95 199.33 437.54 209.65 449.6Z" id="aVgsWSmkk"></path><path d="M32.76 564.28C30.97 562.65 29.83 560.37 29.18 558.08C28.85 556.94 28.69 555.97 28.69 554.66C28.69 554.5 28.69 554.17 28.85 554.01C30.81 551.08 31.95 547.49 30.16 544.23C30.16 544.07 29.99 543.9 29.99 543.9C28.85 541.79 26.24 542.6 24.61 543.25C14.84 547.65 15.16 564.28 19.07 572.26C23.64 581.72 34.23 585.63 44.17 583.51C50.2 582.21 55.42 566.23 46.94 568.19C41.89 569.33 36.51 567.86 32.76 564.28Z" id="c145XdPCQ"></path><path d="M326.51 33.01C307.93 36.11 292.61 50.94 288.86 69.36C280.88 109.94 332.38 143.35 364.81 115.48C384.37 98.7 385.02 70.5 371.98 49.8C369.87 46.38 364.49 49.47 366.61 52.9C378.5 73.27 377.85 101.79 355.2 114.67C335.15 125.91 307.93 115.32 298.31 95.27C289.19 76.04 297.34 52.73 316.24 43.12C332.7 34.64 355.69 38.39 367.26 53.22C369.21 55.83 373.45 52.41 371.66 49.8C371.66 49.8 371.66 49.8 371.66 49.8C352.53 36.76 337.49 31.17 326.51 33.01Z" id="c4X9bnq77a"></path><path d="M391.38 144.98C372.8 151.01 359.6 168.45 358.46 188.01C356.01 232.02 416.8 258.09 444.84 222.24C460.48 202.19 457.22 175.46 442.07 156.39C439.95 153.62 435.06 157.37 437.18 160.14C451.03 178.88 454.45 205.29 436.04 222.56C417.95 239.51 386.33 233.81 372.64 214.09C359.92 195.83 363.83 170.25 381.93 156.88C398.06 144.98 423.81 145.47 437.83 160.3C440.11 163.24 443.86 159.16 441.58 156.39C441.58 156.39 441.58 156.39 441.58 156.39C419.19 145.09 402.46 141.29 391.38 144.98Z" id="g1vPTCVaIM"></path><path d="M207.21 185.4C204.76 204.8 214.87 224.36 231.98 233.65C250.89 243.91 275.01 240 290.17 224.85C305.16 209.85 310.54 186.87 299.94 167.96C288.05 146.45 262.95 138.46 239.8 143.84C235.89 144.82 237.52 150.69 241.43 149.87C264.41 145.47 289.84 154.11 297.5 178.39C304.83 201.54 287.23 226.96 264.41 232.18C242.25 237.23 219.59 223.38 214.38 201.21C209.49 181.17 220.9 156.55 241.11 149.87C244.53 148.57 243.23 143.19 239.64 144.17C239.64 144.17 239.64 144.17 239.64 144.17C219.43 159.71 208.62 173.45 207.21 185.4Z" id="e1pvBs1YOd"></path><path d="M121.8 333.56C132.56 348.88 152.61 356.54 170.86 351.81C210.96 341.38 219.27 280.42 179.66 263.47C158.15 254.35 134.35 262.82 120.34 280.75C117.89 283.85 122.13 288.25 124.74 285.15C138.75 268.69 161.41 259.56 181.46 271.46C201.01 283.03 204.6 311.39 192.21 329.48C179.99 347.41 155.21 352.14 137.12 339.91C120.01 328.34 113.33 302.1 124.74 284.5C126.86 281.4 121.97 278.79 119.85 281.56C119.85 281.56 119.85 281.56 119.85 281.56C114.31 306.55 114.96 323.89 121.8 333.56Z" id="c2OUSOXS0"></path><path d="M342.97 261.68C324.72 269.18 312.33 287.76 312.82 307.48C313.96 350.83 373.94 373.81 401 337.63C416.64 316.77 412.24 289.06 395.62 270.32C392.85 267.22 388.61 271.62 391.22 274.72C406.37 293.3 410.45 321.33 391.38 338.93C373.29 355.72 341.67 350.51 327.65 331.27C314.94 314 317.38 289.55 333.36 275.04C348.68 261.19 375.9 259.72 391.38 274.23C393.99 276.84 397.74 272.93 395.29 270.32C395.29 270.32 395.29 270.32 395.29 270.32C371.71 260 354.27 257.12 342.97 261.68Z" id="d1UEJKqr4Z"></path><path d="M449.24 293.3C443.53 311.88 450.38 332.9 465.7 344.8C501.23 372.18 557.95 336.33 542.63 292.16C534.97 270.15 513.78 257.77 491.13 257.77C487.05 257.77 487.05 263.8 491.13 263.96C512.64 264.78 532.85 276.35 537.9 298.68C543.28 322.8 522.26 345.94 498.79 348.06C475.97 350.02 455.43 332.74 453.64 309.92C452.01 288.57 468.8 265.59 490.96 263.64C494.55 263.47 494.71 257.93 490.96 258.09C490.96 258.09 490.96 258.09 490.96 258.09C466.73 269.5 452.82 281.24 449.24 293.3Z" id="a2yLkw5i7P"></path><path d="M209 389.3C194.49 402.5 190.26 424.5 198.41 442.27C216.5 481.38 280.39 476 287.39 432C290.82 410 278.43 389.62 259.2 379.52C255.61 377.72 252.52 382.94 256.1 384.9C274.19 395.49 286.58 414.89 280.06 436.4C273.05 459.05 244.37 468.83 223.67 458.89C203.95 449.6 195.15 425.32 204.76 405.59C213.73 387.34 237.68 376.75 256.75 384.73C259.69 386.2 261.81 381.15 258.87 379.68C258.87 379.68 258.87 379.68 258.87 379.68C234.32 378.16 217.69 381.36 209 389.3Z" id="fcm0HJq2A"></path><path d="M14.51 550.1C8.64 562.97 14.67 578.29 27.71 583.67C40.1 588.89 56.07 583.51 61.45 570.96C66.99 557.6 59.82 543.58 47.76 536.9C44.17 534.94 41.08 540.16 44.66 542.28C52.97 547.33 59.17 555.97 56.4 566.23C53.46 576.99 40.59 581.72 30.64 577.81C20.54 573.89 15.65 562 20.54 552.05C25.1 542.93 36.02 539.18 45.31 542.11C48.41 543.25 50.53 538.53 47.6 537.06C47.6 537.06 47.6 537.06 47.6 537.06C29.12 537.82 18.1 542.17 14.51 550.1Z" id="atuzKNP1y"></path><path d="M75.52 376.09C55.96 373.98 36.24 384.57 27.6 402.34C18.47 421.08 22.55 444.22 37.7 458.73C52.53 472.91 74.7 478.29 93.12 468.34C115.28 456.45 123.27 430.21 116.75 406.74C115.61 402.82 109.74 404.45 110.72 408.37C116.1 431.18 108.28 457.42 83.83 465.41C61.01 472.91 35.58 455.96 30.21 433.47C24.99 412.11 37.87 390.11 59.05 383.92C78.61 378.21 103.55 388.48 111.05 408.2C112.19 411.46 117.4 410.16 116.42 406.57C116.42 406.57 116.42 406.57 116.42 406.57C100.78 387.56 87.14 377.4 75.52 376.09Z" id="fvXQBjbJP"></path><path d="M488.03 405.92C481.51 387.34 463.74 374.14 443.86 373.49C400.18 372.18 374.27 432 409.63 460.36C429.84 476.49 457.06 473.4 476.62 457.91C479.39 455.79 475.64 450.9 472.87 453.02C453.64 467.2 426.09 470.3 408.82 450.74C392.52 432.16 398.88 400.87 418.6 387.34C437.01 374.63 462.93 378.87 476.29 396.96C488.19 413.26 487.7 439.33 472.71 453.51C469.94 456.45 473.85 460.03 476.62 457.75C476.62 457.75 476.62 457.75 476.62 457.75C488.25 434.61 492.05 417.33 488.03 405.92Z" id="aNzSNSgdl"></path><path d="M269.79 150.85C268.81 154.11 273.38 155.9 275.17 153.13C279.41 146.12 282.51 138.79 287.23 132.27C292.28 125.1 298.31 118.91 304.51 112.71C306.14 111.08 303.86 107.82 301.9 109.29C301.9 109.29 301.9 109.29 301.9 109.29C283.75 126.13 273.05 139.98 269.79 150.85Z" id="f59u8rnOm5"></path><path d="M376.06 132.43C380.78 139.6 384.37 147.43 389.26 154.27C391.22 157.04 396.43 155.41 394.96 151.83C388.93 136.18 376.87 120.54 365.3 108.47C363.51 106.52 359.76 109.29 361.39 111.73C361.39 111.73 361.39 111.73 361.39 111.73C368.13 120.86 373.02 127.76 376.06 132.43Z" id="i1xBMGRnWm"></path><path d="M231.17 225.66C231.33 224.85 231.17 223.7 230.19 223.22C228.23 222.4 227.42 222.73 225.62 223.54C219.92 226.15 214.38 233.48 210.14 237.88C201.18 247.17 192.54 257.12 185.37 267.87C183.08 271.3 188.46 274.23 190.75 271.13C196.78 262.98 202.81 255 209.49 247.34C212.26 244.08 215.19 240.98 218.13 238.05C219.92 236.25 226.76 227.29 229.21 227.29C228.56 226.64 227.74 225.82 227.09 225.17C227.09 225.33 227.09 225.5 227.09 225.66C227.42 227.62 230.84 228.59 231.17 226.15C231.17 226.15 231.17 226.15 231.17 226.15C231.17 225.93 231.17 225.77 231.17 225.66Z" id="auMPKienI"></path><path d="M369.7 265.27C368.72 269.34 374.92 270.97 375.9 266.9C378.99 253.69 383.07 240.65 389.1 228.27C390.24 226.15 386.98 224.19 385.84 226.48C385.84 226.48 385.84 226.48 385.84 226.48C377.25 242.88 371.88 255.81 369.7 265.27Z" id="bjo5Iey4B"></path><path d="M95.4 390.44C94.58 393.7 99.31 395.82 100.94 392.72C105.67 384.41 109.09 375.28 114.14 366.97C119.52 358 125.88 350.02 132.23 341.87C134.52 339.26 131.09 335.51 128.49 338.12C128.49 338.12 128.49 338.12 128.49 338.12C109.8 360.39 98.77 377.83 95.4 390.44Z" id="edaAtegNb"></path><path d="M203.78 372.18C206.23 377.07 208.51 381.96 210.79 387.01C211.93 389.46 212.42 391.74 215.36 392.39C217.15 392.72 218.94 391.9 219.43 390.11C219.43 389.95 219.43 389.79 219.59 389.62C219.92 388.32 219.27 386.69 218.13 386.04C217.96 386.04 217.8 385.87 217.64 385.87C215.68 384.73 213.89 385.87 213.07 387.67C213.07 387.67 213.07 387.83 212.91 387.83C211.93 390.11 214.54 391.9 216.5 391.42C216.66 391.42 216.66 391.42 216.82 391.42C215.52 390.76 214.38 389.95 213.07 389.3C213.24 388.81 213.24 388.16 213.4 387.67C214.7 387.18 215.84 386.69 217.15 386.2C218.29 386.69 215.52 382.13 215.19 381.31C213.89 378.7 212.59 375.93 211.28 373.32C208.84 368.43 206.23 363.71 203.46 358.98C199.22 351.65 194.82 342.36 187 338.45C184.39 336.65 182.43 340.08 184.71 341.71C184.71 341.71 184.71 341.71 184.71 341.71C194.17 355.72 200.52 365.88 203.78 372.18Z" id="d4ipwv2g8"></path><path d="M458.53 385.71C457.88 389.46 462.93 390.93 464.23 387.34C468.96 373.65 473.85 359.96 478.9 346.43C479.88 343.66 475.97 342.36 474.66 344.48C474.66 344.48 474.66 344.48 474.66 344.48C465.54 362.73 460.16 376.48 458.53 385.71Z" id="b13cUv5lr7"></path><path d="M546.21 388.97C547.68 392.72 553.71 391.09 552.24 387.34C545.07 369.41 536.6 351.65 525.68 335.67C524.05 333.56 520.79 335.35 522.09 337.63C522.09 337.63 522.09 337.63 522.09 337.63C533.61 360.01 541.65 377.13 546.21 388.97Z" id="b1qAzruBtL"></path><path d="M459.51 245.22C465.86 253.86 471.08 263.31 477.43 272.11C479.55 275.04 483.79 272.6 482.32 269.34C472.71 249.29 456.41 230.88 440.76 215.56C438.81 213.76 436.2 216.37 437.83 218.33C437.83 218.33 437.83 218.33 437.83 218.33C447.72 230.06 454.94 239.02 459.51 245.22Z" id="e3NFYoWDCd"></path><path d="M497.81 193.23C507.75 210.34 506.28 227.94 503.84 246.69C503.35 250.6 509.22 250.92 510.52 247.5C517.2 228.76 513.29 204.15 502.7 187.68C493.57 173.51 476.95 160.63 459.34 160.63C456.41 160.63 455.76 164.7 458.53 165.52C458.53 165.52 458.53 165.52 458.53 165.52C478.74 173.67 491.83 182.9 497.81 193.23Z" id="bDVs9CLLv"></path><path d="M504.98 252.72C505.96 255.32 509.71 256.3 511.34 253.53C515.57 245.87 520.95 240.33 527.8 234.79C530.89 232.34 526.82 227.13 523.56 229.41C515.9 234.46 509.54 241.96 505.47 250.11C507.59 250.43 509.71 250.6 511.82 250.92C508.24 242.28 504.82 233.32 500.58 224.85C498.95 222.07 494.55 224.03 495.53 226.8C495.53 226.8 495.53 226.8 495.53 226.8C499.65 238.32 502.81 246.96 504.98 252.72Z" id="anjdHDDyz"></path><path d="M449.24 331.44C452.34 329.81 450.22 324.59 446.79 325.73C435.22 329.97 425.93 330.46 414.03 327.04C411.26 326.22 409.47 330.3 412.08 331.6C412.08 331.6 412.08 331.6 412.08 331.6C429.46 335.51 441.85 335.46 449.24 331.44Z" id="aa52j1pX1"></path><path d="M415.99 338.12C417.62 340.24 419.58 342.52 421.86 344.15C424.79 346.11 428.05 341.71 425.61 339.26C423.98 337.47 421.86 336 420.23 334.21C418.76 332.58 417.46 329.81 415.01 329.81C414.36 329.97 413.54 330.3 413.22 330.95C413.22 330.95 413.22 330.95 413.22 330.95C413.98 334.43 414.9 336.82 415.99 338.12Z" id="aimFx9I2R"></path><path d="M425.12 326.06C428.87 324.1 425.12 317.91 421.86 320.52C420.06 321.82 418.11 322.96 416.32 324.43C414.69 325.57 412.73 326.87 411.59 328.67C410.94 329.64 411.91 331.6 413.38 331.44C413.38 331.44 413.38 331.44 413.38 331.44C418.71 329.05 422.62 327.25 425.12 326.06Z" id="cqQ9QHvEu"></path><path d="M303.69 309.43C306.3 306.99 302.88 302.75 299.94 304.54C284.79 314 271.26 328.83 260.34 342.85C249.58 356.86 241.27 372.84 240.29 390.76C239.97 394.51 245.51 394.35 245.83 390.76C245.83 390.76 245.83 390.76 245.83 390.76C267.89 351.65 287.18 324.54 303.69 309.43Z" id="cdDnsX8pt"></path><path d="M305.32 303.89C304.51 302.59 303.69 301.12 303.04 299.82C301.25 305.03 298.31 310.9 297.83 316.44C297.5 319.87 302.23 320.68 303.86 318.07C305.32 315.63 305.98 312.69 306.79 310.09C307.77 307.32 308.58 304.38 309.4 301.61C310.05 299.49 308.26 297.54 306.14 297.37C301.09 297.21 296.52 297.7 291.63 298.68C288.86 299.33 289.51 303.73 292.28 303.57C292.28 303.57 292.28 303.57 292.28 303.57C298.15 303.35 302.5 303.46 305.32 303.89Z" id="f7u78bXgUZ"></path><path d="M329.77 261.35C331.07 265.1 336.94 263.64 335.8 259.72C330.59 241.96 319.34 226.8 304.51 216.04C302.39 214.58 299.94 217.67 301.9 219.3C301.9 219.3 301.9 219.3 301.9 219.3C316.79 236.25 326.08 250.27 329.77 261.35Z" id="b2mrA7xzIn"></path><path d="M331.89 260.21C331.56 264.61 338.41 264.61 338.74 260.21C340.53 239.51 346.23 220.61 354.22 201.54C355.36 198.77 350.63 196.81 349.17 199.42C349.17 199.42 349.17 199.42 349.17 199.42C338.74 226.04 332.98 246.3 331.89 260.21Z" id="a1ORr1RBM7"></path><path d="M345.58 200.56C343.79 201.38 341.67 202.03 340.04 203.17C337.43 204.96 339.06 209.69 342.32 208.55C346.07 207.24 349.82 204.96 353.08 202.84C355.52 201.38 354.06 196.97 351.12 198.12C351.12 198.12 351.12 198.12 351.12 198.12C348.62 199.2 346.78 200.02 345.58 200.56Z" id="e1Alr9SgB2"></path><path d="M352.43 215.88C353.08 219.47 358.95 218 357.97 214.41C356.66 209.69 355.52 204.8 354.06 200.07C353.24 197.3 349.49 198.44 349.82 201.21C349.82 201.21 349.82 201.21 349.82 201.21C351.01 207.73 351.88 212.62 352.43 215.88Z" id="b1NhQ9UHOs"></path><path d="M302.55 226.31C303.2 228.92 303.86 231.36 305 233.81C306.46 236.91 310.7 234.62 310.21 231.69C309.72 229.08 308.58 226.48 307.6 224.03C306.63 221.59 305.81 218.98 304.67 216.7C303.37 214.25 300.11 216.04 300.43 218.33C300.43 218.33 300.43 218.33 300.43 218.33C301.3 221.91 302.01 224.57 302.55 226.31Z" id="c19IiFMJtS"></path><path d="M307.93 219.79C309.56 220.12 311.19 220.93 312.82 221.42C316.08 222.4 319.01 222.56 321.62 220.44C323.58 218.81 321.95 215.07 319.5 215.39C317.55 215.56 315.92 215.72 313.96 215.23C312.17 214.74 310.54 214.25 308.75 213.93C305.16 213.6 303.53 214.74 301.25 217.19C299.62 218.81 302.23 221.59 304.18 219.79C304.18 219.79 304.18 219.79 304.18 219.79C306.14 219.68 307.39 219.68 307.93 219.79Z" id="a4WXtKXEFw"></path><path d="M239.15 106.68C250.4 93.15 264.9 82.72 279.41 73.27C283.16 70.83 279.57 64.96 275.99 67.4C260.01 78.81 243.88 89.89 231.98 105.54C222.53 117.93 213.89 135.2 216.82 151.18C217.31 152.97 220.41 152.97 220.73 151.18C220.73 151.18 220.73 151.18 220.73 151.18C225.52 130.42 231.65 115.59 239.15 106.68Z" id="a6yTZF2BYh"></path><path d="M281.36 73.6C281.04 72.13 280.55 70.66 280.22 69.2C278.76 71.31 277.29 73.6 275.99 75.71C274.68 77.83 273.05 79.79 272.56 82.23C271.91 85.33 275.33 87.12 277.62 85.17C279.57 83.54 280.55 81.26 281.85 79.14C283.16 76.86 284.62 74.74 285.93 72.45C286.91 70.66 286.09 68.22 283.97 67.73C279.57 66.75 275.17 64.96 270.61 64.14C268 63.65 265.88 67.24 268.65 68.71C268.65 68.71 268.65 68.71 268.65 68.71C274.41 70.77 278.65 72.4 281.36 73.6Z" id="g8LxvX8v"></path><path d="M153.58 198.6C139.73 215.88 134.19 238.86 139.89 260.38C141.03 264.61 147.55 262.82 146.41 258.58C141.03 237.88 147.23 216.04 161.08 200.07C167.44 192.74 175.26 186.71 183.57 181.98C192.05 177.25 201.18 174.97 209.98 171.22C212.26 170.25 211.12 166.66 208.84 166.82C208.84 166.82 208.84 166.82 208.84 166.82C180.37 177.47 161.95 188.07 153.58 198.6Z" id="cCgkcuhmC"></path><path d="M141.85 258.42C143.15 260.21 145.44 260.21 146.74 258.42C150.65 252.72 153.75 246.03 156.84 239.84C158.64 236.09 153.26 232.83 151.3 236.58C147.88 242.94 144.13 249.46 141.52 256.3C143.15 255.81 144.78 255.49 146.25 255C142.01 250.92 138.59 245.71 133.86 242.28C132.4 241.14 130.77 243.43 131.42 244.89C131.42 244.89 131.42 244.89 131.42 244.89C136.2 250.98 139.68 255.49 141.85 258.42Z" id="a29Xng1l2A"></path><path d="M52.16 534.94C51.18 531.68 48.9 531.68 46.45 533.15C44.99 531.03 42.22 531.36 39.45 532.98C39.28 532.98 39.12 532.82 38.79 532.82C36.02 532.17 33.25 533.31 30.97 535.1C26.57 535.1 22.66 538.04 19.72 542.28C14.67 547.65 11.58 556.29 10.27 562C9.29 565.91 11.09 568.35 13.53 568.84C14.51 576.18 18.26 582.21 25.27 583.84C25.76 584.16 26.24 584.49 26.9 584.81C28.69 585.63 30.64 585.95 32.6 585.95C32.93 586.12 33.42 586.28 33.9 586.44C35.53 586.77 37 586.61 38.31 586.12C39.94 586.28 41.89 586.12 44.01 585.3C45.8 584.65 47.43 583.67 49.06 582.53C53.46 581.55 56.72 577.64 58.52 573.41C58.84 573.08 59 572.75 59.33 572.43C67.81 560.86 64.22 547 55.42 536.73C54.28 535.59 53.3 534.94 52.16 534.94Z" id="dr3S9dobP"></path><path d="M95.02 547.98C89.65 550.42 89.32 557.43 89.32 562.65C89.32 568.35 89.81 574.87 96.65 575.69C101.38 576.34 106.43 572.92 105.94 567.7C105.62 564.93 101.54 563.95 100.73 567.05C100.08 569.33 96.65 571.29 95.35 568.35C94.86 567.05 95.02 564.11 95.02 562.81C95.02 560.86 95.02 558.74 95.51 556.94C96 554.66 98.94 549.45 101.05 555.31C102.2 558.25 106.43 557.11 105.78 553.85C105.78 553.85 105.78 553.85 105.78 553.85C101.76 548.52 98.17 546.57 95.02 547.98Z" id="b1AIi6P741"></path><path d="M119.31 547C111.16 546.02 110.67 555.31 111 561.18C111.32 566.72 111.81 575.69 119.15 575.85C127.46 576.01 127.78 567.54 126.97 561.34C126.48 557.76 121.1 559.39 121.59 562.81C121.92 565.09 122.24 566.23 121.1 568.35C119.96 570.63 118.98 570.15 117.84 568.19C116.7 565.91 116.7 561.83 116.7 559.39C116.7 558.41 116.54 557.11 116.7 556.13C117.52 552.87 119.8 551.73 121.59 554.5C122.89 556.45 122.89 559.23 123.71 561.51C124.2 563.46 127.29 563.95 127.78 561.67C127.78 561.67 127.78 561.67 127.78 561.67C126.59 552.54 123.76 547.65 119.31 547Z" id="c1JdJl2Ldt"></path><path d="M139.03 550.26C137.4 550.75 135.93 551.08 134.3 551.57C138.87 556.62 140.66 566.23 142.13 572.59C142.62 575.2 146.04 575.2 147.34 573.24C149.3 570.47 150.11 566.56 151.09 563.3C152.56 559.06 154.19 554.99 156.47 551.24C154.68 551.08 152.72 550.75 150.93 550.59C152.07 557.92 152.56 565.74 151.91 573.24C151.58 577.32 158.42 577.32 158.1 573.24C157.61 565.09 157.94 557.11 156.63 548.96C156.14 546.35 152.39 546.19 151.09 548.31C149.13 551.57 147.67 554.99 146.36 558.57C145.06 562.32 144.41 567.21 142.13 570.47C143.92 570.63 145.55 570.96 147.34 571.12C145.55 563.63 143.27 553.52 138.05 547.65C136.58 546.02 133.98 547 133.33 548.96C132.18 553.03 132.51 557.6 132.35 561.67C132.18 566.23 132.02 570.8 132.84 575.2C133.49 577.15 137.07 577.15 137.4 575.03C137.4 575.03 137.4 575.03 137.4 575.03C136.97 563.73 137.51 555.48 139.03 550.26Z" id="c3xeyKseW"></path><path d="M565.61 374.3C547.03 377.4 531.71 392.23 527.96 410.65C519.97 451.23 571.48 484.64 603.91 456.77C623.47 439.98 624.12 411.79 611.08 391.09C608.96 387.67 603.58 390.76 605.7 394.19C617.6 414.56 616.95 443.08 594.29 455.96C574.25 467.2 547.03 456.61 537.41 436.56C528.29 417.33 536.44 394.02 555.34 384.41C571.8 375.93 594.78 379.68 606.36 394.51C608.31 396.96 612.55 393.7 610.76 391.09C610.76 391.09 610.76 391.09 610.76 391.09C591.63 378.05 576.58 372.45 565.61 374.3Z" id="e1rhcgDBIA"></path><path d="M162.01 572.26C162.5 576.01 168.53 576.01 168.04 572.26C167.06 564.28 169.34 556.13 167.06 548.47C166.41 546.19 163.31 546.68 163.15 548.96C163.15 548.96 163.15 548.96 163.15 548.96C161.85 559.39 161.47 567.16 162.01 572.26Z" id="bxkiJaLty"></path><path d="M175.7 554.66C175.7 555.97 173.91 556.78 172.93 557.43C171.14 558.41 169.83 558.74 167.88 558.57C164.46 558.08 164.29 563.3 167.06 564.28C170.16 565.42 173.75 563.63 176.35 562C178.96 560.37 181.24 558.08 181.24 554.66C181.08 551.4 178.96 548.79 176.19 547.49C172.77 546.02 169.18 546.84 165.92 547.82C163.8 548.47 164.13 551.89 166.41 551.73C166.41 551.73 166.41 551.73 166.41 551.73C172.71 551.08 175.81 552.05 175.7 554.66Z" id="h2KJS4ggXy"></path><path d="M194.28 547.65C187.11 546.51 185.32 554.99 185.15 560.2C184.99 565.91 185.97 574.71 192.81 576.01C200.15 577.48 201.78 568.84 201.62 563.46C201.45 560.2 196.4 560.2 196.56 563.46C196.56 565.91 195.26 574.55 191.84 568.84C190.37 566.23 190.37 562.32 190.7 559.39C190.86 556.62 192.49 550.42 195.59 554.5C196.89 556.29 196.89 559.88 197.7 562C198.03 564.11 200.8 563.63 201.13 561.51C201.13 561.51 201.13 561.51 201.13 561.51C200.47 552.81 198.19 548.2 194.28 547.65Z" id="a1UiFzUFk"></path><path d="M213.02 548.96C213.02 545.53 207.65 545.53 207.65 548.96C207.48 557.27 206.67 565.91 207.65 574.06C207.97 576.34 211.56 577.32 211.88 574.71C211.88 574.71 211.88 574.71 211.88 574.71C212.54 563.19 212.92 554.61 213.02 548.96Z" id="cckKBFXcK"></path><path d="M213.84 559.71C215.96 564.28 218.08 569 219.54 573.89C220.68 577.64 226.72 576.01 225.41 572.26C223.94 567.7 222.15 563.3 220.03 559.06C218.08 555.15 215.96 550.26 212.37 547.49C211.39 546.84 209.44 547.16 209.6 548.79C209.6 548.79 209.6 548.79 209.6 548.79C211.34 553.68 212.75 557.32 213.84 559.71Z" id="c4keN1vIY8"></path><path d="M219.87 572.59C219.54 576.66 225.41 576.34 226.06 572.59C227.04 564.77 227.53 555.64 224.76 547.98C223.94 546.02 221.17 546.51 220.85 548.63C220.85 548.63 220.85 548.63 220.85 548.63C220.52 559.39 220.2 567.37 219.87 572.59Z" id="c22gtPvMQM"></path><path d="M232.75 550.42C232.26 549.61 231.77 548.63 231.28 547.82C229.65 550.91 230.3 556.13 230.14 559.39C229.97 563.63 229.32 568.84 230.3 573.08C230.46 574.06 231.44 574.87 232.26 575.03C235.52 575.69 239.26 574.71 242.52 574.55C246.44 574.22 246.27 568.03 242.52 568.52C240.08 568.84 236.17 569.98 233.89 569.49C234.54 570.15 235.19 570.8 235.84 571.45C235.19 569 235.68 565.74 235.68 563.14C235.68 560.37 235.52 557.43 235.52 554.66C235.35 552.38 236.01 547.98 233.23 547C231.93 546.51 230.63 547.98 231.12 549.12C231.12 549.12 231.12 549.12 231.12 549.28C231.44 549.94 231.93 550.42 232.75 550.42C232.75 550.42 232.75 550.42 232.75 550.42C232.75 550.42 232.75 550.42 232.75 550.42Z" id="aPTwyiE8Z"></path><path d="M236.33 562.49C237.8 562.65 239.1 562.97 240.57 562.65C243.18 562 243.5 557.6 240.57 557.11C239.26 556.94 238.12 557.11 236.82 557.27C235.68 557.43 234.38 557.27 233.23 557.76C231.6 558.25 231.12 560.69 232.75 561.51C232.75 561.51 232.75 561.51 232.75 561.51C234.27 562.05 235.46 562.38 236.33 562.49Z" id="a1ocM95eQW"></path><path d="M235.68 547.82C235.35 548.79 235.03 549.94 234.7 551.08C234.05 551.4 234.05 551.4 234.86 551.4C235.35 551.4 235.84 551.57 236.17 551.57C236.98 551.73 237.8 551.73 238.78 551.89C240.57 552.05 242.52 552.05 243.99 551.08C246.44 549.45 245.46 545.7 242.52 545.53C241.55 545.53 240.57 545.86 239.59 545.86C238.61 546.02 237.8 545.86 236.82 545.86C235.35 545.86 232.91 545.86 231.77 547C231.12 547.65 230.79 549.12 231.44 549.94C231.44 549.94 231.44 549.94 231.44 549.94C233.4 552.87 236.98 550.75 235.68 547.82C235.68 547.82 235.68 547.82 235.68 547.82C235.68 547.82 235.68 547.82 235.68 547.82Z" id="f1uxYINrSH"></path><path d="M255.73 549.94C254.1 549.94 252.3 549.94 250.67 549.94C254.1 558.74 258.01 567.21 263.22 575.03C264.85 577.48 269.25 576.66 269.09 573.41C268.77 565.42 268.6 557.43 269.42 549.45C269.91 545.53 263.55 545.53 263.22 549.45C262.57 557.43 262.57 565.42 262.73 573.41C264.69 572.92 266.65 572.43 268.6 571.78C263.55 564.28 259.15 556.62 255.73 548.31C254.75 546.02 251.49 545.7 250.67 548.31C249.37 552.22 249.53 556.45 249.37 560.53C249.37 565.26 249.21 569.98 250.35 574.55C251 576.66 254.1 576.83 254.42 574.87C254.42 574.87 254.42 574.87 254.42 574.87C253.88 563.46 254.31 555.15 255.73 549.94Z" id="a5u4CmDXgZ"></path><path d="M279.69 552.05C282.62 552.05 285.55 552.38 288.49 552.54C292.4 552.87 292.56 546.35 288.49 546.19C285.39 546.02 282.29 546.19 279.2 546.51C276.75 546.68 273.98 546.68 272.19 548.47C271.37 549.45 271.7 550.75 272.51 551.24C272.51 551.24 272.51 551.24 272.51 551.24C275.66 551.78 278.06 552.05 279.69 552.05Z" id="apMT2Rkg"></path><path d="M277.73 573.41C277.57 577.48 283.92 577.48 284.09 573.41C284.41 565.42 284.41 557.11 283.27 549.12C282.78 546.51 279.03 547.33 278.87 549.77C278.87 549.77 278.87 549.77 278.87 549.77C278.44 560.31 278.06 568.19 277.73 573.41Z" id="e7KGrpwuWo"></path><path d="M304.3 571.78C304.13 575.69 310.49 575.69 310.49 571.78C310.49 564.11 311.3 554.99 308.86 547.65C308.37 545.86 305.44 545.53 304.95 547.65C304.95 547.65 304.95 547.65 304.95 547.65C304.84 558.52 304.62 566.56 304.3 571.78Z" id="bbshanisK"></path><path d="M320.76 562.81C320.92 558.57 321.25 554.34 320.92 550.1C320.76 547.49 316.52 546.51 316.03 549.45C315.38 553.52 315.38 557.76 315.38 561.83C315.38 565.91 314.89 570.15 316.03 574.06C316.68 576.01 319.45 576.01 319.94 574.22C319.94 574.22 319.94 574.22 319.94 574.22C320.49 569.11 320.76 565.31 320.76 562.81Z" id="ajRZNP5J7"></path><path d="M328.09 574.55C330.21 577.97 335.59 574.71 333.47 571.45C330.86 567.54 328.58 563.63 326.46 559.39C324.67 555.48 323.2 551.24 320.43 547.98C319.29 547 317.33 547.82 317.33 549.28C317.33 549.28 317.33 549.28 317.33 549.28C321.35 561.34 324.94 569.77 328.09 574.55Z" id="b29pQdMV1Y"></path><path d="M332.82 549.45C332.33 549.77 331.68 550.26 331.19 550.75C331.19 550.75 331.19 550.75 331.35 550.75C330.86 549.77 330.21 548.79 329.72 547.98C328.25 550.75 328.91 555.31 328.91 558.25C328.91 563.14 328.91 567.86 328.91 572.75C328.91 576.83 335.1 576.83 335.1 572.75C335.1 564.77 335.1 556.45 333.47 548.63C333.31 547.98 332.65 547.16 332 547.16C332 547.16 331.84 547.16 331.84 547.16C330.7 547 329.4 547.65 329.4 548.96C329.4 548.96 329.4 548.96 329.4 549.12C329.56 550.1 330.21 550.91 331.19 550.91C331.19 550.91 331.19 550.91 331.19 550.91C331.84 550.75 332.65 550.26 332.82 549.45C332.82 549.45 332.82 549.45 332.82 549.45C332.82 549.45 332.82 549.45 332.82 549.45Z" id="af6O2HtXQ"></path><path d="M339.01 572.26C338.85 576.34 345.37 576.34 345.37 572.26C345.37 564.28 345.69 555.97 344.39 547.98C343.9 545.05 339.99 546.19 339.66 548.63C339.66 548.63 339.66 548.63 339.66 548.63C339.34 559.17 339.12 567.05 339.01 572.26Z" id="a1m5JO1qVJ"></path><path d="M355.64 551.73C358.24 551.73 360.85 551.73 363.46 551.4C366.72 550.91 366.88 546.02 363.46 546.19C360.85 546.19 358.24 546.68 355.64 546.84C353.19 547 350.75 547 348.46 547.98C346.83 548.47 346.67 550.91 348.46 551.4C348.46 551.4 348.46 551.4 348.46 551.4C351.62 551.73 354.01 551.84 355.64 551.73Z" id="a2pWyNTofe"></path><path d="M354.17 573.24C353.84 576.66 359.71 576.83 359.71 573.24C359.55 565.09 359.87 556.94 358.41 548.79C358.08 546.51 354.82 547.16 354.66 549.28C354.66 549.28 354.66 549.28 354.66 549.28C354.77 559.93 354.6 567.92 354.17 573.24Z" id="jNgUK3PAE"></path><path d="M368.84 573.41C369 577.15 374.38 577.15 374.54 573.41C375.03 565.58 376.01 555.97 373.89 548.31C373.56 546.51 370.96 546.51 370.47 548.31C370.47 548.31 370.47 548.31 370.47 548.31C369.27 559.82 368.73 568.19 368.84 573.41Z" id="brlrKWhlH"></path><path d="M379.76 572.43C378.78 576.01 384.32 577.48 385.3 573.89C387.42 565.91 390.19 556.62 389.54 548.31C389.21 546.19 386.6 545.86 385.79 547.82C385.79 547.82 385.79 547.82 385.79 547.82C383.18 558.9 381.17 567.1 379.76 572.43Z" id="a1r494qlCg"></path><path d="M393.29 574.06C394.43 577.64 399.97 576.18 398.83 572.59C396.22 564.28 393.94 555.48 390.68 547.33C390.03 545.53 386.77 545.53 386.93 547.82C386.93 547.82 386.93 547.82 386.93 547.82C389.32 559.66 391.44 568.41 393.29 574.06Z" id="b1uKb0Dchk"></path><path d="M393.29 568.84C394.43 568.52 395.08 567.54 395.08 566.4C395.08 565.42 394.26 564.11 393.29 563.95C391 563.63 388.88 564.28 386.6 564.28C383.51 564.44 383.51 568.68 386.6 569C386.6 569 386.6 569 386.6 569C389.65 569.44 391.87 569.38 393.29 568.84Z" id="a3vJaeHwGF"></path><path d="M413.82 551.08C416.92 550.59 415.94 546.02 413.17 545.86C410.72 545.7 408.12 546.02 405.51 546.19C403.23 546.19 400.95 546.02 398.83 546.84C397.2 547.49 396.71 550.26 398.83 550.59C398.83 550.59 398.83 550.59 398.83 550.59C405.56 551.46 410.56 551.62 413.82 551.08Z" id="ddIDUg4SS"></path><path d="M404.21 573.24C404.21 576.66 409.58 576.66 409.58 573.24C409.58 565.26 410.4 556.45 408.77 548.63C408.28 546.35 404.69 546.84 404.86 549.12C404.86 549.12 404.86 549.12 404.86 549.12C404.42 559.99 404.21 568.03 404.21 573.24Z" id="a1uAi7tIxt"></path><path d="M420.67 559.55C420.83 563.79 420.5 568.03 420.5 572.26C420.34 575.69 425.72 575.69 425.88 572.26C426.37 564.77 426.86 554.66 423.76 547.82C423.27 546.35 420.83 546.84 420.67 548.14C420.67 548.14 420.67 548.14 420.67 548.14C420.67 553.25 420.67 557.05 420.67 559.55Z" id="a2LEnumBRA"></path><path d="M429.96 574.06C429.79 577.64 435.34 577.64 435.5 574.06C435.82 565.58 436.48 556.29 434.52 547.98C434.03 545.7 431.1 546.51 430.93 548.47C430.93 548.47 430.93 548.47 430.93 548.47C430.61 559.88 430.28 568.41 429.96 574.06Z" id="b83PH1K4Jk"></path><path d="M444.63 574.71C446.58 577.64 451.47 574.87 449.35 571.94C443.97 564.28 440.71 555.31 435.17 547.82C434.19 546.02 431.1 547 431.75 549.28C431.75 549.28 431.75 549.28 431.75 549.28C436.96 561.02 441.26 569.49 444.63 574.71Z" id="d4YreXtKUv"></path><path d="M444.14 572.1C443.97 576.01 450 576.01 450.33 572.1C450.66 564.28 450.17 556.45 449.19 548.63C448.7 546.19 445.28 546.02 445.28 548.63C445.28 548.63 445.28 548.63 445.28 548.63C444.73 559.06 444.35 566.89 444.14 572.1Z" id="bvREFoXTS"></path><path d="M460.76 545.37C455.06 546.35 454.24 552.54 454.4 557.27C454.4 562.16 454.89 571.45 459.78 574.38C465 577.48 469.4 570.96 470.38 566.56C471.03 563.63 466.95 562.65 465.98 565.26C465.65 566.07 464.67 568.68 463.69 569C461.25 570.15 461.09 567.37 460.6 565.91C459.78 563.3 459.46 560.53 459.29 557.92C459.29 556.13 458.8 552.71 460.11 551.24C462.88 547.82 465.65 553.03 466.79 555.15C467.61 556.78 470.38 556.29 470.38 554.34C470.38 554.34 470.38 554.34 470.38 554.34C467.55 547.82 464.35 544.83 460.76 545.37Z" id="g3037KUMmY"></path><path d="M470.05 565.26C469.07 564.6 468.26 563.95 467.28 563.14C467.93 566.07 468.09 569.17 468.42 572.26C468.58 573.89 469.56 575.2 471.35 575.2C472.82 575.2 474.45 573.89 474.29 572.26C473.96 568.52 473.96 564.44 472.5 561.02C472.01 559.88 470.38 559.55 469.24 559.71C467.28 560.04 465.32 560.04 463.37 560.37C461.25 560.69 460.43 563.79 462.88 564.44C462.88 564.44 462.88 564.44 462.88 564.44C466.03 564.88 468.42 565.15 470.05 565.26Z" id="b37191gwya"></path><path d="M494.66 546.35C488.31 547.16 486.68 552.87 486.68 558.25C486.68 563.46 487.16 572.1 492.87 574.38C498.08 576.5 503.63 572.59 504.6 567.37C505.09 564.6 501.18 562.49 499.71 565.26C498.57 567.7 496.78 572.1 493.52 567.21C492.38 565.58 492.54 562.32 492.38 560.53C492.22 558.74 492.05 555.97 492.71 554.34C494.01 551.24 497.76 551.4 498.57 554.66C499.23 557.11 502.48 557.11 503.14 554.82C503.14 554.82 503.14 554.82 503.14 554.82C500.75 548.85 497.92 546.02 494.66 546.35Z" id="c5TBBnT25"></path><path d="M509.17 559.71C509.33 563.79 509.17 567.86 509.66 571.94C509.98 575.52 515.2 575.69 515.36 571.94C515.36 567.86 515.03 563.79 514.71 559.71C514.38 555.97 514.55 552.22 513.4 548.63C512.92 546.84 509.82 546.51 509.49 548.63C509.49 548.63 509.49 548.63 509.49 548.63C509.28 553.52 509.17 557.22 509.17 559.71Z" id="h2kpNpuRXt"></path><path d="M516.83 563.63C518.29 563.79 520.09 564.28 521.55 563.95C525.14 563.46 525.3 558.57 521.55 558.41C520.09 558.41 518.62 558.74 517.15 558.74C515.69 558.74 514.22 558.9 512.75 558.74C510.63 558.57 509.98 562.49 512.26 562.81C512.26 562.81 512.26 562.81 512.26 562.81C514.33 563.14 515.85 563.41 516.83 563.63Z" id="iE70XtRfp"></path><path d="M521.06 572.75C521.06 576.83 527.58 576.83 527.42 572.75C527.1 564.6 528.4 555.97 525.95 548.14C525.3 545.86 522.21 546.35 522.04 548.63C522.04 548.63 522.04 548.63 522.04 548.63C521.5 559.28 521.17 567.32 521.06 572.75Z" id="c5O3Egh3iw"></path><path d="M542.9 549.77C541.27 549.94 539.65 550.26 538.02 550.42C541.27 557.76 542.25 565.58 544.21 573.41C545.02 576.66 550.57 576.01 550.24 572.59C549.42 564.11 546.16 556.13 542.9 548.47C541.93 546.19 538.5 545.7 537.69 548.47C535.41 556.29 532.15 564.44 531.17 572.43C530.84 574.71 533.94 576.5 535.24 574.06C535.24 574.06 535.24 574.06 535.24 574.06C539.05 563.19 541.6 555.1 542.9 549.77Z" id="bIoNr8QKA"></path><path d="M541.93 569.33C543.56 569.49 544.7 569.82 546.16 569C547.79 568.03 547.96 565.26 546.16 564.44C544.37 563.63 542.9 564.11 540.95 564.28C539.48 564.44 538.02 564.6 536.55 565.26C534.43 566.4 535.9 570.15 538.18 569.17C538.18 569.17 538.18 569.17 538.18 569.17C539.92 569.28 541.17 569.33 541.93 569.33Z" id="a95GtuKDfw"></path><path d="M559.53 549.12C558.06 549.61 556.43 549.94 554.97 550.42C558.71 558.57 562.79 566.72 566.86 574.87C568.17 577.32 571.92 576.5 572.57 574.06C573.87 569.82 573.06 566.07 572.57 561.83C572.08 557.27 573.06 552.71 572.57 548.14C572.24 544.39 566.21 544.39 566.54 548.14C566.86 551.89 566.05 555.64 566.21 559.39C566.37 563.79 567.68 568.03 566.54 572.43C568.49 572.1 570.29 571.94 572.24 571.61C568.17 563.63 563.93 555.48 559.2 547.98C557.9 545.86 554.64 546.68 554.64 549.28C554.48 557.6 553.99 565.74 554.64 574.06C554.8 576.83 558.71 576.66 558.88 573.89C558.88 573.89 558.88 573.89 558.88 573.89C559.2 562.92 559.42 554.66 559.53 549.12Z" id="b1Qb1Xx1Pg"></path><path d="M585.28 546.84C579.74 547.98 578.27 553.85 577.95 558.74C577.46 563.79 577.95 570.31 582.67 573.24C587.73 576.5 592.62 573.73 595.06 568.84C596.69 565.74 591.96 562.97 590.33 566.07C590.01 567.05 589.36 567.86 588.87 568.68C586.1 569.49 584.47 568.68 583.98 566.23C583.32 564.44 583.32 562.32 583.49 560.37C583.65 558.57 583.49 555.15 584.95 553.52C587.89 550.26 589.84 553.68 591.15 555.8C591.96 557.6 594.57 556.78 594.73 554.82C594.73 554.82 594.73 554.82 594.73 554.82C591.69 548.85 588.54 546.19 585.28 546.84Z" id="a1au48CXT6"></path><path d="M593.76 565.91C593.1 565.42 592.62 565.09 591.96 564.6C591.96 564.6 591.96 564.77 592.13 564.77C591.96 564.28 591.8 563.79 591.8 563.3C591.8 566.23 591.31 569 591.31 571.94C591.15 575.85 597.18 575.85 597.34 571.94C597.5 570.15 597.5 568.19 597.5 566.4C597.5 564.77 597.83 562.97 596.85 561.67C595.71 560.2 594.41 560.37 592.78 560.53C590.99 560.86 589.36 560.69 587.56 561.02C585.77 561.34 585.44 563.95 587.07 564.77C587.07 564.77 587.07 564.77 587.07 564.77C590.01 565.2 592.23 565.58 593.76 565.91Z" id="blWYPmwit"></path><path d="M603.37 546.35C601.25 546.51 600.28 548.14 600.44 550.1C601.42 557.11 601.42 564.44 600.44 571.45C600.28 573.08 601.09 575.2 603.21 575.03C606.47 574.71 609.73 574.71 612.99 574.71C617.23 574.71 617.06 567.86 612.99 568.19C609.73 568.52 606.47 568.84 603.21 569.33C604.19 570.31 605.16 571.29 605.98 572.1C606.79 564.44 606.79 556.94 606.31 549.28C605.33 550.26 604.35 551.24 603.37 552.22C606.63 552.05 610.05 552.05 613.31 551.57C615.92 551.4 617.06 547.16 613.97 546.51C613.97 546.51 613.97 546.51 613.97 546.51C609.29 546.08 605.76 546.02 603.37 546.35Z" id="bug8lJG7o"></path><path d="M611.68 563.63C613.48 563.46 614.78 562.16 614.62 560.37C614.45 558.57 612.66 557.6 611.03 557.92C608.91 558.41 606.79 558.74 604.51 559.06C602.39 559.39 602.72 562.49 604.35 562.97C604.35 562.97 604.35 562.97 604.35 562.97C607.61 563.63 610.05 563.84 611.68 563.63Z" id="bpYvfpI89"></path></defs><g visibility="inherit"><g visibility="inherit"><g visibility="inherit"><use xlink:href="#c1obK7UcfM" opacity="1" fill="#864c9e" fill-opacity="1"></use><g><use xlink:href="#c1obK7UcfM" opacity="1" fill-opacity="0" stroke="#000000" stroke-width="1" stroke-opacity="0"></use></g></g><g visibility="inherit"><use xlink:href="#b6Lz3FtXAn" opacity="1" fill="#c6c6c6" fill-opacity="1"></use><g><use xlink:href="#b6Lz3FtXAn" opacity="1" fill-opacity="0" stroke="#000000" stroke-width="1" stroke-opacity="0"></use></g></g><g visibility="inherit"><use xlink:href="#boazUexVZ" opacity="1" fill="#c6c6c6" fill-opacity="1"></use><g><use xlink:href="#boazUexVZ" opacity="1" fill-opacity="0" stroke="#000000" stroke-width="1" stroke-opacity="0"></use></g></g><g visibility="inherit"><use xlink:href="#c1sJhBY60x" opacity="1" fill="#c6c6c6" fill-opacity="1"></use><g><use xlink:href="#c1sJhBY60x" opacity="1" fill-opacity="0" stroke="#000000" stroke-width="1" stroke-opacity="0"></use></g></g><g visibility="inherit"><use xlink:href="#b10eNKkOKa" opacity="1" fill="#c6c6c6" fill-opacity="1"></use><g><use xlink:href="#b10eNKkOKa" opacity="1" fill-opacity="0" stroke="#000000" stroke-width="1" stroke-opacity="0"></use></g></g><g visibility="inherit"><use xlink:href="#ba7njnksc" opacity="1" fill="#c6c6c6" fill-opacity="1"></use><g><use xlink:href="#ba7njnksc" opacity="1" fill-opacity="0" stroke="#000000" stroke-width="1" stroke-opacity="0"></use></g></g><g visibility="inherit"><use xlink:href="#aMipDJI23" opacity="1" fill="#c6c6c6" fill-opacity="1"></use><g><use xlink:href="#aMipDJI23" opacity="1" fill-opacity="0" stroke="#000000" stroke-width="1" stroke-opacity="0"></use></g></g><g visibility="inherit"><use xlink:href="#cRcBWUMFD" opacity="1" fill="#c6c6c6" fill-opacity="1"></use><g><use xlink:href="#cRcBWUMFD" opacity="1" fill-opacity="0" stroke="#000000" stroke-width="1" stroke-opacity="0"></use></g></g><g visibility="inherit"><use xlink:href="#e34q15C05O" opacity="1" fill="#c6c6c6" fill-opacity="1"></use><g><use xlink:href="#e34q15C05O" opacity="1" fill-opacity="0" stroke="#000000" stroke-width="1" stroke-opacity="0"></use></g></g><g visibility="inherit"><use xlink:href="#f2DSrrNB37" opacity="1" fill="#c6c6c6" fill-opacity="1"></use><g><use xlink:href="#f2DSrrNB37" opacity="1" fill-opacity="0" stroke="#000000" stroke-width="1" stroke-opacity="0"></use></g></g><g visibility="inherit"><use xlink:href="#c3NbxZ5Py" opacity="1" fill="#8e8e8e" fill-opacity="1"></use><g><use xlink:href="#c3NbxZ5Py" opacity="1" fill-opacity="0" stroke="#000000" stroke-width="1" stroke-opacity="0"></use></g></g><g visibility="inherit"><use xlink:href="#acErvASuR" opacity="1" fill="#8e8e8e" fill-opacity="1"></use><g><use xlink:href="#acErvASuR" opacity="1" fill-opacity="0" stroke="#000000" stroke-width="1" stroke-opacity="0"></use></g></g><g visibility="inherit"><use xlink:href="#bfxeFZonQ" opacity="1" fill="#8e8e8e" fill-opacity="1"></use><g><use xlink:href="#bfxeFZonQ" opacity="1" fill-opacity="0" stroke="#000000" stroke-width="1" stroke-opacity="0"></use></g></g><g visibility="inherit"><use xlink:href="#bwXAgDpbL" opacity="1" fill="#8e8e8e" fill-opacity="1"></use><g><use xlink:href="#bwXAgDpbL" opacity="1" fill-opacity="0" stroke="#000000" stroke-width="1" stroke-opacity="0"></use></g></g><g visibility="inherit"><use xlink:href="#g1dQ1JIqpF" opacity="1" fill="#8e8e8e" fill-opacity="1"></use><g><use xlink:href="#g1dQ1JIqpF" opacity="1" fill-opacity="0" stroke="#000000" stroke-width="1" stroke-opacity="0"></use></g></g><g visibility="inherit"><use xlink:href="#b15ZIO1Qt" opacity="1" fill="#8e8e8e" fill-opacity="1"></use><g><use xlink:href="#b15ZIO1Qt" opacity="1" fill-opacity="0" stroke="#000000" stroke-width="1" stroke-opacity="0"></use></g></g><g visibility="inherit"><use xlink:href="#clWgBP5t7" opacity="1" fill="#8e8e8e" fill-opacity="1"></use><g><use xlink:href="#clWgBP5t7" opacity="1" fill-opacity="0" stroke="#000000" stroke-width="1" stroke-opacity="0"></use></g></g><g visibility="inherit"><use xlink:href="#j2Do7wVOEw" opacity="1" fill="#8e8e8e" fill-opacity="1"></use><g><use xlink:href="#j2Do7wVOEw" opacity="1" fill-opacity="0" stroke="#000000" stroke-width="1" stroke-opacity="0"></use></g></g><g visibility="inherit"><use xlink:href="#a1sJHD1579" opacity="1" fill="#8e8e8e" fill-opacity="1"></use><g><use xlink:href="#a1sJHD1579" opacity="1" fill-opacity="0" stroke="#000000" stroke-width="1" stroke-opacity="0"></use></g></g><g visibility="inherit"><use xlink:href="#aVgsWSmkk" opacity="1" fill="#5a326d" fill-opacity="1"></use><g><use xlink:href="#aVgsWSmkk" opacity="1" fill-opacity="0" stroke="#000000" stroke-width="1" stroke-opacity="0"></use></g></g><g visibility="inherit"><use xlink:href="#c145XdPCQ" opacity="1" fill="#5a326d" fill-opacity="1"></use><g><use xlink:href="#c145XdPCQ" opacity="1" fill-opacity="0" stroke="#000000" stroke-width="1" stroke-opacity="0"></use></g></g><g visibility="inherit"><use xlink:href="#c4X9bnq77a" opacity="1" fill="#ffffff" fill-opacity="1"></use><g><use xlink:href="#c4X9bnq77a" opacity="1" fill-opacity="0" stroke="#000000" stroke-width="1" stroke-opacity="0"></use></g></g><g visibility="inherit"><use xlink:href="#g1vPTCVaIM" opacity="1" fill="#ffffff" fill-opacity="1"></use><g><use xlink:href="#g1vPTCVaIM" opacity="1" fill-opacity="0" stroke="#000000" stroke-width="1" stroke-opacity="0"></use></g></g><g visibility="inherit"><use xlink:href="#e1pvBs1YOd" opacity="1" fill="#ffffff" fill-opacity="1"></use><g><use xlink:href="#e1pvBs1YOd" opacity="1" fill-opacity="0" stroke="#000000" stroke-width="1" stroke-opacity="0"></use></g></g><g visibility="inherit"><use xlink:href="#c2OUSOXS0" opacity="1" fill="#ffffff" fill-opacity="1"></use><g><use xlink:href="#c2OUSOXS0" opacity="1" fill-opacity="0" stroke="#000000" stroke-width="1" stroke-opacity="0"></use></g></g><g visibility="inherit"><use xlink:href="#d1UEJKqr4Z" opacity="1" fill="#ffffff" fill-opacity="1"></use><g><use xlink:href="#d1UEJKqr4Z" opacity="1" fill-opacity="0" stroke="#000000" stroke-width="1" stroke-opacity="0"></use></g></g><g visibility="inherit"><use xlink:href="#a2yLkw5i7P" opacity="1" fill="#ffffff" fill-opacity="1"></use><g><use xlink:href="#a2yLkw5i7P" opacity="1" fill-opacity="0" stroke="#000000" stroke-width="1" stroke-opacity="0"></use></g></g><g visibility="inherit"><use xlink:href="#fcm0HJq2A" opacity="1" fill="#ffffff" fill-opacity="1"></use><g><use xlink:href="#fcm0HJq2A" opacity="1" fill-opacity="0" stroke="#000000" stroke-width="1" stroke-opacity="0"></use></g></g><g visibility="inherit"><use xlink:href="#atuzKNP1y" opacity="1" fill="#ffffff" fill-opacity="1"></use><g><use xlink:href="#atuzKNP1y" opacity="1" fill-opacity="0" stroke="#000000" stroke-width="1" stroke-opacity="0"></use></g></g><g visibility="inherit"><use xlink:href="#fvXQBjbJP" opacity="1" fill="#ffffff" fill-opacity="1"></use><g><use xlink:href="#fvXQBjbJP" opacity="1" fill-opacity="0" stroke="#000000" stroke-width="1" stroke-opacity="0"></use></g></g><g visibility="inherit"><use xlink:href="#aNzSNSgdl" opacity="1" fill="#ffffff" fill-opacity="1"></use><g><use xlink:href="#aNzSNSgdl" opacity="1" fill-opacity="0" stroke="#000000" stroke-width="1" stroke-opacity="0"></use></g></g><g visibility="inherit"><use xlink:href="#f59u8rnOm5" opacity="1" fill="#ffffff" fill-opacity="1"></use><g><use xlink:href="#f59u8rnOm5" opacity="1" fill-opacity="0" stroke="#000000" stroke-width="1" stroke-opacity="0"></use></g></g><g visibility="inherit"><use xlink:href="#i1xBMGRnWm" opacity="1" fill="#ffffff" fill-opacity="1"></use><g><use xlink:href="#i1xBMGRnWm" opacity="1" fill-opacity="0" stroke="#000000" stroke-width="1" stroke-opacity="0"></use></g></g><g visibility="inherit"><use xlink:href="#auMPKienI" opacity="1" fill="#ffffff" fill-opacity="1"></use><g><use xlink:href="#auMPKienI" opacity="1" fill-opacity="0" stroke="#000000" stroke-width="1" stroke-opacity="0"></use></g></g><g visibility="inherit"><use xlink:href="#bjo5Iey4B" opacity="1" fill="#ffffff" fill-opacity="1"></use><g><use xlink:href="#bjo5Iey4B" opacity="1" fill-opacity="0" stroke="#000000" stroke-width="1" stroke-opacity="0"></use></g></g><g visibility="inherit"><use xlink:href="#edaAtegNb" opacity="1" fill="#ffffff" fill-opacity="1"></use><g><use xlink:href="#edaAtegNb" opacity="1" fill-opacity="0" stroke="#000000" stroke-width="1" stroke-opacity="0"></use></g></g><g visibility="inherit"><use xlink:href="#d4ipwv2g8" opacity="1" fill="#ffffff" fill-opacity="1"></use><g><use xlink:href="#d4ipwv2g8" opacity="1" fill-opacity="0" stroke="#000000" stroke-width="1" stroke-opacity="0"></use></g></g><g visibility="inherit"><use xlink:href="#b13cUv5lr7" opacity="1" fill="#ffffff" fill-opacity="1"></use><g><use xlink:href="#b13cUv5lr7" opacity="1" fill-opacity="0" stroke="#000000" stroke-width="1" stroke-opacity="0"></use></g></g><g visibility="inherit"><use xlink:href="#b1qAzruBtL" opacity="1" fill="#ffffff" fill-opacity="1"></use><g><use xlink:href="#b1qAzruBtL" opacity="1" fill-opacity="0" stroke="#000000" stroke-width="1" stroke-opacity="0"></use></g></g><g visibility="inherit"><use xlink:href="#e3NFYoWDCd" opacity="1" fill="#ffffff" fill-opacity="1"></use><g><use xlink:href="#e3NFYoWDCd" opacity="1" fill-opacity="0" stroke="#000000" stroke-width="1" stroke-opacity="0"></use></g></g><g visibility="inherit"><use xlink:href="#bDVs9CLLv" opacity="1" fill="#c91f4c" fill-opacity="1"></use><g><use xlink:href="#bDVs9CLLv" opacity="1" fill-opacity="0" stroke="#000000" stroke-width="1" stroke-opacity="0"></use></g></g><g visibility="inherit"><use xlink:href="#anjdHDDyz" opacity="1" fill="#c91f4c" fill-opacity="1"></use><g><use xlink:href="#anjdHDDyz" opacity="1" fill-opacity="0" stroke="#000000" stroke-width="1" stroke-opacity="0"></use></g></g><g visibility="inherit"><use xlink:href="#aa52j1pX1" opacity="1" fill="#c91f4c" fill-opacity="1"></use><g><use xlink:href="#aa52j1pX1" opacity="1" fill-opacity="0" stroke="#000000" stroke-width="1" stroke-opacity="0"></use></g></g><g visibility="inherit"><use xlink:href="#aimFx9I2R" opacity="1" fill="#c91f4c" fill-opacity="1"></use><g><use xlink:href="#aimFx9I2R" opacity="1" fill-opacity="0" stroke="#000000" stroke-width="1" stroke-opacity="0"></use></g></g><g visibility="inherit"><use xlink:href="#cqQ9QHvEu" opacity="1" fill="#c91f4c" fill-opacity="1"></use><g><use xlink:href="#cqQ9QHvEu" opacity="1" fill-opacity="0" stroke="#000000" stroke-width="1" stroke-opacity="0"></use></g></g><g visibility="inherit"><use xlink:href="#cdDnsX8pt" opacity="1" fill="#c91f4c" fill-opacity="1"></use><g><use xlink:href="#cdDnsX8pt" opacity="1" fill-opacity="0" stroke="#000000" stroke-width="1" stroke-opacity="0"></use></g></g><g visibility="inherit"><use xlink:href="#f7u78bXgUZ" opacity="1" fill="#c91f4c" fill-opacity="1"></use><g><use xlink:href="#f7u78bXgUZ" opacity="1" fill-opacity="0" stroke="#000000" stroke-width="1" stroke-opacity="0"></use></g></g><g visibility="inherit"><use xlink:href="#b2mrA7xzIn" opacity="1" fill="#c91f4c" fill-opacity="1"></use><g><use xlink:href="#b2mrA7xzIn" opacity="1" fill-opacity="0" stroke="#000000" stroke-width="1" stroke-opacity="0"></use></g></g><g visibility="inherit"><use xlink:href="#a1ORr1RBM7" opacity="1" fill="#c91f4c" fill-opacity="1"></use><g><use xlink:href="#a1ORr1RBM7" opacity="1" fill-opacity="0" stroke="#000000" stroke-width="1" stroke-opacity="0"></use></g></g><g visibility="inherit"><use xlink:href="#e1Alr9SgB2" opacity="1" fill="#c91f4c" fill-opacity="1"></use><g><use xlink:href="#e1Alr9SgB2" opacity="1" fill-opacity="0" stroke="#000000" stroke-width="1" stroke-opacity="0"></use></g></g><g visibility="inherit"><use xlink:href="#b1NhQ9UHOs" opacity="1" fill="#c91f4c" fill-opacity="1"></use><g><use xlink:href="#b1NhQ9UHOs" opacity="1" fill-opacity="0" stroke="#000000" stroke-width="1" stroke-opacity="0"></use></g></g><g visibility="inherit"><use xlink:href="#c19IiFMJtS" opacity="1" fill="#c91f4c" fill-opacity="1"></use><g><use xlink:href="#c19IiFMJtS" opacity="1" fill-opacity="0" stroke="#000000" stroke-width="1" stroke-opacity="0"></use></g></g><g visibility="inherit"><use xlink:href="#a4WXtKXEFw" opacity="1" fill="#c91f4c" fill-opacity="1"></use><g><use xlink:href="#a4WXtKXEFw" opacity="1" fill-opacity="0" stroke="#000000" stroke-width="1" stroke-opacity="0"></use></g></g><g visibility="inherit"><use xlink:href="#a6yTZF2BYh" opacity="1" fill="#c91f4c" fill-opacity="1"></use><g><use xlink:href="#a6yTZF2BYh" opacity="1" fill-opacity="0" stroke="#000000" stroke-width="1" stroke-opacity="0"></use></g></g><g visibility="inherit"><use xlink:href="#g8LxvX8v" opacity="1" fill="#c91f4c" fill-opacity="1"></use><g><use xlink:href="#g8LxvX8v" opacity="1" fill-opacity="0" stroke="#000000" stroke-width="1" stroke-opacity="0"></use></g></g><g visibility="inherit"><use xlink:href="#cCgkcuhmC" opacity="1" fill="#c91f4c" fill-opacity="1"></use><g><use xlink:href="#cCgkcuhmC" opacity="1" fill-opacity="0" stroke="#000000" stroke-width="1" stroke-opacity="0"></use></g></g><g visibility="inherit"><use xlink:href="#a29Xng1l2A" opacity="1" fill="#c91f4c" fill-opacity="1"></use><g><use xlink:href="#a29Xng1l2A" opacity="1" fill-opacity="0" stroke="#000000" stroke-width="1" stroke-opacity="0"></use></g></g><g visibility="inherit"><use xlink:href="#dr3S9dobP" opacity="1" fill="#864c9e" fill-opacity="1"></use><g><use xlink:href="#dr3S9dobP" opacity="1" fill-opacity="0" stroke="#000000" stroke-width="1" stroke-opacity="0"></use></g></g><g visibility="inherit"><use xlink:href="#b1AIi6P741" opacity="1" fill="#ffffff" fill-opacity="1"></use><g><use xlink:href="#b1AIi6P741" opacity="1" fill-opacity="0" stroke="#000000" stroke-width="1" stroke-opacity="0"></use></g></g><g visibility="inherit"><use xlink:href="#c1JdJl2Ldt" opacity="1" fill="#ffffff" fill-opacity="1"></use><g><use xlink:href="#c1JdJl2Ldt" opacity="1" fill-opacity="0" stroke="#000000" stroke-width="1" stroke-opacity="0"></use></g></g><g visibility="inherit"><use xlink:href="#c3xeyKseW" opacity="1" fill="#ffffff" fill-opacity="1"></use><g><use xlink:href="#c3xeyKseW" opacity="1" fill-opacity="0" stroke="#000000" stroke-width="1" stroke-opacity="0"></use></g></g><g visibility="inherit"><use xlink:href="#e1rhcgDBIA" opacity="1" fill="#ffffff" fill-opacity="1"></use><g><use xlink:href="#e1rhcgDBIA" opacity="1" fill-opacity="0" stroke="#000000" stroke-width="1" stroke-opacity="0"></use></g></g><g visibility="inherit"><use xlink:href="#bxkiJaLty" opacity="1" fill="#ffffff" fill-opacity="1"></use><g><use xlink:href="#bxkiJaLty" opacity="1" fill-opacity="0" stroke="#000000" stroke-width="1" stroke-opacity="0"></use></g></g><g visibility="inherit"><use xlink:href="#h2KJS4ggXy" opacity="1" fill="#ffffff" fill-opacity="1"></use><g><use xlink:href="#h2KJS4ggXy" opacity="1" fill-opacity="0" stroke="#000000" stroke-width="1" stroke-opacity="0"></use></g></g><g visibility="inherit"><use xlink:href="#a1UiFzUFk" opacity="1" fill="#ffffff" fill-opacity="1"></use><g><use xlink:href="#a1UiFzUFk" opacity="1" fill-opacity="0" stroke="#000000" stroke-width="1" stroke-opacity="0"></use></g></g><g visibility="inherit"><use xlink:href="#cckKBFXcK" opacity="1" fill="#ffffff" fill-opacity="1"></use><g><use xlink:href="#cckKBFXcK" opacity="1" fill-opacity="0" stroke="#000000" stroke-width="1" stroke-opacity="0"></use></g></g><g visibility="inherit"><use xlink:href="#c4keN1vIY8" opacity="1" fill="#ffffff" fill-opacity="1"></use><g><use xlink:href="#c4keN1vIY8" opacity="1" fill-opacity="0" stroke="#000000" stroke-width="1" stroke-opacity="0"></use></g></g><g visibility="inherit"><use xlink:href="#c22gtPvMQM" opacity="1" fill="#ffffff" fill-opacity="1"></use><g><use xlink:href="#c22gtPvMQM" opacity="1" fill-opacity="0" stroke="#000000" stroke-width="1" stroke-opacity="0"></use></g></g><g visibility="inherit"><use xlink:href="#aPTwyiE8Z" opacity="1" fill="#ffffff" fill-opacity="1"></use><g><use xlink:href="#aPTwyiE8Z" opacity="1" fill-opacity="0" stroke="#000000" stroke-width="1" stroke-opacity="0"></use></g></g><g visibility="inherit"><use xlink:href="#a1ocM95eQW" opacity="1" fill="#ffffff" fill-opacity="1"></use><g><use xlink:href="#a1ocM95eQW" opacity="1" fill-opacity="0" stroke="#000000" stroke-width="1" stroke-opacity="0"></use></g></g><g visibility="inherit"><use xlink:href="#f1uxYINrSH" opacity="1" fill="#ffffff" fill-opacity="1"></use><g><use xlink:href="#f1uxYINrSH" opacity="1" fill-opacity="0" stroke="#000000" stroke-width="1" stroke-opacity="0"></use></g></g><g visibility="inherit"><use xlink:href="#a5u4CmDXgZ" opacity="1" fill="#ffffff" fill-opacity="1"></use><g><use xlink:href="#a5u4CmDXgZ" opacity="1" fill-opacity="0" stroke="#000000" stroke-width="1" stroke-opacity="0"></use></g></g><g visibility="inherit"><use xlink:href="#apMT2Rkg" opacity="1" fill="#ffffff" fill-opacity="1"></use><g><use xlink:href="#apMT2Rkg" opacity="1" fill-opacity="0" stroke="#000000" stroke-width="1" stroke-opacity="0"></use></g></g><g visibility="inherit"><use xlink:href="#e7KGrpwuWo" opacity="1" fill="#ffffff" fill-opacity="1"></use><g><use xlink:href="#e7KGrpwuWo" opacity="1" fill-opacity="0" stroke="#000000" stroke-width="1" stroke-opacity="0"></use></g></g><g visibility="inherit"><use xlink:href="#bbshanisK" opacity="1" fill="#ffffff" fill-opacity="1"></use><g><use xlink:href="#bbshanisK" opacity="1" fill-opacity="0" stroke="#000000" stroke-width="1" stroke-opacity="0"></use></g></g><g visibility="inherit"><use xlink:href="#ajRZNP5J7" opacity="1" fill="#ffffff" fill-opacity="1"></use><g><use xlink:href="#ajRZNP5J7" opacity="1" fill-opacity="0" stroke="#000000" stroke-width="1" stroke-opacity="0"></use></g></g><g visibility="inherit"><use xlink:href="#b29pQdMV1Y" opacity="1" fill="#ffffff" fill-opacity="1"></use><g><use xlink:href="#b29pQdMV1Y" opacity="1" fill-opacity="0" stroke="#000000" stroke-width="1" stroke-opacity="0"></use></g></g><g visibility="inherit"><use xlink:href="#af6O2HtXQ" opacity="1" fill="#ffffff" fill-opacity="1"></use><g><use xlink:href="#af6O2HtXQ" opacity="1" fill-opacity="0" stroke="#000000" stroke-width="1" stroke-opacity="0"></use></g></g><g visibility="inherit"><use xlink:href="#a1m5JO1qVJ" opacity="1" fill="#ffffff" fill-opacity="1"></use><g><use xlink:href="#a1m5JO1qVJ" opacity="1" fill-opacity="0" stroke="#000000" stroke-width="1" stroke-opacity="0"></use></g></g><g visibility="inherit"><use xlink:href="#a2pWyNTofe" opacity="1" fill="#ffffff" fill-opacity="1"></use><g><use xlink:href="#a2pWyNTofe" opacity="1" fill-opacity="0" stroke="#000000" stroke-width="1" stroke-opacity="0"></use></g></g><g visibility="inherit"><use xlink:href="#jNgUK3PAE" opacity="1" fill="#ffffff" fill-opacity="1"></use><g><use xlink:href="#jNgUK3PAE" opacity="1" fill-opacity="0" stroke="#000000" stroke-width="1" stroke-opacity="0"></use></g></g><g visibility="inherit"><use xlink:href="#brlrKWhlH" opacity="1" fill="#ffffff" fill-opacity="1"></use><g><use xlink:href="#brlrKWhlH" opacity="1" fill-opacity="0" stroke="#000000" stroke-width="1" stroke-opacity="0"></use></g></g><g visibility="inherit"><use xlink:href="#a1r494qlCg" opacity="1" fill="#ffffff" fill-opacity="1"></use><g><use xlink:href="#a1r494qlCg" opacity="1" fill-opacity="0" stroke="#000000" stroke-width="1" stroke-opacity="0"></use></g></g><g visibility="inherit"><use xlink:href="#b1uKb0Dchk" opacity="1" fill="#ffffff" fill-opacity="1"></use><g><use xlink:href="#b1uKb0Dchk" opacity="1" fill-opacity="0" stroke="#000000" stroke-width="1" stroke-opacity="0"></use></g></g><g visibility="inherit"><use xlink:href="#a3vJaeHwGF" opacity="1" fill="#ffffff" fill-opacity="1"></use><g><use xlink:href="#a3vJaeHwGF" opacity="1" fill-opacity="0" stroke="#000000" stroke-width="1" stroke-opacity="0"></use></g></g><g visibility="inherit"><use xlink:href="#ddIDUg4SS" opacity="1" fill="#ffffff" fill-opacity="1"></use><g><use xlink:href="#ddIDUg4SS" opacity="1" fill-opacity="0" stroke="#000000" stroke-width="1" stroke-opacity="0"></use></g></g><g visibility="inherit"><use xlink:href="#a1uAi7tIxt" opacity="1" fill="#ffffff" fill-opacity="1"></use><g><use xlink:href="#a1uAi7tIxt" opacity="1" fill-opacity="0" stroke="#000000" stroke-width="1" stroke-opacity="0"></use></g></g><g visibility="inherit"><use xlink:href="#a2LEnumBRA" opacity="1" fill="#ffffff" fill-opacity="1"></use><g><use xlink:href="#a2LEnumBRA" opacity="1" fill-opacity="0" stroke="#000000" stroke-width="1" stroke-opacity="0"></use></g></g><g visibility="inherit"><use xlink:href="#b83PH1K4Jk" opacity="1" fill="#ffffff" fill-opacity="1"></use><g><use xlink:href="#b83PH1K4Jk" opacity="1" fill-opacity="0" stroke="#000000" stroke-width="1" stroke-opacity="0"></use></g></g><g visibility="inherit"><use xlink:href="#d4YreXtKUv" opacity="1" fill="#ffffff" fill-opacity="1"></use><g><use xlink:href="#d4YreXtKUv" opacity="1" fill-opacity="0" stroke="#000000" stroke-width="1" stroke-opacity="0"></use></g></g><g visibility="inherit"><use xlink:href="#bvREFoXTS" opacity="1" fill="#ffffff" fill-opacity="1"></use><g><use xlink:href="#bvREFoXTS" opacity="1" fill-opacity="0" stroke="#000000" stroke-width="1" stroke-opacity="0"></use></g></g><g visibility="inherit"><use xlink:href="#g3037KUMmY" opacity="1" fill="#ffffff" fill-opacity="1"></use><g><use xlink:href="#g3037KUMmY" opacity="1" fill-opacity="0" stroke="#000000" stroke-width="1" stroke-opacity="0"></use></g></g><g visibility="inherit"><use xlink:href="#b37191gwya" opacity="1" fill="#ffffff" fill-opacity="1"></use><g><use xlink:href="#b37191gwya" opacity="1" fill-opacity="0" stroke="#000000" stroke-width="1" stroke-opacity="0"></use></g></g><g visibility="inherit"><use xlink:href="#c5TBBnT25" opacity="1" fill="#ffffff" fill-opacity="1"></use><g><use xlink:href="#c5TBBnT25" opacity="1" fill-opacity="0" stroke="#000000" stroke-width="1" stroke-opacity="0"></use></g></g><g visibility="inherit"><use xlink:href="#h2kpNpuRXt" opacity="1" fill="#ffffff" fill-opacity="1"></use><g><use xlink:href="#h2kpNpuRXt" opacity="1" fill-opacity="0" stroke="#000000" stroke-width="1" stroke-opacity="0"></use></g></g><g visibility="inherit"><use xlink:href="#iE70XtRfp" opacity="1" fill="#ffffff" fill-opacity="1"></use><g><use xlink:href="#iE70XtRfp" opacity="1" fill-opacity="0" stroke="#000000" stroke-width="1" stroke-opacity="0"></use></g></g><g visibility="inherit"><use xlink:href="#c5O3Egh3iw" opacity="1" fill="#ffffff" fill-opacity="1"></use><g><use xlink:href="#c5O3Egh3iw" opacity="1" fill-opacity="0" stroke="#000000" stroke-width="1" stroke-opacity="0"></use></g></g><g visibility="inherit"><use xlink:href="#bIoNr8QKA" opacity="1" fill="#ffffff" fill-opacity="1"></use><g><use xlink:href="#bIoNr8QKA" opacity="1" fill-opacity="0" stroke="#000000" stroke-width="1" stroke-opacity="0"></use></g></g><g visibility="inherit"><use xlink:href="#a95GtuKDfw" opacity="1" fill="#ffffff" fill-opacity="1"></use><g><use xlink:href="#a95GtuKDfw" opacity="1" fill-opacity="0" stroke="#000000" stroke-width="1" stroke-opacity="0"></use></g></g><g visibility="inherit"><use xlink:href="#b1Qb1Xx1Pg" opacity="1" fill="#ffffff" fill-opacity="1"></use><g><use xlink:href="#b1Qb1Xx1Pg" opacity="1" fill-opacity="0" stroke="#000000" stroke-width="1" stroke-opacity="0"></use></g></g><g visibility="inherit"><use xlink:href="#a1au48CXT6" opacity="1" fill="#ffffff" fill-opacity="1"></use><g><use xlink:href="#a1au48CXT6" opacity="1" fill-opacity="0" stroke="#000000" stroke-width="1" stroke-opacity="0"></use></g></g><g visibility="inherit"><use xlink:href="#blWYPmwit" opacity="1" fill="#ffffff" fill-opacity="1"></use><g><use xlink:href="#blWYPmwit" opacity="1" fill-opacity="0" stroke="#000000" stroke-width="1" stroke-opacity="0"></use></g></g><g visibility="inherit"><use xlink:href="#bug8lJG7o" opacity="1" fill="#ffffff" fill-opacity="1"></use><g><use xlink:href="#bug8lJG7o" opacity="1" fill-opacity="0" stroke="#000000" stroke-width="1" stroke-opacity="0"></use></g></g><g visibility="inherit"><use xlink:href="#bpYvfpI89" opacity="1" fill="#ffffff" fill-opacity="1"></use><g><use xlink:href="#bpYvfpI89" opacity="1" fill-opacity="0" stroke="#000000" stroke-width="1" stroke-opacity="0"></use></g></g></g></g></svg>