<?xml version="1.0" encoding="UTF-8" standalone="no"?>
<!DOCTYPE svg PUBLIC "-//W3C//DTD SVG 1.1//EN" "http://www.w3.org/Graphics/SVG/1.1/DTD/svg11.dtd">
<svg version="1.1" xmlns="http://www.w3.org/2000/svg" xmlns:xlink="http://www.w3.org/1999/xlink" preserveAspectRatio="xMidYMid meet" viewBox="0 0 640 640" width="640" height="640"><defs><path d="M274.46 407.47C274.3 406.98 274.3 406.49 274.14 406C272.99 400.91 267.58 401.73 264.3 404.03C264.14 404.03 264.14 404.19 263.97 404.19C262.66 398.45 256.76 399.6 252.33 403.7C252.33 403.7 252.17 403.54 252.17 403.54C246.76 401.4 241.84 403.37 237.58 406.98C230.04 405.18 223.81 410.91 219.05 418.45C216.43 421.4 214.14 424.68 212.33 427.31C207.09 435.01 203.48 443.54 201.51 452.72C200.86 456 201.51 460.26 204.95 461.4C206.1 461.73 207.09 461.73 208.23 461.4C209.22 475.18 214.63 488.78 229.87 490.75C233.32 493.7 238.73 494.52 243.97 494.52C245.77 495.83 248.23 496.32 251.68 495.34C255.94 496 260.2 495.5 264.46 493.7C267.25 492.55 270.04 490.91 272.66 489.11C273.97 488.95 275.45 488.45 277.09 487.63C282.66 484.85 286.27 479.93 288.4 474.19C288.73 473.7 289.05 473.37 289.38 472.88C304.46 452.72 296.76 426.98 280.69 409.44C278.73 407.14 276.43 406.81 274.46 407.47Z" id="b24vzVoq8E"></path><path d="M384.79 86.98C385.28 84.85 385.94 82.88 386.27 80.58C387.91 72.55 382.33 70.75 377.25 73.21C377.41 72.55 377.74 71.9 377.91 71.24C380.86 62.88 375.77 55.83 367.74 61.9C366.76 62.55 365.94 63.37 365.12 64.19C365.61 58.29 363.64 53.86 356.1 55.67C353.81 56.16 351.84 57.31 350.2 58.62C349.71 58.45 349.22 58.13 348.73 57.96C326.59 51.4 306.1 70.09 300.04 90.26C293.32 112.55 302.66 133.7 320.53 147.47C321.68 148.45 322.99 148.78 324.14 148.62C324.46 152.22 326.43 155.67 330.86 154.52C333.48 153.86 335.94 152.72 338.23 151.4C338.4 152.06 338.4 152.55 338.56 153.21C340.04 159.6 346.43 156.81 350.04 153.86C350.2 154.03 350.2 154.03 350.36 154.19C357.91 160.42 366.59 150.26 371.68 142.39C381.02 139.44 384.96 128.45 387.91 119.93C391.02 110.75 392.66 100.42 388.73 90.75C387.74 88.45 386.27 87.31 384.79 86.98Z" id="a5ZhuW4JAo"></path><path d="M449.71 181.24C449.38 181.08 448.89 181.08 448.56 181.08C442.66 170.42 433.48 163.21 420.36 165.99C418.23 166.49 415.94 168.13 414.14 170.42C412 170.75 410.04 171.24 408.07 171.9C390.86 169.77 376.27 188.95 372 204.19C366.1 226.16 376.1 245.83 388.07 263.7C389.71 266.16 391.84 266.49 394.14 265.67C394.79 266.16 395.45 266.65 396.1 266.98C398.89 268.45 402.66 266.98 404.63 264.85C406.1 263.37 407.58 261.73 408.73 260.26C408.73 260.26 408.73 260.26 408.73 260.26C411.51 263.21 414.79 263.7 417.91 263.04C420.53 264.03 423.32 264.19 426.1 263.86C427.09 264.85 428.73 265.34 430.69 264.68C445.61 260.09 459.05 252.88 464.96 237.47C470.2 223.54 467.41 207.63 461.68 194.19C459.38 188.95 455.77 182.72 449.71 181.24Z" id="c1hZYsvdX4"></path><path d="M309.71 207.14C309.71 205.34 309.55 203.54 309.55 201.73C309.38 197.63 309.71 192.39 307.25 188.78C305.28 185.83 302 184.68 298.56 184.19C296.59 182.06 294.46 179.93 292 178.13C290.86 177.31 289.71 176.98 288.56 177.14C283.81 173.37 278.07 170.91 271.02 170.58C270.04 170.26 268.89 170.26 267.74 170.58C267.25 170.58 266.76 170.58 266.27 170.58C261.18 170.91 256.27 172.06 251.68 173.7C251.18 173.54 250.86 173.37 250.2 173.21C239.87 171.08 232.99 179.11 228.89 188.95C219.54 199.6 214.46 213.7 216.59 229.27C220.53 258.45 251.02 274.03 278.23 265.99C295.28 260.91 309.05 247.47 311.18 229.27C311.84 224.03 311.51 218.78 310.36 213.7C310.36 211.57 310.04 209.27 309.71 207.14Z" id="aLqz63OuN"></path><path d="M537.25 297.14C530.04 287.47 519.71 280.26 508.23 285.01C507.25 285.34 506.43 285.83 505.61 286.32C505.45 285.67 505.28 285.18 505.28 284.52C503.97 278.95 497.58 280.42 494.3 283.37C492 285.5 489.87 287.63 487.91 289.93C487.58 289.44 487.09 289.11 486.59 288.78C481.68 285.99 476.27 292.22 474.14 295.67C458.89 319.6 451.35 355.01 474.14 376.98C477.41 380.26 481.35 378.78 484.3 375.99C494.63 390.09 523.97 384.85 534.46 374.36C540.37 368.62 544.46 361.08 546.76 353.04C550.86 348.13 553.48 341.57 554.46 335.67C556.1 324.03 551.35 308.45 544.3 298.78C542.17 295.99 539.71 295.83 537.25 297.14Z" id="a5vgHpV9Gu"></path><path d="M586.43 401.57C585.78 400.09 584.46 399.11 582.33 399.11C560.53 398.95 542.17 415.34 537.58 436.49C534.3 451.57 538.89 464.68 548.56 474.36C551.51 480.59 555.94 486.32 561.51 489.27C566.43 491.9 571.35 491.41 575.61 489.27C591.51 494.36 608.4 495.34 619.55 479.93C631.68 463.21 635.12 431.73 621.02 415.18C612.17 404.68 599.05 400.09 586.43 401.57Z" id="a4aEk3PDC"></path><path d="M498.73 426.81C497.91 423.04 494.46 422.55 491.51 423.54C488.89 415.5 485.45 408.13 476.43 405.83C476.1 402.72 475.61 399.6 474.79 396.65C472.99 389.27 464.46 394.03 461.68 397.63C459.71 400.26 458.07 402.88 456.76 405.67C455.77 404.36 454.63 402.88 453.15 401.73C450.36 399.44 446.92 401.4 444.3 404.19C432.33 404.36 420.53 413.04 414.3 424.52C409.05 434.03 407.09 445.01 408.07 455.83C408.23 457.8 408.56 460.09 408.89 462.55C409.05 465.5 409.38 468.29 409.87 471.24C410.2 473.04 410.69 474.68 411.18 476.32C411.18 477.31 411.35 478.29 411.35 479.27C411.68 482.88 413.48 484.85 415.77 485.34C418.73 489.27 422.82 492.06 428.07 493.04C429.87 493.37 431.68 493.37 433.48 493.21C450.04 501.9 469.22 496.81 482.17 484.03C485.77 481.24 489.05 477.63 491.84 473.37C502.66 464.36 500.04 443.54 499.22 431.08C499.22 429.6 499.05 428.13 498.73 426.81Z" id="kituLfvLO"></path><path d="M405.61 301.24C403.81 296.49 401.84 291.73 399.38 287.14C397.91 284.36 394.46 285.01 391.84 286.32C390.36 283.7 388.23 281.4 385.28 279.93C381.51 277.96 377.91 279.93 375.12 283.21C374.46 282.39 373.64 281.4 372.82 280.75C367.91 276.49 362.66 283.54 359.87 289.6C353.81 288.45 345.61 295.5 342 299.27C334.14 307.8 328.73 318.78 327.09 330.26C324.14 351.08 334.95 371.73 354.79 379.44C357.09 380.26 359.71 379.6 362.17 378.13C364.95 380.09 368.07 381.24 371.68 380.91C372 380.91 372.33 380.75 372.66 380.75C376.27 386.32 382.66 387.63 388.56 384.19C391.35 382.55 393.48 380.59 395.28 378.29C396.59 378.45 398.07 378.29 399.55 377.31C410.2 371.57 414.96 360.75 416.27 348.95C424.96 333.04 419.22 315.83 406.59 302.22C406.27 301.9 405.94 301.57 405.61 301.24Z" id="ahaSVMR11"></path><path d="M201.84 301.9C197.09 296.81 188.4 287.96 181.02 287.63C177.91 287.47 174.95 288.62 172.33 290.42C172.33 290.42 172.17 290.42 172.17 290.26C161.35 285.5 147.91 289.27 142.17 299.27C123.64 310.91 118.4 339.77 131.18 357.8C138.23 367.8 150.86 377.14 163.48 377.96C170.36 378.45 176.76 376.16 182.17 372.22C182.99 372.88 183.81 373.37 185.12 373.7C206.92 377.47 212.17 344.36 211.84 329.27C211.51 319.27 208.73 309.27 201.84 301.9Z" id="ca9m0xxmP"></path><path d="M106.59 410.91C105.61 409.6 104.63 408.29 103.64 407.14C101.18 404.19 98.4 404.36 95.94 406C94.95 403.7 93.48 401.73 91.02 400.26C87.74 398.29 84.63 399.6 82.17 402.06C79.38 399.6 74.3 401.9 71.18 405.34C70.2 405.01 69.05 404.85 67.74 405.18C47.91 408.78 36.59 431.4 35.28 449.77C34.13 467.14 41.35 484.19 55.45 494.52C56.59 495.34 57.91 495.34 59.22 495.01C59.54 496.81 60.36 498.62 61.51 499.93C68.56 507.96 87.09 503.04 95.77 500.59C99.05 499.6 102 496.98 103.97 493.86C117.91 493.86 125.28 472.55 127.58 461.57C130.36 447.63 128.56 430.42 119.71 418.45C115.77 413.04 111.02 410.91 106.59 410.91Z" id="c3K7KH9snN"></path><path d="M225.45 483.86C233.32 489.77 244.95 491.41 254.46 492.22C265.77 493.21 276.43 491.08 285.28 483.37C287.91 481.08 291.02 476 289.55 472.22C288.07 468.62 284.46 469.11 281.84 471.41C274.63 477.8 264.79 477.14 255.77 475.83C248.23 474.68 240.2 473.54 234.14 468.78C220.2 457.96 221.68 438.78 225.77 423.54C226.59 420.26 224.79 416.81 221.18 417.31C217.09 418.13 214.63 423.37 213.64 426.81C213.64 426.81 213.64 426.81 213.64 426.81C209.71 456 213.64 475.01 225.45 483.86Z" id="bgyeE4JeC"></path><path d="M39.2 567.53C37.4 565.89 36.25 563.6 35.59 561.3C35.26 560.16 35.1 559.17 35.1 557.86C35.1 557.7 35.1 557.37 35.26 557.21C37.23 554.26 38.38 550.65 36.58 547.37C36.58 547.21 36.41 547.04 36.41 547.04C35.26 544.91 32.64 545.73 31 546.39C21.17 550.81 21.49 567.53 25.43 575.57C30.02 585.08 40.67 589.01 50.67 586.88C56.74 585.57 61.99 569.5 53.46 571.47C48.38 572.62 42.97 571.14 39.2 567.53Z" id="b5MwreIfb8"></path><path d="M41.02 472.22C52.99 496.98 83.64 503.7 106.1 488.62C109.38 486.49 112.66 482.22 112.17 478.13C111.84 474.85 109.22 472.22 105.77 474.52C89.87 485.18 68.23 482.55 56.43 467.14C45.12 452.39 46.59 431.57 63.32 421.57C66.59 419.6 69.87 415.01 69.38 411.08C68.89 407.47 66.43 405.34 62.99 407.31C62.99 407.31 62.99 407.31 62.99 407.31C40.69 434.85 33.37 456.49 41.02 472.22Z" id="b1OBb1a7ND"></path><path d="M189.87 361.4C189.05 361.57 187.41 362.22 186.92 362.39C184.46 362.88 182 363.04 179.54 362.88C175.28 362.72 171.02 361.9 167.09 360.42C159.38 357.63 152.99 352.39 148.23 345.83C143.48 339.11 139.22 329.44 140.69 320.91C142 312.72 150.04 307.63 157.25 304.85C161.02 303.37 164.13 299.77 164.79 295.5C165.28 292.88 164.13 287.8 160.2 289.27C132.33 300.09 119.54 329.11 135.61 355.67C142.66 367.47 154.79 375.83 168.4 377.96C181.18 379.93 195.94 377.47 199.71 363.37C200.53 360.09 198.73 356.81 195.12 357.31C192.99 357.63 191.18 359.27 189.87 361.4Z" id="lIPW4gxPS"></path><path d="M227.74 242.22C245.45 264.19 280.04 262.88 302.17 248.95C305.45 246.81 308.73 242.55 308.23 238.45C307.91 235.01 305.28 232.72 301.84 234.85C284.79 245.67 261.51 246.98 244.63 235.01C224.95 221.08 232.33 197.8 247.09 183.54C249.71 181.08 252.82 176.32 251.35 172.39C249.87 168.95 246.1 169.11 243.64 171.57C243.64 171.57 243.64 171.57 243.64 171.57C220.69 203.48 215.39 227.03 227.74 242.22Z" id="b85hty1Ox"></path><path d="M334.46 117.96C328.73 114.03 321.18 105.83 318.23 97.63C318.89 88.29 324.79 79.11 332.66 73.21C338.56 68.78 338.23 54.36 329.22 61.24C323.64 65.5 318.4 71.24 314.3 77.63C310.86 77.96 308.23 82.22 307.09 84.85C305.28 88.78 304.63 92.88 304.79 96.98C303.48 109.27 305.61 122.88 313.15 132.39C317.09 137.31 322.5 139.27 328.23 141.08C338.23 146.81 350.04 149.93 360.36 150.42C365.12 150.58 370.36 143.04 369.55 138.29C369.87 138.13 370.04 138.13 370.36 137.96C374.14 136.65 377.25 132.72 377.91 128.62C378.23 125.99 377.25 121.08 373.32 122.39C360.2 126.98 346.1 125.83 334.46 117.96Z" id="b2MxYvwO6C"></path><path d="M450.04 240.58C448.56 238.95 446.43 238.78 444.63 239.93C444.46 240.09 444.3 240.09 444.14 240.26C443.32 240.91 442.33 241.57 441.51 242.39C426.43 247.47 405.77 245.01 395.45 232.72C389.71 225.83 388.56 216.81 388.73 208.13C389.05 198.95 393.48 194.36 399.87 189.77C403.64 191.57 410.86 184.03 410.2 178.95C410.04 178.13 410.04 177.31 409.87 176.65C409.55 173.37 406.92 170.75 403.48 173.04C392.33 180.26 382 188.29 378.07 201.57C374.46 214.03 375.12 230.75 381.84 241.9C388.23 252.55 400.53 258.45 412.5 259.93C423.97 261.24 442.33 260.58 449.55 250.09C451.02 248.29 452.5 243.37 450.53 241.24C450.36 241.08 450.2 240.91 450.04 240.58Z" id="a4NwtjCVpY"></path><path d="M325.45 332.06C323.81 344.85 330.53 354.03 340.04 361.73C358.07 376.32 395.12 386.98 406.92 359.11C408.23 356.16 408.23 351.57 404.46 350.75C400.69 349.93 397.25 355.34 396.1 358.13C395.45 359.6 387.09 360.42 385.28 360.59C381.02 360.91 376.76 360.59 372.5 359.44C364.14 357.47 356.43 352.72 349.87 347.47C343.64 342.55 337.25 336.49 337.91 327.8C338.56 319.27 344.14 310.75 349.38 304.36C351.35 301.9 354.14 296.32 351.51 293.37C348.73 290.75 344.79 293.21 342.82 295.67C342.82 295.67 342.82 295.67 342.82 295.67C332.33 311.08 326.54 323.21 325.45 332.06Z" id="bdz1Q0uSd"></path><path d="M468.89 358.62C481.51 378.45 509.22 381.9 528.23 369.6C531.51 367.47 534.79 363.21 534.3 359.11C533.97 355.67 531.35 353.37 527.91 355.5C514.46 364.03 495.61 363.04 484.14 351.57C478.56 345.99 474.63 338.13 474.79 330.09C475.12 319.77 483.48 310.09 490.37 303.21C492.99 300.59 496.1 295.99 494.63 292.06C493.32 288.45 489.55 288.62 487.09 291.08C487.09 291.08 487.09 291.08 487.09 291.08C464.68 320.04 458.62 342.55 468.89 358.62Z" id="c1aki3mLj"></path><path d="M615.45 467.47C603.97 477.8 585.78 476.81 572.82 469.77C565.94 466 557.74 457.14 555.61 448.13C557.41 446.49 558.73 444.36 559.22 442.06C559.71 439.11 560.37 436.32 561.18 433.7C563.32 427.31 566.59 421.73 571.35 416.49C577.41 409.93 572.66 399.11 564.96 407.47C560.53 412.22 556.92 417.47 554.14 423.04C540.04 439.27 539.22 463.86 556.27 478.95C573.48 494.19 601.68 494.85 618.73 479.27C621.51 476.98 624.63 472.06 623.15 468.29C621.68 464.68 618.07 465.18 615.45 467.47Z" id="c460jEgMk"></path><path d="M499.05 433.86C492.5 415.18 474.63 401.9 454.63 401.24C410.69 399.93 384.63 460.09 420.2 488.62C440.53 504.85 467.91 501.73 487.58 486.16C490.37 484.03 486.59 479.11 483.81 481.24C464.46 495.5 436.76 498.62 419.38 478.95C402.99 460.26 409.38 428.78 429.22 415.18C447.74 402.39 473.81 406.65 487.25 424.85C499.22 441.24 498.73 467.47 483.64 481.73C480.69 484.68 484.79 488.29 487.58 486C487.58 486 487.58 486 487.58 486C499.27 462.72 503.1 445.34 499.05 433.86Z" id="b2sDHjbWUh"></path><path d="M336.59 58.78C317.91 61.9 302.5 76.81 298.73 95.34C290.69 136.16 342.5 169.77 375.12 141.73C394.79 124.85 395.45 96.49 382.33 75.67C380.2 72.22 374.79 75.34 376.92 78.78C388.89 99.27 388.23 127.96 365.45 140.91C345.28 152.22 317.91 141.57 308.23 121.4C299.05 102.06 307.25 78.62 326.27 68.95C342.82 60.42 365.94 64.19 377.58 79.11C379.55 81.73 383.81 78.29 382 75.67C382 75.67 382 75.67 382 75.67C362.77 62.55 347.63 56.92 336.59 58.78Z" id="c2tMT4hFL"></path><path d="M401.68 171.4C382.99 177.47 369.71 195.01 368.56 214.68C366.1 258.95 427.25 285.18 455.45 249.11C471.18 228.95 467.91 202.06 452.66 182.88C450.53 180.09 445.61 183.86 447.74 186.65C461.68 205.5 465.12 232.06 446.59 249.44C428.4 266.49 396.59 260.75 382.82 240.91C370.04 222.55 373.97 196.81 392.17 183.37C408.4 171.4 434.3 171.9 448.4 186.81C450.69 189.77 454.46 185.67 452.17 182.88C452.17 182.88 452.17 182.88 452.17 182.88C429.65 171.51 412.82 167.69 401.68 171.4Z" id="b1cKIkCYx4"></path><path d="M470.2 272.22C476.59 280.91 481.84 290.42 488.23 299.27C490.37 302.22 494.63 299.77 493.15 296.49C483.48 276.32 467.09 257.8 451.35 242.39C449.38 240.58 446.76 243.21 448.4 245.18C448.4 245.18 448.4 245.18 448.4 245.18C458.34 256.98 465.61 265.99 470.2 272.22Z" id="b1qo2SOi2H"></path><path d="M130.69 361.08C141.51 376.49 161.68 384.19 180.04 379.44C220.36 368.95 228.73 307.63 188.89 290.59C167.25 281.24 143.15 289.77 129.05 307.8C126.59 310.91 130.86 315.34 133.48 312.22C147.58 295.67 170.36 286.49 190.53 298.45C210.2 310.09 213.81 338.62 201.35 356.81C189.05 374.85 164.13 379.6 145.94 367.31C128.73 355.67 122 329.27 133.48 311.57C135.61 308.62 130.86 305.99 128.73 308.78C128.73 308.78 128.73 308.78 128.73 308.78C123.15 333.92 123.81 351.35 130.69 361.08Z" id="c5d8hu1wX"></path><path d="M353.15 288.78C334.79 296.32 322.33 315.01 322.82 334.85C323.97 378.45 384.3 401.57 411.51 365.18C427.25 344.19 422.82 316.32 406.1 297.47C403.32 294.36 399.05 298.78 401.68 301.9C416.92 320.59 421.02 348.78 401.84 366.49C383.64 383.37 352 378.13 337.74 358.78C324.95 341.4 327.41 316.81 343.48 302.22C358.89 288.29 386.27 286.81 401.84 301.4C404.3 304.03 408.23 300.09 405.77 297.47C405.77 297.47 405.77 297.47 405.77 297.47C382.06 287.09 364.52 284.19 353.15 288.78Z" id="a122QICsPN"></path><path d="M218.4 417.14C203.81 430.42 199.54 452.55 207.74 470.42C225.94 509.77 290.2 504.36 297.25 460.09C300.69 437.96 288.23 417.47 268.89 407.31C265.28 405.5 262.17 410.75 265.77 412.72C283.97 423.37 296.43 442.88 289.87 464.52C282.82 487.31 253.97 497.14 233.15 487.14C213.32 477.8 204.46 453.37 214.14 433.54C223.15 415.18 247.25 404.52 266.43 412.55C269.22 414.03 271.35 408.95 268.56 407.47C268.56 407.47 268.56 407.47 268.56 407.47C243.86 405.94 227.14 409.16 218.4 417.14Z" id="afxQLeJk4"></path><path d="M279.38 177.31C278.4 180.58 282.99 182.39 284.79 179.6C289.05 172.55 292.17 165.17 296.92 158.62C302 151.4 308.07 145.17 314.3 138.95C315.94 137.31 313.81 134.03 311.68 135.5C311.68 135.5 311.68 135.5 311.68 135.5C293.42 152.44 282.66 166.38 279.38 177.31Z" id="dKmbevumr"></path><path d="M467.91 474.85C466.27 473.7 463.81 474.03 461.68 476.16C461.51 476.16 461.51 476.16 461.35 476.16C451.84 475.83 442.33 473.04 435.45 467.47C423.32 457.63 418.07 439.27 427.41 425.83C431.51 421.08 433.32 411.57 426.43 412.88C417.09 414.68 412 432.39 410.69 440.42C410.53 441.9 410.36 443.54 410.2 445.01C408.4 447.47 407.74 450.75 408.07 453.7C410.53 469.44 415.28 485.34 431.84 490.75C436.76 492.39 441.68 492.88 446.59 492.72C451.18 493.37 455.61 493.21 459.55 491.73C468.89 491.57 478.23 489.11 486.1 484.85C490.53 482.72 496.59 468.78 487.58 470.26C481.02 471.41 474.46 473.21 467.91 474.85Z" id="c1h0FjLQa"></path><path d="M460.04 320.59C454.3 339.27 461.18 360.42 476.59 372.39C512.17 399.77 569.38 363.7 553.97 319.44C546.27 297.31 524.96 284.85 502.17 284.85C498.07 284.85 498.07 290.91 502.17 291.08C523.81 291.9 544.14 303.54 549.22 325.99C554.63 350.26 533.48 373.54 509.87 375.67C486.92 377.63 466.27 360.26 464.46 337.31C462.82 315.83 479.71 292.72 502 290.75C505.61 290.59 505.77 285.01 502 285.18C502 285.18 502 285.18 502 285.18C477.63 296.65 463.64 308.45 460.04 320.59Z" id="b1PxsKrUjq"></path><path d="M83.97 403.86C64.3 401.73 44.46 412.39 35.77 430.26C26.59 449.11 30.69 472.39 45.94 486.98C60.86 501.24 83.15 506.65 101.68 496.65C123.97 484.68 132 458.29 125.45 434.68C124.3 430.75 118.4 432.39 119.38 436.32C124.79 459.27 116.92 485.67 92.33 493.7C69.38 501.24 43.81 484.19 38.4 461.57C33.15 440.09 46.1 417.96 67.41 411.73C87.09 406 112.17 416.32 119.71 436.16C120.86 439.44 126.27 438.13 125.12 434.52C125.12 434.52 125.12 434.52 125.12 434.52C109.38 415.39 95.66 405.18 83.97 403.86Z" id="b57qVcq6TH"></path><path d="M577.09 402.06C558.4 405.18 542.99 420.09 539.22 438.62C531.18 479.44 582.99 513.04 615.61 485.01C635.28 468.13 635.94 439.77 622.82 418.95C620.69 415.5 615.28 418.62 617.41 422.06C629.38 442.55 628.73 471.24 605.94 484.19C585.78 495.5 558.4 484.85 548.73 464.68C539.55 445.34 547.74 421.9 566.76 412.22C583.32 403.7 606.43 407.47 618.07 422.39C619.87 424.85 624.14 421.57 622.5 418.95C622.5 418.95 622.5 418.95 622.5 418.95C603.26 405.83 588.12 400.2 577.09 402.06Z" id="g4ZdvltZkd"></path><path d="M379.87 292.39C378.89 296.49 385.12 298.13 386.1 294.03C389.22 280.75 393.32 267.63 399.38 255.18C400.53 253.04 397.41 251.08 396.1 253.37C396.1 253.37 396.1 253.37 396.1 253.37C387.47 269.87 382.06 282.88 379.87 292.39Z" id="aKmlNj3NJ"></path><path d="M386.43 158.78C391.18 165.99 394.79 173.86 399.71 180.75C401.68 183.54 406.92 181.9 405.45 178.29C399.38 162.55 387.25 146.81 375.61 134.68C373.64 132.72 369.87 135.5 371.68 137.96C371.68 137.96 371.68 137.96 371.68 137.96C378.45 147.14 383.37 154.08 386.43 158.78Z" id="b1dToKgQnx"></path><path d="M104.13 418.29C103.32 421.57 108.07 423.7 109.71 420.59C114.46 412.22 117.91 403.04 122.99 394.68C128.4 385.67 134.79 377.63 141.18 369.44C143.32 366.81 139.87 363.04 137.41 365.67C137.41 365.67 137.41 365.67 137.41 365.67C118.62 388.07 107.52 405.61 104.13 418.29Z" id="d1XtJ3QQLr"></path><path d="M212.99 399.93C215.45 404.85 217.74 409.77 220.04 414.85C221.18 417.31 221.68 419.6 224.63 420.26C226.43 420.59 228.23 419.77 228.73 417.96C228.73 417.8 228.73 417.63 228.89 417.47C229.22 416.16 228.56 414.52 227.41 413.86C227.25 413.86 227.09 413.7 226.92 413.7C224.95 412.55 223.15 413.7 222.33 415.5C222.33 415.5 222.33 415.67 222.17 415.67C221.18 417.96 223.81 419.77 225.77 419.27C225.94 419.27 225.94 419.27 226.1 419.27C224.79 418.62 223.64 417.8 222.33 417.14C222.5 416.65 222.5 416 222.66 415.5C223.97 415.01 225.12 414.52 226.43 414.03C227.58 414.52 224.79 409.93 224.46 409.11C223.15 406.49 221.84 403.7 220.53 401.08C218.07 396.16 215.45 391.4 212.66 386.65C208.4 379.27 203.97 369.93 196.1 365.99C193.48 364.19 191.51 367.63 193.81 369.27C193.81 369.27 193.81 369.27 193.81 369.27C203.32 383.37 209.71 393.59 212.99 399.93Z" id="h121nqlFz1"></path><path d="M240.53 252.55C240.69 251.73 240.53 250.58 239.54 250.09C237.58 249.27 236.76 249.6 234.95 250.42C229.22 253.04 223.64 260.42 219.38 264.85C210.36 274.19 201.68 284.19 194.46 295.01C192.17 298.45 197.58 301.4 199.87 298.29C205.94 290.09 212 282.06 218.73 274.36C221.51 271.08 224.46 267.96 227.41 265.01C229.22 263.21 236.1 254.19 238.56 254.19C237.91 253.54 237.09 252.72 236.43 252.06C236.43 252.22 236.43 252.39 236.43 252.55C236.76 254.52 240.2 255.5 240.53 253.04C240.53 253.04 240.53 253.04 240.53 253.04C240.53 252.83 240.53 252.66 240.53 252.55Z" id="a46lRhzvw"></path><path d="M469.22 413.54C468.56 417.31 473.64 418.78 474.96 415.18C479.71 401.4 484.63 387.63 489.71 374.03C490.69 371.24 486.92 369.93 485.45 372.06C485.45 372.06 485.45 372.06 485.45 372.06C476.27 390.42 470.86 404.25 469.22 413.54Z" id="bUrscWtu7"></path><path d="M557.41 416.81C558.89 420.59 564.96 418.95 563.48 415.18C556.27 397.14 547.74 379.27 536.76 363.21C535.12 361.08 532 362.88 533.15 365.18C533.15 365.18 533.15 365.18 533.15 365.18C544.74 387.69 552.82 404.9 557.41 416.81Z" id="a2qkNidjek"></path><path d="M181.35 182.22C185.77 192.06 189.54 202.22 192.99 212.55C200.04 232.72 205.61 253.37 211.02 274.03C221.84 315.67 233.15 357.8 234.63 401.08C234.79 405.67 241.84 405.67 241.68 401.08C240.2 356.65 228.73 313.37 217.41 270.58C211.84 249.44 205.77 228.29 198.23 207.8C194.63 198.13 191.02 188.45 186.43 179.11C182.33 170.58 177.74 160.58 170.53 154.52C168.89 153.21 166.76 154.85 167.58 156.81C167.58 156.81 167.58 156.81 167.58 156.81C174.13 167.85 178.73 176.32 181.35 182.22Z" id="a4L8wZAjn"></path><path d="M216.43 212.06C213.97 231.57 224.14 251.24 241.35 260.58C260.36 270.91 284.63 266.98 299.87 251.73C314.95 236.65 320.36 213.54 309.71 194.52C297.74 172.88 272.5 164.85 249.22 170.26C245.28 171.24 246.92 177.14 250.86 176.32C273.97 171.9 299.55 180.58 307.25 205.01C314.63 228.29 296.92 253.86 273.97 259.11C251.68 264.19 228.89 250.26 223.64 227.96C218.73 207.8 230.2 183.04 250.53 176.32C253.97 175.01 252.66 169.6 249.05 170.58C249.05 170.58 249.05 170.58 249.05 170.58C228.73 186.21 217.85 200.04 216.43 212.06Z" id="a4VLh47ToC"></path><path d="M169.22 188.78C170.04 192.55 176.59 191.73 176.1 187.8C174.79 176.98 173.15 166.49 172.66 155.67C172.5 151.57 165.94 151.4 166.1 155.67C166.1 155.67 166.1 155.67 166.1 155.67C166.65 170.53 167.69 181.57 169.22 188.78Z" id="aBJ6pKW7h"></path><path d="M191.68 175.5C195.28 178.29 198.73 172.22 195.28 169.44C188.56 164.19 181.51 158.29 174.13 154.03C171.02 152.22 165.45 152.72 166.76 157.63C167.09 158.95 169.05 159.77 170.04 158.45C170.04 158.45 170.04 158.45 170.04 158.45C183.15 168.84 190.36 174.52 191.68 175.5Z" id="aVmGwkrbY"></path><path d="M135.61 292.22C137.91 296.32 144.3 292.55 142 288.45C120.2 250.26 99.05 211.08 101.35 165.67C101.35 161.9 95.77 162.06 95.45 165.67C95.45 165.67 95.45 165.67 95.45 165.67C107.58 224.57 120.97 266.76 135.61 292.22Z" id="a1v0MBo1lH"></path><path d="M133.64 291.57C135.45 293.21 139.05 292.88 139.54 290.09C140.69 283.04 141.84 275.83 142.99 268.62C143.81 264.03 136.59 262.06 135.94 266.65C134.79 273.86 133.81 280.91 132.82 288.13C134.46 287.47 136.27 286.81 137.91 285.99C130.86 282.39 124.63 277.47 118.07 273.37C115.12 271.57 112.66 276.16 115.28 278.13C115.28 278.13 115.28 278.13 115.28 278.13C123.81 283.81 129.93 288.29 133.64 291.57Z" id="aegBPi4Jv"></path><path d="M263.15 162.55C264.79 165.83 270.53 163.54 269.05 160.09C260.69 138.95 247.09 119.44 231.18 103.21C228.73 100.58 225.12 104.36 227.41 106.98C227.41 106.98 227.41 106.98 227.41 106.98C244.79 130.48 256.7 149 263.15 162.55Z" id="m2CaNeVG1"></path><path d="M266.76 164.36C268.89 165.83 271.18 163.86 271.35 161.73C271.84 156.16 273.15 150.75 273.97 145.17C274.46 141.4 269.22 141.57 267.91 144.36C265.77 149.6 265.28 156.16 265.12 161.73C266.59 160.91 268.23 159.93 269.71 159.11C262.99 155.99 256.92 151.4 251.68 146.49C249.71 144.36 246.92 147.31 248.73 149.27C248.73 149.27 248.73 149.27 248.73 149.27C256.27 156.27 262.28 161.3 266.76 164.36Z" id="aIuRoFCri"></path><path d="M301.51 35.5C324.14 31.73 347.25 32.06 369.05 39.6C388.23 46.32 405.94 58.45 416.27 76.32C429.38 99.27 431.18 128.29 428.07 154.03C427.41 158.78 434.96 158.78 435.45 154.03C438.56 127.96 436.43 98.78 423.81 75.34C413.81 56.32 396.1 42.88 376.43 35.01C328.4 15.83 271.84 31.57 226.76 51.9C224.3 53.04 226.1 56.98 228.73 56.32C228.73 56.32 228.73 56.32 228.73 56.32C260.42 45.28 284.68 38.34 301.51 35.5Z" id="bgChgBgAA"></path><path d="M430.86 164.19C432.17 166.81 435.94 165.83 436.76 163.37C438.23 159.11 439.71 154.85 441.51 150.91C443.15 147.47 445.12 144.19 446.43 140.58C447.41 137.8 443.32 135.34 441.35 137.63C435.94 144.03 432.82 153.86 430.53 161.9C432.5 161.57 434.46 161.4 436.43 161.08C431.84 153.04 427.58 144.68 422.82 136.65C421.18 133.86 417.41 136.32 418.73 138.95C418.73 138.95 418.73 138.95 418.73 138.95C424.19 150.09 428.23 158.51 430.86 164.19Z" id="aqYKPMw1N"></path><path d="M256.27 102.88C263.64 109.27 270.53 115.99 277.09 123.04C290.36 137.31 302.33 152.88 312.33 169.6C332.82 203.37 346.1 241.4 350.36 280.58C350.86 285.18 358.23 285.18 357.74 280.58C352.99 240.42 340.04 201.73 319.05 167.14C308.89 150.26 296.92 134.52 283.48 120.09C270.2 105.99 253.97 89.6 236.27 81.08C234.3 80.42 232 83.04 233.81 84.68C233.81 84.68 233.81 84.68 233.81 84.68C243.97 92.66 251.46 98.73 256.27 102.88Z" id="b6r1k3kUxT"></path><path d="M338.4 261.9C338.89 262.39 339.55 262.72 340.04 263.21C340.04 263.04 340.04 262.88 339.87 262.72C339.55 263.37 339.38 264.03 339.05 264.68C339.22 264.68 339.22 264.52 339.38 264.52C338.73 264.52 338.07 264.52 337.41 264.52C339.05 265.34 340.2 267.8 341.35 269.27C342.82 271.24 344.46 273.04 345.94 275.01C347.41 276.98 348.89 278.78 350.36 280.75C351.35 281.9 352 282.88 353.48 283.21C354.95 283.54 356.1 283.04 356.92 281.73C357.58 280.75 357.58 279.77 357.25 278.78C356.92 277.31 355.61 276.65 354.3 276.49C354.14 276.49 354.14 276.49 353.97 276.49C350.53 276.16 349.71 281.9 353.15 282.55C353.32 282.55 353.32 282.55 353.48 282.55C352.82 281.9 352 281.08 351.35 280.42C351.35 280.58 351.35 280.58 351.35 280.75C351.51 279.93 351.51 279.11 351.68 278.29C351.68 278.45 351.51 278.45 351.51 278.62C352.66 278.13 353.81 277.63 354.95 277.14C355.45 277.63 355.45 277.63 354.95 276.98C354.46 276.49 353.97 275.99 353.64 275.5C352.66 274.52 351.84 273.54 350.86 272.55C349.22 270.75 347.58 268.95 345.94 267.14C343.81 264.85 341.35 260.26 337.74 260.91C336.92 261.08 336.43 262.06 336.27 262.72C336.27 263.37 336.43 263.7 336.76 264.36C337.25 265.01 337.91 265.18 338.73 265.18C338.89 265.18 338.89 265.18 339.05 265.18C341.02 264.85 340.53 261.9 338.73 261.9C338.73 261.9 338.73 261.9 338.73 261.9C338.62 261.9 338.51 261.9 338.4 261.9Z" id="aSHVJLXDV"></path><path d="M355.28 279.11C357.58 279.44 360.04 279.77 362.33 280.09C362.33 279.6 362.17 278.95 362.17 278.45C361.84 275.01 356.59 273.54 355.61 277.63C355.45 278.13 355.28 278.78 355.28 279.27C354.14 284.36 361.68 285.5 362.33 280.26C363.32 272.39 365.28 264.19 364.46 256.32C364.3 253.54 360.36 252.55 359.55 255.5C359.55 255.5 359.55 255.5 359.55 255.5C358.12 266.1 356.7 273.97 355.28 279.11Z" id="b1r5U4KrU5"></path><path d="M401.68 30.09C459.05 49.44 487.09 103.04 496.43 159.6C499.22 176.81 500.69 194.36 501.68 211.73C502.66 229.77 503.64 247.96 500.04 265.83C499.05 270.58 506.27 272.55 507.25 267.8C510.53 251.73 510.37 235.67 509.55 219.44C508.73 202.06 507.58 184.85 505.28 167.63C501.18 137.96 493.32 108.29 477.74 82.39C446.59 30.91 388.07 9.27 329.71 15.5C293.81 19.27 258.23 31.9 226.59 49.27C223.48 51.24 226.27 55.5 229.38 54.03C229.38 54.03 229.38 54.03 229.38 54.03C304.79 24.85 362.22 16.87 401.68 30.09Z" id="b25KSmsHXD"></path><path d="M502 274.19C503.48 276.81 506.92 276.49 508.56 274.19C513.15 267.47 519.22 260.42 522.5 252.88C523.97 249.6 520.04 245.83 517.25 248.78C511.18 254.85 506.92 263.21 502.17 270.42C504.3 270.42 506.43 270.42 508.73 270.42C504.3 263.37 500.2 255.5 494.79 249.27C492.82 247.31 489.38 249.27 490.37 251.73C490.37 251.73 490.37 251.73 490.37 251.73C495.5 261.9 499.38 269.38 502 274.19Z" id="a1tEXIQs28"></path><path d="M58.71 538.03C57.72 534.75 55.43 534.75 52.97 536.22C51.49 534.09 48.71 534.42 45.92 536.06C45.76 536.06 45.59 535.89 45.26 535.89C42.48 535.24 39.69 536.39 37.4 538.19C32.97 538.19 29.03 541.14 26.08 545.4C21 550.81 17.89 559.5 16.58 565.24C15.59 569.17 17.4 571.63 19.85 572.12C20.84 579.5 24.61 585.57 31.66 587.21C32.15 587.53 32.64 587.86 33.3 588.19C35.1 589.01 37.07 589.34 39.03 589.34C39.36 589.5 39.85 589.67 40.35 589.83C41.99 590.16 43.46 589.99 44.77 589.5C46.41 589.67 48.38 589.5 50.51 588.68C52.31 588.03 53.95 587.04 55.59 585.89C60.02 584.91 63.3 580.98 65.1 576.71C65.43 576.39 65.59 576.06 65.92 575.73C74.44 564.09 70.84 550.16 61.99 539.83C60.84 538.68 59.85 538.03 58.71 538.03Z" id="bnkLISCRw"></path><path d="M20.84 553.27C14.94 566.22 21 581.63 34.12 587.04C46.58 592.29 62.64 586.88 68.05 574.26C73.63 560.81 66.41 546.71 54.28 539.99C50.67 538.03 47.56 543.27 51.17 545.4C59.53 550.49 65.76 559.17 62.97 569.5C60.02 580.32 47.07 585.08 37.07 581.14C26.9 577.21 21.99 565.24 26.9 555.24C31.49 546.06 42.48 542.29 51.82 545.24C54.94 546.39 57.07 541.63 54.12 540.16C54.12 540.16 54.12 540.16 54.12 540.16C35.54 540.92 24.44 545.29 20.84 553.27Z" id="b6yREoGEz4"></path><path d="M101.82 551.14C96.41 553.6 96.08 560.65 96.08 565.89C96.08 571.63 96.58 578.19 103.46 579.01C108.22 579.67 113.3 576.22 112.81 570.98C112.48 568.19 108.38 567.21 107.56 570.32C106.9 572.62 103.46 574.58 102.15 571.63C101.66 570.32 101.82 567.37 101.82 566.06C101.82 564.09 101.82 561.96 102.31 560.16C102.81 557.86 105.76 552.62 107.89 558.52C109.04 561.47 113.3 560.32 112.64 557.04C112.64 557.04 112.64 557.04 112.64 557.04C108.6 551.69 104.99 549.72 101.82 551.14Z" id="dA2jC3f3R"></path><path d="M126.25 550.16C118.05 549.17 117.56 558.52 117.89 564.42C118.22 569.99 118.71 579.01 126.08 579.17C134.44 579.34 134.77 570.81 133.95 564.58C133.46 560.98 128.05 562.62 128.54 566.06C128.87 568.35 129.2 569.5 128.05 571.63C126.9 573.93 125.92 573.44 124.77 571.47C123.63 569.17 123.63 565.08 123.63 562.62C123.63 561.63 123.46 560.32 123.63 559.34C124.44 556.06 126.74 554.91 128.54 557.7C129.85 559.67 129.85 562.45 130.67 564.75C131.17 566.71 134.28 567.21 134.77 564.91C134.77 564.91 134.77 564.91 134.77 564.91C133.57 555.73 130.73 550.81 126.25 550.16Z" id="b1wCmGeGY9"></path><path d="M146.08 553.44C144.44 553.93 142.97 554.26 141.33 554.75C145.92 559.83 147.72 569.5 149.2 575.89C149.69 578.52 153.13 578.52 154.44 576.55C156.41 573.76 157.23 569.83 158.22 566.55C159.69 562.29 161.33 558.19 163.63 554.42C161.82 554.26 159.85 553.93 158.05 553.76C159.2 561.14 159.69 569.01 159.04 576.55C158.71 580.65 165.59 580.65 165.26 576.55C164.77 568.35 165.1 560.32 163.79 552.12C163.3 549.5 159.53 549.34 158.22 551.47C156.25 554.75 154.77 558.19 153.46 561.8C152.15 565.57 151.49 570.49 149.2 573.76C151 573.93 152.64 574.26 154.44 574.42C152.64 566.88 150.35 556.71 145.1 550.81C143.63 549.17 141 550.16 140.35 552.12C139.2 556.22 139.53 560.81 139.36 564.91C139.2 569.5 139.04 574.09 139.85 578.52C140.51 580.49 144.12 580.49 144.44 578.35C144.44 578.35 144.44 578.35 144.44 578.35C144.01 566.99 144.55 558.68 146.08 553.44Z" id="b8yzH3n8Kx"></path><path d="M169.2 575.57C169.69 579.34 175.76 579.34 175.26 575.57C174.28 567.53 176.58 559.34 174.28 551.63C173.63 549.34 170.51 549.83 170.35 552.12C170.35 552.12 170.35 552.12 170.35 552.12C169.04 562.62 168.65 570.43 169.2 575.57Z" id="aFd0SWSAa"></path><path d="M182.97 557.86C182.97 559.17 181.17 559.99 180.18 560.65C178.38 561.63 177.07 561.96 175.1 561.8C171.66 561.3 171.49 566.55 174.28 567.53C177.4 568.68 181 566.88 183.63 565.24C186.25 563.6 188.54 561.3 188.54 557.86C188.38 554.58 186.25 551.96 183.46 550.65C180.02 549.17 176.41 549.99 173.13 550.98C171 551.63 171.33 555.08 173.63 554.91C173.63 554.91 173.63 554.91 173.63 554.91C179.96 554.26 183.08 555.24 182.97 557.86Z" id="a629L2A5qO"></path><path d="M201.66 550.81C194.45 549.67 192.64 558.19 192.48 563.44C192.31 569.17 193.3 578.03 200.18 579.34C207.56 580.81 209.2 572.12 209.04 566.71C208.87 563.44 203.79 563.44 203.95 566.71C203.95 569.17 202.64 577.86 199.2 572.12C197.72 569.5 197.72 565.57 198.05 562.62C198.22 559.83 199.85 553.6 202.97 557.7C204.28 559.5 204.28 563.11 205.1 565.24C205.43 567.37 208.22 566.88 208.54 564.75C208.54 564.75 208.54 564.75 208.54 564.75C207.89 556 205.59 551.36 201.66 550.81Z" id="c51VPqz4OV"></path><path d="M220.51 552.12C220.51 548.68 215.1 548.68 215.1 552.12C214.94 560.49 214.12 569.17 215.1 577.37C215.43 579.67 219.04 580.65 219.36 578.03C219.36 578.03 219.36 578.03 219.36 578.03C220.02 566.44 220.4 557.81 220.51 552.12Z" id="ePN8PGldn"></path><path d="M221.33 562.94C223.46 567.53 225.59 572.29 227.07 577.21C228.22 580.98 234.28 579.34 232.97 575.57C231.49 570.98 229.69 566.55 227.56 562.29C225.59 558.35 223.46 553.44 219.85 550.65C218.87 549.99 216.9 550.32 217.07 551.96C217.07 551.96 217.07 551.96 217.07 551.96C218.82 556.88 220.24 560.54 221.33 562.94Z" id="aW7nTrUgs"></path><path d="M227.4 575.89C227.07 579.99 232.97 579.67 233.63 575.89C234.61 568.03 235.1 558.85 232.31 551.14C231.49 549.17 228.71 549.67 228.38 551.8C228.38 551.8 228.38 551.8 228.38 551.8C228.05 562.62 227.72 570.65 227.4 575.89Z" id="a2QDTreKEr"></path><path d="M240.35 553.6C239.85 552.78 239.36 551.8 238.87 550.98C237.23 554.09 237.89 559.34 237.72 562.62C237.56 566.88 236.9 572.12 237.89 576.39C238.05 577.37 239.04 578.19 239.85 578.35C243.13 579.01 246.9 578.03 250.18 577.86C254.12 577.53 253.95 571.3 250.18 571.8C247.72 572.12 243.79 573.27 241.49 572.78C242.15 573.44 242.81 574.09 243.46 574.75C242.81 572.29 243.3 569.01 243.3 566.39C243.3 563.6 243.13 560.65 243.13 557.86C242.97 555.57 243.63 551.14 240.84 550.16C239.53 549.67 238.22 551.14 238.71 552.29C238.71 552.29 238.71 552.29 238.71 552.45C239.04 553.11 239.53 553.6 240.35 553.6C240.35 553.6 240.35 553.6 240.35 553.6C240.35 553.6 240.35 553.6 240.35 553.6Z" id="b2gL3jsngH"></path><path d="M243.95 565.73C245.43 565.89 246.74 566.22 248.22 565.89C250.84 565.24 251.17 560.81 248.22 560.32C246.9 560.16 245.76 560.32 244.45 560.49C243.3 560.65 241.99 560.49 240.84 560.98C239.2 561.47 238.71 563.93 240.35 564.75C240.35 564.75 240.35 564.75 240.35 564.75C241.88 565.29 243.08 565.62 243.95 565.73Z" id="kw7Lmpxdc"></path><path d="M243.3 550.98C242.97 551.96 242.64 553.11 242.31 554.26C241.66 554.58 241.66 554.58 242.48 554.58C242.97 554.58 243.46 554.75 243.79 554.75C244.61 554.91 245.43 554.91 246.41 555.08C248.22 555.24 250.18 555.24 251.66 554.26C254.12 552.62 253.13 548.85 250.18 548.68C249.2 548.68 248.22 549.01 247.23 549.01C246.25 549.17 245.43 549.01 244.45 549.01C242.97 549.01 240.51 549.01 239.36 550.16C238.71 550.81 238.38 552.29 239.04 553.11C239.04 553.11 239.04 553.11 239.04 553.11C241 556.06 244.61 553.93 243.3 550.98C243.3 550.98 243.3 550.98 243.3 550.98C243.3 550.98 243.3 550.98 243.3 550.98Z" id="cl2uPMiC3"></path><path d="M263.46 553.11C261.82 553.11 260.02 553.11 258.38 553.11C261.82 561.96 265.76 570.49 271 578.35C272.64 580.81 277.07 579.99 276.9 576.71C276.58 568.68 276.41 560.65 277.23 552.62C277.72 548.68 271.33 548.68 271 552.62C270.35 560.65 270.35 568.68 270.51 576.71C272.48 576.22 274.45 575.73 276.41 575.08C271.33 567.53 266.9 559.83 263.46 551.47C262.48 549.17 259.2 548.85 258.38 551.47C257.07 555.4 257.23 559.67 257.07 563.76C257.07 568.52 256.9 573.27 258.05 577.86C258.71 579.99 261.82 580.16 262.15 578.19C262.15 578.19 262.15 578.19 262.15 578.19C261.6 566.71 262.04 558.35 263.46 553.11Z" id="h5Y7uNp0qW"></path><path d="M287.56 555.24C290.51 555.24 293.46 555.57 296.41 555.73C300.35 556.06 300.51 549.5 296.41 549.34C293.3 549.17 290.18 549.34 287.07 549.67C284.61 549.83 281.82 549.83 280.02 551.63C279.2 552.62 279.53 553.93 280.35 554.42C280.35 554.42 280.35 554.42 280.35 554.42C283.52 554.97 285.92 555.24 287.56 555.24Z" id="a3wRjWlgdO"></path><path d="M285.59 576.71C285.43 580.81 291.82 580.81 291.99 576.71C292.31 568.68 292.31 560.32 291.17 552.29C290.67 549.67 286.9 550.49 286.74 552.94C286.74 552.94 286.74 552.94 286.74 552.94C286.3 563.55 285.92 571.47 285.59 576.71Z" id="b23Mi885G"></path><path d="M312.31 575.08C312.15 579.01 318.54 579.01 318.54 575.08C318.54 567.37 319.36 558.19 316.9 550.81C316.41 549.01 313.46 548.68 312.97 550.81C312.97 550.81 312.97 550.81 312.97 550.81C312.86 561.74 312.64 569.83 312.31 575.08Z" id="h5hZCBktx"></path><path d="M328.87 566.06C329.04 561.8 329.36 557.53 329.04 553.27C328.87 550.65 324.61 549.67 324.12 552.62C323.46 556.71 323.46 560.98 323.46 565.08C323.46 569.17 322.97 573.44 324.12 577.37C324.77 579.34 327.56 579.34 328.05 577.53C328.05 577.53 328.05 577.53 328.05 577.53C328.6 572.4 328.87 568.57 328.87 566.06Z" id="q1cU0QqYeC"></path><path d="M336.25 577.86C338.38 581.3 343.79 578.03 341.66 574.75C339.04 570.81 336.74 566.88 334.61 562.62C332.81 558.68 331.33 554.42 328.54 551.14C327.4 550.16 325.43 550.98 325.43 552.45C325.43 552.45 325.43 552.45 325.43 552.45C329.47 564.58 333.08 573.05 336.25 577.86Z" id="a14G5kOA3"></path><path d="M341 552.62C340.51 552.94 339.86 553.44 339.36 553.93C339.36 553.93 339.36 553.93 339.53 553.93C339.04 552.94 338.38 551.96 337.89 551.14C336.41 553.93 337.07 558.52 337.07 561.47C337.07 566.39 337.07 571.14 337.07 576.06C337.07 580.16 343.3 580.16 343.3 576.06C343.3 568.03 343.3 559.67 341.66 551.8C341.49 551.14 340.84 550.32 340.18 550.32C340.18 550.32 340.02 550.32 340.02 550.32C338.87 550.16 337.56 550.81 337.56 552.12C337.56 552.12 337.56 552.12 337.56 552.29C337.72 553.27 338.38 554.09 339.36 554.09C339.36 554.09 339.36 554.09 339.36 554.09C340.02 553.93 340.84 553.44 341 552.62C341 552.62 341 552.62 341 552.62C341 552.62 341 552.62 341 552.62Z" id="a1f5DlE6hK"></path><path d="M347.23 575.57C347.07 579.67 353.63 579.67 353.63 575.57C353.63 567.53 353.95 559.17 352.64 551.14C352.15 548.19 348.22 549.34 347.89 551.8C347.89 551.8 347.89 551.8 347.89 551.8C347.56 562.4 347.34 570.32 347.23 575.57Z" id="atDz0Issc"></path><path d="M363.95 554.91C366.58 554.91 369.2 554.91 371.82 554.58C375.1 554.09 375.27 549.17 371.82 549.34C369.2 549.34 366.58 549.83 363.95 549.99C361.49 550.16 359.04 550.16 356.74 551.14C355.1 551.63 354.94 554.09 356.74 554.58C356.74 554.58 356.74 554.58 356.74 554.58C359.91 554.91 362.31 555.02 363.95 554.91Z" id="aQRNUHud"></path><path d="M362.48 576.55C362.15 579.99 368.05 580.16 368.05 576.55C367.89 568.35 368.22 560.16 366.74 551.96C366.41 549.67 363.13 550.32 362.97 552.45C362.97 552.45 362.97 552.45 362.97 552.45C363.08 563.16 362.92 571.2 362.48 576.55Z" id="b49F4mShoj"></path><path d="M377.23 576.71C377.4 580.49 382.81 580.49 382.97 576.71C383.46 568.85 384.45 559.17 382.31 551.47C381.99 549.67 379.36 549.67 378.87 551.47C378.87 551.47 378.87 551.47 378.87 551.47C377.67 563.05 377.12 571.47 377.23 576.71Z" id="d5b2kWy5fD"></path><path d="M388.22 575.73C387.23 579.34 392.81 580.81 393.79 577.21C395.92 569.17 398.71 559.83 398.05 551.47C397.72 549.34 395.1 549.01 394.28 550.98C394.28 550.98 394.28 550.98 394.28 550.98C391.66 562.12 389.64 570.38 388.22 575.73Z" id="ac2Lda7IR"></path><path d="M401.82 577.37C402.97 580.98 408.54 579.5 407.4 575.89C404.77 567.53 402.48 558.68 399.2 550.49C398.54 548.68 395.27 548.68 395.43 550.98C395.43 550.98 395.43 550.98 395.43 550.98C397.83 562.89 399.96 571.69 401.82 577.37Z" id="a12TJun1Jj"></path><path d="M401.82 572.12C402.97 571.8 403.63 570.81 403.63 569.67C403.63 568.68 402.81 567.37 401.82 567.21C399.53 566.88 397.4 567.53 395.1 567.53C391.99 567.7 391.99 571.96 395.1 572.29C395.1 572.29 395.1 572.29 395.1 572.29C398.16 572.73 400.4 572.67 401.82 572.12Z" id="aIyxwbXXS"></path><path d="M422.48 554.26C425.59 553.76 424.61 549.17 421.82 549.01C419.36 548.85 416.74 549.17 414.12 549.34C411.82 549.34 409.53 549.17 407.4 549.99C405.76 550.65 405.27 553.44 407.4 553.76C407.4 553.76 407.4 553.76 407.4 553.76C414.17 554.64 419.2 554.8 422.48 554.26Z" id="gfAoU8XFR"></path><path d="M412.81 576.55C412.81 579.99 418.22 579.99 418.22 576.55C418.22 568.52 419.04 559.67 417.4 551.8C416.9 549.5 413.3 549.99 413.46 552.29C413.46 552.29 413.46 552.29 413.46 552.29C413.02 563.22 412.81 571.3 412.81 576.55Z" id="a4EnUuEUL0"></path><path d="M429.36 562.78C429.53 567.04 429.2 571.3 429.2 575.57C429.04 579.01 434.45 579.01 434.61 575.57C435.1 568.03 435.59 557.86 432.48 550.98C431.99 549.5 429.53 549.99 429.36 551.3C429.36 551.3 429.36 551.3 429.36 551.3C429.36 556.44 429.36 560.27 429.36 562.78Z" id="b3gGEr6l0e"></path><path d="M438.71 577.37C438.54 580.98 444.12 580.98 444.28 577.37C444.61 568.85 445.27 559.5 443.3 551.14C442.81 548.85 439.86 549.67 439.69 551.63C439.69 551.63 439.69 551.63 439.69 551.63C439.36 563.11 439.04 571.69 438.71 577.37Z" id="attBI6vDl"></path><path d="M453.46 578.03C455.43 580.98 460.35 578.19 458.22 575.24C452.81 567.53 449.53 558.52 443.95 550.98C442.97 549.17 439.86 550.16 440.51 552.45C440.51 552.45 440.51 552.45 440.51 552.45C445.76 564.26 450.07 572.78 453.46 578.03Z" id="a1EYVOY9J2"></path><path d="M452.97 575.4C452.81 579.34 458.87 579.34 459.2 575.4C459.53 567.53 459.04 559.67 458.05 551.8C457.56 549.34 454.12 549.17 454.12 551.8C454.12 551.8 454.12 551.8 454.12 551.8C453.57 562.29 453.19 570.16 452.97 575.4Z" id="aakv4hqST"></path><path d="M469.69 548.52C463.95 549.5 463.13 555.73 463.3 560.49C463.3 565.4 463.79 574.75 468.71 577.7C473.95 580.81 478.38 574.26 479.36 569.83C480.02 566.88 475.92 565.89 474.94 568.52C474.61 569.34 473.63 571.96 472.64 572.29C470.18 573.44 470.02 570.65 469.53 569.17C468.71 566.55 468.38 563.76 468.22 561.14C468.22 559.34 467.72 555.89 469.04 554.42C471.82 550.98 474.61 556.22 475.76 558.35C476.58 559.99 479.36 559.5 479.36 557.53C479.36 557.53 479.36 557.53 479.36 557.53C476.52 550.98 473.3 547.97 469.69 548.52Z" id="aPmiXpw9y"></path><path d="M479.04 568.52C478.05 567.86 477.23 567.21 476.25 566.39C476.9 569.34 477.07 572.45 477.4 575.57C477.56 577.21 478.54 578.52 480.35 578.52C481.82 578.52 483.46 577.21 483.3 575.57C482.97 571.8 482.97 567.7 481.49 564.26C481 563.11 479.36 562.78 478.22 562.94C476.25 563.27 474.28 563.27 472.31 563.6C470.18 563.93 469.36 567.04 471.82 567.7C471.82 567.7 471.82 567.7 471.82 567.7C474.99 568.14 477.4 568.41 479.04 568.52Z" id="e10V6wLO8"></path><path d="M503.79 549.5C497.4 550.32 495.76 556.06 495.76 561.47C495.76 566.71 496.25 575.4 501.99 577.7C507.23 579.83 512.81 575.89 513.79 570.65C514.28 567.86 510.35 565.73 508.87 568.52C507.72 570.98 505.92 575.4 502.64 570.49C501.49 568.85 501.66 565.57 501.49 563.76C501.33 561.96 501.17 559.17 501.82 557.53C503.13 554.42 506.9 554.58 507.72 557.86C508.38 560.32 511.66 560.32 512.31 558.03C512.31 558.03 512.31 558.03 512.31 558.03C509.91 552.02 507.07 549.17 503.79 549.5Z" id="c4ujUvVvMh"></path><path d="M518.38 562.94C518.54 567.04 518.38 571.14 518.87 575.24C519.2 578.85 524.45 579.01 524.61 575.24C524.61 571.14 524.28 567.04 523.95 562.94C523.63 559.17 523.79 555.4 522.64 551.8C522.15 549.99 519.04 549.67 518.71 551.8C518.71 551.8 518.71 551.8 518.71 551.8C518.49 556.71 518.38 560.43 518.38 562.94Z" id="b18E9TDPrr"></path><path d="M526.08 566.88C527.56 567.04 529.36 567.53 530.84 567.21C534.45 566.71 534.61 561.8 530.84 561.63C529.36 561.63 527.89 561.96 526.41 561.96C524.94 561.96 523.46 562.12 521.99 561.96C519.86 561.8 519.2 565.73 521.49 566.06C521.49 566.06 521.49 566.06 521.49 566.06C523.57 566.39 525.1 566.66 526.08 566.88Z" id="b2ypq9bMTj"></path><path d="M530.35 576.06C530.35 580.16 536.9 580.16 536.74 576.06C536.41 567.86 537.72 559.17 535.27 551.3C534.61 549.01 531.49 549.5 531.33 551.8C531.33 551.8 531.33 551.8 531.33 551.8C530.78 562.51 530.46 570.59 530.35 576.06Z" id="a7Fzhf0dn"></path><path d="M552.31 552.94C550.68 553.11 549.04 553.44 547.4 553.6C550.68 560.98 551.66 568.85 553.63 576.71C554.45 579.99 560.02 579.34 559.69 575.89C558.87 567.37 555.59 559.34 552.31 551.63C551.33 549.34 547.89 548.85 547.07 551.63C544.77 559.5 541.49 567.7 540.51 575.73C540.18 578.03 543.3 579.83 544.61 577.37C544.61 577.37 544.61 577.37 544.61 577.37C548.43 566.44 551 558.3 552.31 552.94Z" id="b2P9GsnbjC"></path><path d="M551.33 572.62C552.97 572.78 554.12 573.11 555.59 572.29C557.23 571.3 557.4 568.52 555.59 567.7C553.79 566.88 552.31 567.37 550.35 567.53C548.87 567.7 547.4 567.86 545.92 568.52C543.79 569.67 545.27 573.44 547.56 572.45C547.56 572.45 547.56 572.45 547.56 572.45C549.31 572.56 550.57 572.62 551.33 572.62Z" id="dD3gl1ueR"></path><path d="M569.04 552.29C567.56 552.78 565.92 553.11 564.45 553.6C568.22 561.8 572.31 569.99 576.41 578.19C577.72 580.65 581.49 579.83 582.15 577.37C583.46 573.11 582.64 569.34 582.15 565.08C581.66 560.49 582.64 555.89 582.15 551.3C581.82 547.53 575.76 547.53 576.09 551.3C576.41 555.08 575.59 558.85 575.76 562.62C575.92 567.04 577.23 571.3 576.09 575.73C578.05 575.4 579.86 575.24 581.82 574.91C577.72 566.88 573.46 558.68 568.71 551.14C567.4 549.01 564.12 549.83 564.12 552.45C563.95 560.81 563.46 569.01 564.12 577.37C564.28 580.16 568.22 579.99 568.38 577.21C568.38 577.21 568.38 577.21 568.38 577.21C568.71 566.17 568.93 557.86 569.04 552.29Z" id="g2gtF8HZwf"></path><path d="M594.94 549.99C589.36 551.14 587.89 557.04 587.56 561.96C587.07 567.04 587.56 573.6 592.31 576.55C597.4 579.83 602.31 577.04 604.77 572.12C606.41 569.01 601.66 566.22 600.02 569.34C599.69 570.32 599.04 571.14 598.54 571.96C595.76 572.78 594.12 571.96 593.63 569.5C592.97 567.7 592.97 565.57 593.13 563.6C593.3 561.8 593.13 558.35 594.61 556.71C597.56 553.44 599.53 556.88 600.84 559.01C601.66 560.81 604.28 559.99 604.45 558.03C604.45 558.03 604.45 558.03 604.45 558.03C601.39 552.02 598.22 549.34 594.94 549.99Z" id="b2b2iYY7zF"></path><path d="M603.46 569.17C602.81 568.68 602.31 568.35 601.66 567.86C601.66 567.86 601.66 568.03 601.82 568.03C601.66 567.53 601.49 567.04 601.49 566.55C601.49 569.5 601 572.29 601 575.24C600.84 579.17 606.9 579.17 607.07 575.24C607.23 573.44 607.23 571.47 607.23 569.67C607.23 568.03 607.56 566.22 606.58 564.91C605.43 563.44 604.12 563.6 602.48 563.76C600.68 564.09 599.04 563.93 597.23 564.26C595.43 564.58 595.1 567.21 596.74 568.03C596.74 568.03 596.74 568.03 596.74 568.03C599.69 568.46 601.93 568.85 603.46 569.17Z" id="c6y3zwPds"></path><path d="M613.13 549.5C611 549.67 610.02 551.3 610.18 553.27C611.17 560.32 611.17 567.7 610.18 574.75C610.02 576.39 610.84 578.52 612.97 578.35C616.25 578.03 619.53 578.03 622.81 578.03C627.07 578.03 626.9 571.14 622.81 571.47C619.53 571.8 616.25 572.12 612.97 572.62C613.95 573.6 614.94 574.58 615.76 575.4C616.58 567.7 616.58 560.16 616.09 552.45C615.1 553.44 614.12 554.42 613.13 555.4C616.41 555.24 619.86 555.24 623.13 554.75C625.76 554.58 626.9 550.32 623.79 549.67C623.79 549.67 623.79 549.67 623.79 549.67C619.09 549.23 615.54 549.17 613.13 549.5Z" id="a1J98mIDVT"></path><path d="M621.49 566.88C623.3 566.71 624.61 565.4 624.45 563.6C624.28 561.8 622.48 560.81 620.84 561.14C618.71 561.63 616.58 561.96 614.28 562.29C612.15 562.62 612.48 565.73 614.12 566.22C614.12 566.22 614.12 566.22 614.12 566.22C617.4 566.88 619.86 567.1 621.49 566.88Z" id="g96b97g18"></path><path d="M133.91 25.93L135.51 25.97L137.11 26.02L138.7 26.08L140.3 26.16L141.88 26.24L143.47 26.34L145.04 26.45L146.61 26.57L148.18 26.7L149.73 26.84L151.28 26.99L152.82 27.14L154.26 27.31L155.7 27.5L157.16 27.72L158.63 27.95L160.11 28.21L161.6 28.49L163.1 28.79L164.6 29.11L166.11 29.45L167.62 29.82L169.14 30.2L170.65 30.61L172.17 31.04L173.68 31.49L175.19 31.96L176.7 32.45L178.21 32.97L179.71 33.5L181.2 34.06L182.68 34.64L184.15 35.24L185.62 35.87L187.07 36.51L188.5 37.17L189.93 37.86L191.34 38.57L192.73 39.3L194.1 40.05L195.45 40.82L196.79 41.62L198.1 42.44L199.39 43.27L200.65 44.13L201.89 45.01L203.1 45.91L204.29 46.84L205.44 47.78L206.57 48.75L207.66 49.74L208.73 50.75L209.22 51.26L209.71 51.77L210.18 52.3L210.65 52.84L211.1 53.38L211.54 53.93L211.96 54.49L212.38 55.06L212.79 55.63L213.18 56.21L213.57 56.8L213.95 57.39L214.31 57.99L214.67 58.6L215.02 59.21L215.35 59.83L215.68 60.45L216 61.08L216.31 61.71L216.61 62.35L216.91 62.99L217.19 63.63L217.47 64.28L217.74 64.94L218.01 65.59L218.26 66.25L218.51 66.91L218.75 67.58L218.99 68.25L219.21 68.91L219.44 69.59L219.65 70.26L219.86 70.93L220.07 71.61L220.27 72.28L220.46 72.96L220.65 73.64L220.83 74.31L221.01 74.99L221.18 75.67L221.32 76.21L221.45 76.75L221.58 77.28L221.71 77.82L221.83 78.36L221.95 78.89L222.06 79.42L222.17 79.96L222.28 80.49L222.38 81.02L222.47 81.55L222.56 82.07L222.64 82.6L222.71 83.13L222.78 83.65L222.84 84.18L222.89 84.7L222.93 85.22L222.96 85.74L222.99 86.26L223 86.78L223 87.3L223 87.82L222.98 88.33L222.95 88.85L222.91 89.36L222.85 89.88L222.79 90.39L222.71 90.9L222.61 91.41L222.51 91.92L222.39 92.43L222.25 92.94L222.1 93.45L221.93 93.96L221.75 94.46L221.55 94.97L221.34 95.48L221.11 95.98L220.86 96.49L220.91 96.86L220.95 97.23L220.97 97.61L220.97 98L220.96 98.38L220.94 98.77L220.9 99.17L220.85 99.56L220.78 99.96L220.7 100.36L220.6 100.76L220.5 101.16L220.38 101.56L220.25 101.96L220.1 102.36L219.95 102.76L219.78 103.15L219.6 103.55L219.41 103.94L219.22 104.33L219.01 104.72L218.79 105.11L218.57 105.49L218.33 105.87L218.09 106.24L217.83 106.61L217.58 106.98L217.31 107.34L217.03 107.69L216.75 108.04L216.47 108.38L216.17 108.71L215.87 109.04L215.57 109.35L215.26 109.66L214.94 109.96L214.62 110.26L214.3 110.54L213.97 110.81L213.64 111.08L213.81 111.64L213.93 112.2L214.01 112.78L214.06 113.37L214.06 113.96L214.03 114.55L213.97 115.15L213.87 115.75L213.74 116.36L213.58 116.96L213.39 117.57L213.17 118.17L212.92 118.77L212.64 119.36L212.35 119.95L212.02 120.53L211.68 121.1L211.32 121.66L210.93 122.22L210.53 122.76L210.11 123.29L209.67 123.8L209.22 124.3L208.76 124.78L208.28 125.24L207.79 125.69L207.3 126.12L206.79 126.52L206.28 126.9L205.76 127.26L205.24 127.59L204.71 127.9L204.18 128.18L203.65 128.43L203.12 128.65L202.6 128.84L202.07 129L201.55 129.13L201.04 129.22L200.53 129.27L200.15 129.3L199.77 129.32L199.39 129.35L199 129.37L198.62 129.4L198.24 129.42L197.86 129.44L197.48 129.47L197.1 129.49L196.72 129.52L196.34 129.54L195.95 129.56L195.57 129.59L195.19 129.61L194.81 129.63L194.43 129.66L194.05 129.68L193.67 129.7L193.29 129.72L192.91 129.74L192.52 129.77L192.14 129.79L191.76 129.81L191.38 129.83L191 129.85L190.62 129.87L190.24 129.89L189.86 129.91L189.48 129.92L189.09 129.94L188.71 129.96L188.33 129.98L187.95 129.99L187.57 130.01L187.19 130.02L186.81 130.04L186.43 130.05L186.04 130.07L185.66 130.08L185.28 130.09L185.27 130.29L185.25 130.49L185.23 130.69L185.21 130.88L185.18 131.08L185.16 131.28L185.13 131.48L185.09 131.67L185.06 131.87L185.02 132.07L184.99 132.26L184.94 132.45L184.9 132.65L184.86 132.84L184.81 133.03L184.77 133.21L184.72 133.4L184.67 133.58L184.62 133.77L184.57 133.95L184.51 134.12L184.46 134.3L184.4 134.47L184.35 134.64L184.29 134.8L184.24 134.97L184.18 135.12L184.13 135.28L184.07 135.43L184.01 135.58L183.96 135.72L183.9 135.86L183.85 136L183.79 136.13L183.74 136.26L183.68 136.38L183.63 136.49L183.58 136.61L183.53 136.71L183.48 136.81L183.32 137.15L183.15 137.48L182.97 137.81L182.79 138.14L182.6 138.47L182.4 138.8L182.2 139.13L181.99 139.45L181.77 139.77L181.55 140.09L181.32 140.4L181.09 140.71L180.85 141.02L180.6 141.32L180.35 141.61L180.09 141.9L179.82 142.18L179.55 142.46L179.27 142.72L178.99 142.98L178.7 143.23L178.41 143.48L178.11 143.71L177.8 143.93L177.49 144.14L177.17 144.35L176.85 144.54L176.52 144.72L176.19 144.89L175.85 145.04L175.5 145.19L175.15 145.32L174.8 145.43L174.44 145.54L174.07 145.62L173.7 145.7L173.33 145.76L172.94 145.8L172.56 145.82L172.17 145.83L171.9 145.83L171.63 145.83L171.35 145.83L171.08 145.83L170.81 145.82L170.53 145.82L170.26 145.82L169.99 145.81L169.71 145.81L169.44 145.8L169.16 145.8L168.89 145.79L168.61 145.78L168.33 145.78L168.06 145.77L167.78 145.76L167.51 145.75L167.23 145.75L166.95 145.74L166.68 145.73L166.4 145.72L166.12 145.71L165.85 145.7L165.57 145.69L165.29 145.68L165.02 145.67L164.74 145.66L164.47 145.65L164.19 145.63L163.91 145.62L163.64 145.61L163.37 145.6L163.09 145.59L162.82 145.58L162.54 145.56L162.27 145.55L162 145.54L161.73 145.53L161.45 145.52L161.18 145.5L161.07 145.76L160.96 146.02L160.84 146.27L160.72 146.53L160.6 146.78L160.48 147.03L160.35 147.29L160.22 147.53L160.09 147.78L159.95 148.03L159.82 148.27L159.68 148.51L159.54 148.75L159.39 148.98L159.25 149.21L159.1 149.44L158.95 149.66L158.79 149.89L158.64 150.1L158.48 150.32L158.32 150.53L158.15 150.73L157.99 150.94L157.82 151.13L157.65 151.33L157.48 151.51L157.3 151.7L157.12 151.87L156.94 152.04L156.76 152.21L156.57 152.37L156.38 152.53L156.19 152.68L156 152.82L155.81 152.96L155.61 153.08L155.41 153.21L155.2 153.32L155 153.43L154.79 153.54L153.19 154.28L151.57 154.97L149.92 155.61L148.24 156.2L146.55 156.73L144.83 157.21L143.1 157.65L141.34 158.04L139.57 158.38L137.79 158.68L135.99 158.94L134.17 159.15L132.35 159.33L130.51 159.46L128.67 159.56L126.81 159.62L124.95 159.65L123.08 159.65L121.21 159.61L119.34 159.54L117.46 159.44L115.59 159.32L113.71 159.17L111.84 158.99L109.97 158.79L108.1 158.57L106.24 158.32L104.39 158.06L102.54 157.78L100.71 157.48L98.88 157.16L97.07 156.84L95.27 156.49L93.49 156.14L91.72 155.78L89.96 155.41L88.23 155.03L86.52 154.64L84.82 154.26L83.15 153.86L81.47 153.46L79.8 153.04L78.13 152.6L76.47 152.14L74.82 151.66L73.18 151.16L71.54 150.65L69.92 150.11L68.3 149.55L66.7 148.97L65.1 148.37L63.51 147.75L61.94 147.11L60.37 146.45L58.82 145.77L57.28 145.06L55.74 144.33L54.23 143.58L52.72 142.81L51.22 142.02L49.74 141.2L48.28 140.36L46.82 139.5L45.38 138.61L43.95 137.7L42.54 136.77L41.14 135.81L39.76 134.83L38.4 133.82L37.04 132.79L35.71 131.74L34.39 130.66L33.09 129.55L31.8 128.42L30.53 127.26L29.28 126.08L28.05 124.87L26.84 123.63L25.64 122.37L24.46 121.08L24.27 120.85L24.09 120.62L23.93 120.38L23.78 120.13L23.64 119.87L23.51 119.6L23.39 119.33L23.29 119.06L23.2 118.77L23.12 118.48L23.05 118.19L22.99 117.89L22.94 117.58L22.9 117.27L22.88 116.95L22.86 116.63L22.86 116.31L22.86 115.98L22.88 115.65L22.91 115.32L22.94 114.98L22.99 114.64L23.04 114.3L23.11 113.96L23.18 113.61L23.26 113.27L23.35 112.92L23.45 112.57L23.56 112.23L23.68 111.88L23.8 111.53L23.94 111.18L24.08 110.84L24.23 110.49L24.39 110.15L24.55 109.8L24.72 109.46L24.9 109.12L25.09 108.79L25.28 108.45L24.98 108.31L24.67 108.16L24.36 108.01L24.06 107.86L23.75 107.71L23.45 107.56L23.15 107.4L22.84 107.25L22.54 107.1L22.24 106.94L21.94 106.79L21.64 106.63L21.34 106.48L21.05 106.32L20.75 106.16L20.45 106L20.16 105.84L19.86 105.68L19.57 105.52L19.28 105.36L18.99 105.2L18.7 105.03L18.41 104.87L18.12 104.7L17.83 104.53L17.54 104.36L17.26 104.2L16.97 104.03L16.69 103.85L16.41 103.68L16.13 103.51L15.84 103.33L15.57 103.16L15.29 102.98L15.01 102.8L14.73 102.62L14.46 102.44L14.19 102.26L13.91 102.08L13.64 101.9L13.12 101.5L12.64 101.08L12.22 100.62L11.85 100.15L11.53 99.65L11.26 99.13L11.03 98.59L10.85 98.03L10.71 97.45L10.62 96.86L10.57 96.26L10.55 95.64L10.58 95.01L10.64 94.38L10.74 93.74L10.87 93.1L11.04 92.45L11.23 91.8L11.46 91.15L11.72 90.5L12 89.86L12.31 89.22L12.65 88.59L13.01 87.97L13.39 87.36L13.79 86.76L14.21 86.17L14.65 85.6L15.11 85.05L15.58 84.51L16.07 84L16.56 83.51L17.08 83.04L17.6 82.6L18.13 82.19L18.66 81.8L19.21 81.45L19.75 81.12L20.3 80.84L20.86 80.58L20.66 80.05L20.5 79.51L20.37 78.96L20.28 78.4L20.21 77.83L20.17 77.26L20.15 76.69L20.17 76.11L20.21 75.52L20.27 74.93L20.36 74.34L20.48 73.75L20.61 73.16L20.77 72.57L20.95 71.98L21.14 71.39L21.36 70.8L21.59 70.22L21.84 69.64L22.11 69.07L22.39 68.5L22.68 67.94L22.99 67.38L23.31 66.83L23.64 66.29L23.99 65.77L24.34 65.25L24.7 64.74L25.07 64.24L25.44 63.76L25.83 63.28L26.21 62.83L26.6 62.38L27 61.96L27.39 61.55L27.79 61.15L28.19 60.78L28.59 60.42L28.99 60.08L29.38 59.76L29.41 59.75L29.43 59.74L29.45 59.73L29.48 59.71L29.5 59.7L29.53 59.68L29.55 59.67L29.58 59.65L29.6 59.63L29.63 59.62L29.65 59.6L29.68 59.58L29.7 59.56L29.72 59.55L29.75 59.53L29.77 59.51L29.8 59.49L29.82 59.47L29.85 59.46L29.9 59.42L29.92 59.4L29.95 59.38L29.97 59.36L30 59.35L30.02 59.33L30.04 59.31L30.07 59.29L30.09 59.27L30.12 59.26L30.14 59.24L30.17 59.22L30.19 59.21L30.22 59.19L30.24 59.18L30.27 59.16L30.29 59.15L30.32 59.13L30.34 59.12L30.36 59.11L30.57 58.66L30.78 58.21L31.01 57.76L31.24 57.33L31.49 56.89L31.74 56.47L32.01 56.05L32.28 55.64L32.57 55.24L32.86 54.84L33.16 54.46L33.47 54.08L33.79 53.72L34.12 53.37L34.45 53.03L34.79 52.7L35.13 52.39L35.48 52.09L35.84 51.8L36.2 51.53L36.57 51.27L36.95 51.03L37.32 50.81L37.71 50.6L38.09 50.41L38.48 50.24L38.87 50.09L39.27 49.95L39.67 49.84L40.07 49.75L40.47 49.68L40.88 49.63L41.28 49.6L41.69 49.6L42.1 49.62L42.51 49.66L42.91 49.73L43.32 49.83L43.73 49.95L44.13 50.09L44.16 50.1L44.18 50.12L44.21 50.13L44.23 50.14L44.25 50.15L44.27 50.16L44.29 50.17L44.31 50.17L44.33 50.18L44.36 50.19L44.37 50.2L44.39 50.2L44.41 50.21L44.43 50.22L44.45 50.23L44.47 50.23L44.49 50.24L44.51 50.24L44.53 50.25L44.56 50.26L44.58 50.27L44.6 50.28L44.62 50.28L44.64 50.29L44.66 50.29L44.68 50.3L44.69 50.31L44.71 50.32L44.73 50.32L44.75 50.33L44.77 50.34L44.8 50.35L44.82 50.36L44.84 50.37L44.86 50.38L44.88 50.39L44.91 50.4L44.93 50.41L44.95 50.42L45.14 50.05L45.34 49.69L45.53 49.32L45.74 48.96L45.95 48.6L46.16 48.24L46.38 47.89L46.6 47.54L46.83 47.19L47.06 46.84L47.3 46.51L47.53 46.17L47.78 45.84L48.02 45.52L48.27 45.2L48.51 44.89L48.76 44.58L49.02 44.28L49.27 43.99L49.52 43.7L49.78 43.42L50.04 43.15L50.29 42.89L50.55 42.63L50.81 42.38L51.06 42.15L51.32 41.92L51.57 41.7L51.83 41.49L52.08 41.29L52.33 41.1L52.58 40.93L52.82 40.76L53.07 40.6L53.31 40.46L53.55 40.33L53.78 40.21L54.01 40.1L54.24 40.01L54.46 39.93L55.2 39.71L55.94 39.49L56.68 39.28L57.41 39.07L58.15 38.87L58.89 38.67L59.63 38.47L60.37 38.28L61.11 38.09L61.84 37.9L62.58 37.72L63.32 37.54L64.06 37.36L64.8 37.19L65.55 37.02L66.29 36.86L67.03 36.7L67.77 36.54L68.51 36.39L69.26 36.24L70 36.09L70.75 35.95L71.49 35.81L72.24 35.68L72.99 35.55L73.73 35.42L74.48 35.3L75.23 35.18L75.98 35.06L76.73 34.95L77.48 34.84L78.24 34.74L78.99 34.63L79.75 34.54L80.5 34.44L81.26 34.35L82.02 34.27L82.78 34.18L83.54 34.1L84.3 34.03L84.45 33.97L84.59 33.91L84.74 33.85L84.88 33.79L85.03 33.73L85.17 33.67L85.32 33.61L85.46 33.55L85.6 33.5L85.75 33.44L85.89 33.38L86.03 33.33L86.17 33.27L86.31 33.22L86.45 33.17L86.59 33.11L86.73 33.06L86.87 33.01L87.01 32.95L87.15 32.9L87.29 32.85L87.42 32.8L87.56 32.74L87.7 32.69L87.84 32.64L87.97 32.59L88.11 32.54L88.25 32.49L88.38 32.44L88.52 32.39L88.65 32.34L88.79 32.29L88.92 32.24L89.06 32.19L89.2 32.14L89.33 32.09L89.47 32.04L89.6 31.99L89.74 31.95L89.87 31.9L91.35 31.39L92.85 30.91L94.35 30.46L95.86 30.03L97.39 29.63L98.92 29.25L100.46 28.89L102.01 28.55L103.56 28.24L105.13 27.95L106.7 27.68L108.27 27.43L109.85 27.2L111.44 26.99L113.03 26.8L114.63 26.63L116.23 26.48L117.83 26.35L119.43 26.24L121.04 26.14L122.65 26.06L124.26 25.99L125.87 25.94L127.48 25.91L129.09 25.89L130.7 25.89L132.3 25.9L133.91 25.93ZM148.38 64.68L151.03 65.67L153.64 66.65L151.03 65.57L148.38 64.56L145.69 63.61L142.99 62.72L145.69 63.7L148.38 64.68Z" id="cW12xvcDd"></path><path d="M189.54 38.62C187.25 37.31 184.95 35.99 182.33 34.85" id="a7GrRISmA"></path><path d="M166.76 29.93C137.58 23.21 97.74 26.32 69.22 37.96C32 53.04 14.46 78.95 19.22 101.73C22.99 119.93 40.36 136.81 69.54 145.5C98.72 154.36 139.71 153.86 170.53 142.55C197.09 132.72 212.82 116.49 218.73 100.42C225.61 81.4 219.71 63.86 202.99 48.78" id="aswE7IeoD"></path><path d="M196.59 43.54C194.46 41.9 192.17 40.42 189.87 38.95" id="bf7kcP7zh"></path><path d="M68.07 78.78C65.77 82.55 67.25 86.16 70.36 88.62C72.33 90.26 74.63 91.4 76.59 93.21C77.58 94.19 78.72 95.5 79.05 96.81C79.87 99.93 75.12 101.08 74.46 97.47C73.81 93.37 66.59 94.36 67.09 98.45C68.23 107.47 81.02 111.9 85.28 102.39C87.09 98.29 86.1 93.86 83.48 90.58C82 88.62 80.2 87.14 78.4 85.83C77.74 85.34 72.82 82.72 77.41 81.73C78.07 81.57 81.02 83.86 81.84 84.36C83.32 85.01 85.61 84.19 85.45 82.22C85.45 82.22 85.45 82.22 85.45 82.22C76.59 75.34 70.8 74.19 68.07 78.78Z" id="aC9bkC5Q9"></path><path d="M97.41 81.57C100.53 81.57 103.48 81.57 106.59 81.57C111.02 81.57 111.02 74.36 106.59 74.68C103.32 74.85 100.04 75.01 96.76 75.17C93.81 75.34 91.02 75.34 88.4 76.49C86.43 77.47 87.25 80.26 88.89 80.91C88.89 80.91 88.89 80.91 88.89 80.91C92.71 81.35 95.56 81.57 97.41 81.57Z" id="aprDYRxFI"></path><path d="M94.79 102.55C94.46 107.14 101.84 107.31 102 102.55C102.17 95.01 102.17 87.47 101.51 80.09C101.18 76.49 96.1 76.49 95.94 80.09C95.94 80.09 95.94 80.09 95.94 80.09C95.5 90.15 95.12 97.63 94.79 102.55Z" id="c6gW3SCpzm"></path><path d="M122.82 75.34C114.46 75.99 112.66 85.5 113.15 92.22C113.64 98.45 116.27 106.81 124.13 106.16C132.5 105.34 132.82 94.36 132.66 87.96C132.5 83.86 126.43 83.86 126.27 87.96C126.1 90.75 126.43 94.52 125.12 96.98C122.66 101.9 120.36 96.32 120.04 93.37C119.71 90.58 119.38 86.98 120.53 84.36C121.35 82.55 123.48 80.58 125.45 82.39C126.43 83.37 126.1 86.32 126.27 87.63C126.76 89.93 129.54 90.42 130.36 88.29C130.36 88.29 130.36 88.29 130.36 88.29C130.26 79.33 127.74 75.01 122.82 75.34Z" id="d19qINzxht"></path><path d="M135.77 90.26C135.61 94.85 135.61 99.44 135.61 103.86C135.61 108.62 143.32 108.62 142.99 103.86C142.66 99.27 142.5 94.68 142.5 90.26C142.5 86.16 142.99 81.9 141.68 77.96C141.18 75.5 138.23 75.83 137.25 77.96C137.25 77.96 137.25 77.96 137.25 77.96C136.38 83.54 135.88 87.63 135.77 90.26Z" id="jzcSKFKhD"></path><path d="M146.92 82.06C147.74 82.72 147.74 84.52 147.41 85.5C146.76 88.13 143.97 89.27 141.51 88.78C137.09 87.96 135.12 94.68 139.54 95.67C146.1 97.14 153.15 93.21 153.97 86.16C154.3 83.21 153.32 79.93 151.02 77.8C148.23 75.34 143.32 75.99 140.04 76.81C137.58 77.47 138.07 81.73 140.86 81.57C140.86 81.57 140.86 81.57 140.86 81.57C144.13 81.24 146.16 81.4 146.92 82.06Z" id="b1Z8ivu823"></path><path d="M146.43 100.26C147.41 102.22 148.07 104.36 149.22 106.16C151.35 110.26 157.41 106.65 155.45 102.55C154.46 100.58 153.32 98.78 152.33 96.81C151.35 95.01 150.36 93.04 148.89 91.4C146.76 89.27 143.48 91.57 143.97 94.19C143.97 94.19 143.97 94.19 143.97 94.19C144.95 96.92 145.77 98.95 146.43 100.26Z" id="b4GGPSdPeC"></path><path d="M163.15 75.67C162 75.83 161.18 76.98 160.86 77.96C159.71 82.06 160.53 86.98 160.69 91.24C160.69 95.34 160.04 100.26 161.02 104.36C161.35 105.5 162.33 106.49 163.48 106.81C166.59 107.63 170.53 106.98 173.81 106.98C178.56 106.98 178.56 99.27 173.81 99.6C171.35 99.76 167.74 100.58 165.45 100.09C166.27 100.91 167.09 101.73 167.91 102.55C166.92 99.27 167.58 94.85 167.58 91.4C167.58 87.96 166.59 83.21 167.41 79.93C166.59 80.75 165.94 81.4 165.12 82.22C168.07 81.4 172 81.9 175.12 81.57C177.25 81.08 178.4 77.14 175.45 76.65C175.45 76.65 175.45 76.65 175.45 76.65C169.87 75.34 165.77 75.01 163.15 75.67Z" id="c2kjiBv6we"></path><path d="M170.04 94.68C171.18 94.68 172.17 95.01 173.32 95.01C175.12 95.01 176.76 93.37 176.76 91.57C176.76 89.6 175.12 88.29 173.32 88.13C171.02 87.96 168.23 88.62 165.94 88.95C162.82 89.76 163.64 94.85 166.76 94.68C166.76 94.68 166.76 94.68 166.76 94.68C168.18 94.68 169.27 94.68 170.04 94.68Z" id="b6Jecaq1i"></path></defs><g visibility="inherit"><g visibility="inherit"><g visibility="inherit"><use xlink:href="#b24vzVoq8E" opacity="1" fill="#864c9e" fill-opacity="1"></use><g><use xlink:href="#b24vzVoq8E" opacity="1" fill-opacity="0" stroke="#000000" stroke-width="1" stroke-opacity="0"></use></g></g><g visibility="inherit"><use xlink:href="#a5ZhuW4JAo" opacity="1" fill="#c6c6c6" fill-opacity="1"></use><g><use xlink:href="#a5ZhuW4JAo" opacity="1" fill-opacity="0" stroke="#000000" stroke-width="1" stroke-opacity="0"></use></g></g><g visibility="inherit"><use xlink:href="#c1hZYsvdX4" opacity="1" fill="#c6c6c6" fill-opacity="1"></use><g><use xlink:href="#c1hZYsvdX4" opacity="1" fill-opacity="0" stroke="#000000" stroke-width="1" stroke-opacity="0"></use></g></g><g visibility="inherit"><use xlink:href="#aLqz63OuN" opacity="1" fill="#c6c6c6" fill-opacity="1"></use><g><use xlink:href="#aLqz63OuN" opacity="1" fill-opacity="0" stroke="#000000" stroke-width="1" stroke-opacity="0"></use></g></g><g visibility="inherit"><use xlink:href="#a5vgHpV9Gu" opacity="1" fill="#c6c6c6" fill-opacity="1"></use><g><use xlink:href="#a5vgHpV9Gu" opacity="1" fill-opacity="0" stroke="#000000" stroke-width="1" stroke-opacity="0"></use></g></g><g visibility="inherit"><use xlink:href="#a4aEk3PDC" opacity="1" fill="#c6c6c6" fill-opacity="1"></use><g><use xlink:href="#a4aEk3PDC" opacity="1" fill-opacity="0" stroke="#000000" stroke-width="1" stroke-opacity="0"></use></g></g><g visibility="inherit"><use xlink:href="#kituLfvLO" opacity="1" fill="#c6c6c6" fill-opacity="1"></use><g><use xlink:href="#kituLfvLO" opacity="1" fill-opacity="0" stroke="#000000" stroke-width="1" stroke-opacity="0"></use></g></g><g visibility="inherit"><use xlink:href="#ahaSVMR11" opacity="1" fill="#c6c6c6" fill-opacity="1"></use><g><use xlink:href="#ahaSVMR11" opacity="1" fill-opacity="0" stroke="#000000" stroke-width="1" stroke-opacity="0"></use></g></g><g visibility="inherit"><use xlink:href="#ca9m0xxmP" opacity="1" fill="#c6c6c6" fill-opacity="1"></use><g><use xlink:href="#ca9m0xxmP" opacity="1" fill-opacity="0" stroke="#000000" stroke-width="1" stroke-opacity="0"></use></g></g><g visibility="inherit"><use xlink:href="#c3K7KH9snN" opacity="1" fill="#c6c6c6" fill-opacity="1"></use><g><use xlink:href="#c3K7KH9snN" opacity="1" fill-opacity="0" stroke="#000000" stroke-width="1" stroke-opacity="0"></use></g></g><g visibility="inherit"><use xlink:href="#bgyeE4JeC" opacity="1" fill="#5a326d" fill-opacity="1"></use><g><use xlink:href="#bgyeE4JeC" opacity="1" fill-opacity="0" stroke="#000000" stroke-width="1" stroke-opacity="0"></use></g></g><g visibility="inherit"><use xlink:href="#b5MwreIfb8" opacity="1" fill="#5a326d" fill-opacity="1"></use><g><use xlink:href="#b5MwreIfb8" opacity="1" fill-opacity="0" stroke="#000000" stroke-width="1" stroke-opacity="0"></use></g></g><g visibility="inherit"><use xlink:href="#b1OBb1a7ND" opacity="1" fill="#8e8e8e" fill-opacity="1"></use><g><use xlink:href="#b1OBb1a7ND" opacity="1" fill-opacity="0" stroke="#000000" stroke-width="1" stroke-opacity="0"></use></g></g><g visibility="inherit"><use xlink:href="#lIPW4gxPS" opacity="1" fill="#8e8e8e" fill-opacity="1"></use><g><use xlink:href="#lIPW4gxPS" opacity="1" fill-opacity="0" stroke="#000000" stroke-width="1" stroke-opacity="0"></use></g></g><g visibility="inherit"><use xlink:href="#b85hty1Ox" opacity="1" fill="#8e8e8e" fill-opacity="1"></use><g><use xlink:href="#b85hty1Ox" opacity="1" fill-opacity="0" stroke="#000000" stroke-width="1" stroke-opacity="0"></use></g></g><g visibility="inherit"><use xlink:href="#b2MxYvwO6C" opacity="1" fill="#8e8e8e" fill-opacity="1"></use><g><use xlink:href="#b2MxYvwO6C" opacity="1" fill-opacity="0" stroke="#000000" stroke-width="1" stroke-opacity="0"></use></g></g><g visibility="inherit"><use xlink:href="#a4NwtjCVpY" opacity="1" fill="#8e8e8e" fill-opacity="1"></use><g><use xlink:href="#a4NwtjCVpY" opacity="1" fill-opacity="0" stroke="#000000" stroke-width="1" stroke-opacity="0"></use></g></g><g visibility="inherit"><use xlink:href="#bdz1Q0uSd" opacity="1" fill="#8e8e8e" fill-opacity="1"></use><g><use xlink:href="#bdz1Q0uSd" opacity="1" fill-opacity="0" stroke="#000000" stroke-width="1" stroke-opacity="0"></use></g></g><g visibility="inherit"><use xlink:href="#c1aki3mLj" opacity="1" fill="#8e8e8e" fill-opacity="1"></use><g><use xlink:href="#c1aki3mLj" opacity="1" fill-opacity="0" stroke="#000000" stroke-width="1" stroke-opacity="0"></use></g></g><g visibility="inherit"><use xlink:href="#c460jEgMk" opacity="1" fill="#8e8e8e" fill-opacity="1"></use><g><use xlink:href="#c460jEgMk" opacity="1" fill-opacity="0" stroke="#000000" stroke-width="1" stroke-opacity="0"></use></g></g><g visibility="inherit"><use xlink:href="#b2sDHjbWUh" opacity="1" fill="#ffffff" fill-opacity="1"></use><g><use xlink:href="#b2sDHjbWUh" opacity="1" fill-opacity="0" stroke="#000000" stroke-width="1" stroke-opacity="0"></use></g></g><g visibility="inherit"><use xlink:href="#c2tMT4hFL" opacity="1" fill="#ffffff" fill-opacity="1"></use><g><use xlink:href="#c2tMT4hFL" opacity="1" fill-opacity="0" stroke="#000000" stroke-width="1" stroke-opacity="0"></use></g></g><g visibility="inherit"><use xlink:href="#b1cKIkCYx4" opacity="1" fill="#ffffff" fill-opacity="1"></use><g><use xlink:href="#b1cKIkCYx4" opacity="1" fill-opacity="0" stroke="#000000" stroke-width="1" stroke-opacity="0"></use></g></g><g visibility="inherit"><use xlink:href="#b1qo2SOi2H" opacity="1" fill="#ffffff" fill-opacity="1"></use><g><use xlink:href="#b1qo2SOi2H" opacity="1" fill-opacity="0" stroke="#000000" stroke-width="1" stroke-opacity="0"></use></g></g><g visibility="inherit"><use xlink:href="#c5d8hu1wX" opacity="1" fill="#ffffff" fill-opacity="1"></use><g><use xlink:href="#c5d8hu1wX" opacity="1" fill-opacity="0" stroke="#000000" stroke-width="1" stroke-opacity="0"></use></g></g><g visibility="inherit"><use xlink:href="#a122QICsPN" opacity="1" fill="#ffffff" fill-opacity="1"></use><g><use xlink:href="#a122QICsPN" opacity="1" fill-opacity="0" stroke="#000000" stroke-width="1" stroke-opacity="0"></use></g></g><g visibility="inherit"><use xlink:href="#afxQLeJk4" opacity="1" fill="#ffffff" fill-opacity="1"></use><g><use xlink:href="#afxQLeJk4" opacity="1" fill-opacity="0" stroke="#000000" stroke-width="1" stroke-opacity="0"></use></g></g><g visibility="inherit"><use xlink:href="#dKmbevumr" opacity="1" fill="#ffffff" fill-opacity="1"></use><g><use xlink:href="#dKmbevumr" opacity="1" fill-opacity="0" stroke="#000000" stroke-width="1" stroke-opacity="0"></use></g></g><g visibility="inherit"><use xlink:href="#c1h0FjLQa" opacity="1" fill="#8e8e8e" fill-opacity="1"></use><g><use xlink:href="#c1h0FjLQa" opacity="1" fill-opacity="0" stroke="#000000" stroke-width="1" stroke-opacity="0"></use></g></g><g visibility="inherit"><use xlink:href="#b1PxsKrUjq" opacity="1" fill="#ffffff" fill-opacity="1"></use><g><use xlink:href="#b1PxsKrUjq" opacity="1" fill-opacity="0" stroke="#000000" stroke-width="1" stroke-opacity="0"></use></g></g><g visibility="inherit"><use xlink:href="#b57qVcq6TH" opacity="1" fill="#ffffff" fill-opacity="1"></use><g><use xlink:href="#b57qVcq6TH" opacity="1" fill-opacity="0" stroke="#000000" stroke-width="1" stroke-opacity="0"></use></g></g><g visibility="inherit"><use xlink:href="#g4ZdvltZkd" opacity="1" fill="#ffffff" fill-opacity="1"></use><g><use xlink:href="#g4ZdvltZkd" opacity="1" fill-opacity="0" stroke="#000000" stroke-width="1" stroke-opacity="0"></use></g></g><g visibility="inherit"><use xlink:href="#aKmlNj3NJ" opacity="1" fill="#ffffff" fill-opacity="1"></use><g><use xlink:href="#aKmlNj3NJ" opacity="1" fill-opacity="0" stroke="#000000" stroke-width="1" stroke-opacity="0"></use></g></g><g visibility="inherit"><use xlink:href="#b1dToKgQnx" opacity="1" fill="#ffffff" fill-opacity="1"></use><g><use xlink:href="#b1dToKgQnx" opacity="1" fill-opacity="0" stroke="#000000" stroke-width="1" stroke-opacity="0"></use></g></g><g visibility="inherit"><use xlink:href="#d1XtJ3QQLr" opacity="1" fill="#ffffff" fill-opacity="1"></use><g><use xlink:href="#d1XtJ3QQLr" opacity="1" fill-opacity="0" stroke="#000000" stroke-width="1" stroke-opacity="0"></use></g></g><g visibility="inherit"><use xlink:href="#h121nqlFz1" opacity="1" fill="#ffffff" fill-opacity="1"></use><g><use xlink:href="#h121nqlFz1" opacity="1" fill-opacity="0" stroke="#000000" stroke-width="1" stroke-opacity="0"></use></g></g><g visibility="inherit"><use xlink:href="#a46lRhzvw" opacity="1" fill="#ffffff" fill-opacity="1"></use><g><use xlink:href="#a46lRhzvw" opacity="1" fill-opacity="0" stroke="#000000" stroke-width="1" stroke-opacity="0"></use></g></g><g visibility="inherit"><use xlink:href="#bUrscWtu7" opacity="1" fill="#ffffff" fill-opacity="1"></use><g><use xlink:href="#bUrscWtu7" opacity="1" fill-opacity="0" stroke="#000000" stroke-width="1" stroke-opacity="0"></use></g></g><g visibility="inherit"><use xlink:href="#a2qkNidjek" opacity="1" fill="#ffffff" fill-opacity="1"></use><g><use xlink:href="#a2qkNidjek" opacity="1" fill-opacity="0" stroke="#000000" stroke-width="1" stroke-opacity="0"></use></g></g><g visibility="inherit"><use xlink:href="#a4L8wZAjn" opacity="1" fill="#79a845" fill-opacity="1"></use><g><use xlink:href="#a4L8wZAjn" opacity="1" fill-opacity="0" stroke="#000000" stroke-width="1" stroke-opacity="0"></use></g></g><g visibility="inherit"><use xlink:href="#a4VLh47ToC" opacity="1" fill="#ffffff" fill-opacity="1"></use><g><use xlink:href="#a4VLh47ToC" opacity="1" fill-opacity="0" stroke="#000000" stroke-width="1" stroke-opacity="0"></use></g></g><g visibility="inherit"><use xlink:href="#aBJ6pKW7h" opacity="1" fill="#79a845" fill-opacity="1"></use><g><use xlink:href="#aBJ6pKW7h" opacity="1" fill-opacity="0" stroke="#000000" stroke-width="1" stroke-opacity="0"></use></g></g><g visibility="inherit"><use xlink:href="#aVmGwkrbY" opacity="1" fill="#79a845" fill-opacity="1"></use><g><use xlink:href="#aVmGwkrbY" opacity="1" fill-opacity="0" stroke="#000000" stroke-width="1" stroke-opacity="0"></use></g></g><g visibility="inherit"><use xlink:href="#a1v0MBo1lH" opacity="1" fill="#40a6dd" fill-opacity="1"></use><g><use xlink:href="#a1v0MBo1lH" opacity="1" fill-opacity="0" stroke="#000000" stroke-width="1" stroke-opacity="0"></use></g></g><g visibility="inherit"><use xlink:href="#aegBPi4Jv" opacity="1" fill="#40a6dd" fill-opacity="1"></use><g><use xlink:href="#aegBPi4Jv" opacity="1" fill-opacity="0" stroke="#000000" stroke-width="1" stroke-opacity="0"></use></g></g><g visibility="inherit"><use xlink:href="#m2CaNeVG1" opacity="1" fill="#40a6dd" fill-opacity="1"></use><g><use xlink:href="#m2CaNeVG1" opacity="1" fill-opacity="0" stroke="#000000" stroke-width="1" stroke-opacity="0"></use></g></g><g visibility="inherit"><use xlink:href="#aIuRoFCri" opacity="1" fill="#40a6dd" fill-opacity="1"></use><g><use xlink:href="#aIuRoFCri" opacity="1" fill-opacity="0" stroke="#000000" stroke-width="1" stroke-opacity="0"></use></g></g><g visibility="inherit"><use xlink:href="#bgChgBgAA" opacity="1" fill="#40a6dd" fill-opacity="1"></use><g><use xlink:href="#bgChgBgAA" opacity="1" fill-opacity="0" stroke="#000000" stroke-width="1" stroke-opacity="0"></use></g></g><g visibility="inherit"><use xlink:href="#aqYKPMw1N" opacity="1" fill="#40a6dd" fill-opacity="1"></use><g><use xlink:href="#aqYKPMw1N" opacity="1" fill-opacity="0" stroke="#000000" stroke-width="1" stroke-opacity="0"></use></g></g><g visibility="inherit"><use xlink:href="#b6r1k3kUxT" opacity="1" fill="#40a6dd" fill-opacity="1"></use><g><use xlink:href="#b6r1k3kUxT" opacity="1" fill-opacity="0" stroke="#000000" stroke-width="1" stroke-opacity="0"></use></g></g><g visibility="inherit"><use xlink:href="#aSHVJLXDV" opacity="1" fill="#40a6dd" fill-opacity="1"></use><g><use xlink:href="#aSHVJLXDV" opacity="1" fill-opacity="0" stroke="#000000" stroke-width="1" stroke-opacity="0"></use></g></g><g visibility="inherit"><use xlink:href="#b1r5U4KrU5" opacity="1" fill="#40a6dd" fill-opacity="1"></use><g><use xlink:href="#b1r5U4KrU5" opacity="1" fill-opacity="0" stroke="#000000" stroke-width="1" stroke-opacity="0"></use></g></g><g visibility="inherit"><use xlink:href="#b25KSmsHXD" opacity="1" fill="#40a6dd" fill-opacity="1"></use><g><use xlink:href="#b25KSmsHXD" opacity="1" fill-opacity="0" stroke="#000000" stroke-width="1" stroke-opacity="0"></use></g></g><g visibility="inherit"><use xlink:href="#a1tEXIQs28" opacity="1" fill="#40a6dd" fill-opacity="1"></use><g><use xlink:href="#a1tEXIQs28" opacity="1" fill-opacity="0" stroke="#000000" stroke-width="1" stroke-opacity="0"></use></g></g><g visibility="inherit"><use xlink:href="#bnkLISCRw" opacity="1" fill="#864c9e" fill-opacity="1"></use><g><use xlink:href="#bnkLISCRw" opacity="1" fill-opacity="0" stroke="#000000" stroke-width="1" stroke-opacity="0"></use></g></g><g visibility="inherit"><use xlink:href="#b6yREoGEz4" opacity="1" fill="#ffffff" fill-opacity="1"></use><g><use xlink:href="#b6yREoGEz4" opacity="1" fill-opacity="0" stroke="#000000" stroke-width="1" stroke-opacity="0"></use></g></g><g visibility="inherit"><use xlink:href="#dA2jC3f3R" opacity="1" fill="#ffffff" fill-opacity="1"></use><g><use xlink:href="#dA2jC3f3R" opacity="1" fill-opacity="0" stroke="#000000" stroke-width="1" stroke-opacity="0"></use></g></g><g visibility="inherit"><use xlink:href="#b1wCmGeGY9" opacity="1" fill="#ffffff" fill-opacity="1"></use><g><use xlink:href="#b1wCmGeGY9" opacity="1" fill-opacity="0" stroke="#000000" stroke-width="1" stroke-opacity="0"></use></g></g><g visibility="inherit"><use xlink:href="#b8yzH3n8Kx" opacity="1" fill="#ffffff" fill-opacity="1"></use><g><use xlink:href="#b8yzH3n8Kx" opacity="1" fill-opacity="0" stroke="#000000" stroke-width="1" stroke-opacity="0"></use></g></g><g visibility="inherit"><use xlink:href="#aFd0SWSAa" opacity="1" fill="#ffffff" fill-opacity="1"></use><g><use xlink:href="#aFd0SWSAa" opacity="1" fill-opacity="0" stroke="#000000" stroke-width="1" stroke-opacity="0"></use></g></g><g visibility="inherit"><use xlink:href="#a629L2A5qO" opacity="1" fill="#ffffff" fill-opacity="1"></use><g><use xlink:href="#a629L2A5qO" opacity="1" fill-opacity="0" stroke="#000000" stroke-width="1" stroke-opacity="0"></use></g></g><g visibility="inherit"><use xlink:href="#c51VPqz4OV" opacity="1" fill="#ffffff" fill-opacity="1"></use><g><use xlink:href="#c51VPqz4OV" opacity="1" fill-opacity="0" stroke="#000000" stroke-width="1" stroke-opacity="0"></use></g></g><g visibility="inherit"><use xlink:href="#ePN8PGldn" opacity="1" fill="#ffffff" fill-opacity="1"></use><g><use xlink:href="#ePN8PGldn" opacity="1" fill-opacity="0" stroke="#000000" stroke-width="1" stroke-opacity="0"></use></g></g><g visibility="inherit"><use xlink:href="#aW7nTrUgs" opacity="1" fill="#ffffff" fill-opacity="1"></use><g><use xlink:href="#aW7nTrUgs" opacity="1" fill-opacity="0" stroke="#000000" stroke-width="1" stroke-opacity="0"></use></g></g><g visibility="inherit"><use xlink:href="#a2QDTreKEr" opacity="1" fill="#ffffff" fill-opacity="1"></use><g><use xlink:href="#a2QDTreKEr" opacity="1" fill-opacity="0" stroke="#000000" stroke-width="1" stroke-opacity="0"></use></g></g><g visibility="inherit"><use xlink:href="#b2gL3jsngH" opacity="1" fill="#ffffff" fill-opacity="1"></use><g><use xlink:href="#b2gL3jsngH" opacity="1" fill-opacity="0" stroke="#000000" stroke-width="1" stroke-opacity="0"></use></g></g><g visibility="inherit"><use xlink:href="#kw7Lmpxdc" opacity="1" fill="#ffffff" fill-opacity="1"></use><g><use xlink:href="#kw7Lmpxdc" opacity="1" fill-opacity="0" stroke="#000000" stroke-width="1" stroke-opacity="0"></use></g></g><g visibility="inherit"><use xlink:href="#cl2uPMiC3" opacity="1" fill="#ffffff" fill-opacity="1"></use><g><use xlink:href="#cl2uPMiC3" opacity="1" fill-opacity="0" stroke="#000000" stroke-width="1" stroke-opacity="0"></use></g></g><g visibility="inherit"><use xlink:href="#h5Y7uNp0qW" opacity="1" fill="#ffffff" fill-opacity="1"></use><g><use xlink:href="#h5Y7uNp0qW" opacity="1" fill-opacity="0" stroke="#000000" stroke-width="1" stroke-opacity="0"></use></g></g><g visibility="inherit"><use xlink:href="#a3wRjWlgdO" opacity="1" fill="#ffffff" fill-opacity="1"></use><g><use xlink:href="#a3wRjWlgdO" opacity="1" fill-opacity="0" stroke="#000000" stroke-width="1" stroke-opacity="0"></use></g></g><g visibility="inherit"><use xlink:href="#b23Mi885G" opacity="1" fill="#ffffff" fill-opacity="1"></use><g><use xlink:href="#b23Mi885G" opacity="1" fill-opacity="0" stroke="#000000" stroke-width="1" stroke-opacity="0"></use></g></g><g visibility="inherit"><use xlink:href="#h5hZCBktx" opacity="1" fill="#ffffff" fill-opacity="1"></use><g><use xlink:href="#h5hZCBktx" opacity="1" fill-opacity="0" stroke="#000000" stroke-width="1" stroke-opacity="0"></use></g></g><g visibility="inherit"><use xlink:href="#q1cU0QqYeC" opacity="1" fill="#ffffff" fill-opacity="1"></use><g><use xlink:href="#q1cU0QqYeC" opacity="1" fill-opacity="0" stroke="#000000" stroke-width="1" stroke-opacity="0"></use></g></g><g visibility="inherit"><use xlink:href="#a14G5kOA3" opacity="1" fill="#ffffff" fill-opacity="1"></use><g><use xlink:href="#a14G5kOA3" opacity="1" fill-opacity="0" stroke="#000000" stroke-width="1" stroke-opacity="0"></use></g></g><g visibility="inherit"><use xlink:href="#a1f5DlE6hK" opacity="1" fill="#ffffff" fill-opacity="1"></use><g><use xlink:href="#a1f5DlE6hK" opacity="1" fill-opacity="0" stroke="#000000" stroke-width="1" stroke-opacity="0"></use></g></g><g visibility="inherit"><use xlink:href="#atDz0Issc" opacity="1" fill="#ffffff" fill-opacity="1"></use><g><use xlink:href="#atDz0Issc" opacity="1" fill-opacity="0" stroke="#000000" stroke-width="1" stroke-opacity="0"></use></g></g><g visibility="inherit"><use xlink:href="#aQRNUHud" opacity="1" fill="#ffffff" fill-opacity="1"></use><g><use xlink:href="#aQRNUHud" opacity="1" fill-opacity="0" stroke="#000000" stroke-width="1" stroke-opacity="0"></use></g></g><g visibility="inherit"><use xlink:href="#b49F4mShoj" opacity="1" fill="#ffffff" fill-opacity="1"></use><g><use xlink:href="#b49F4mShoj" opacity="1" fill-opacity="0" stroke="#000000" stroke-width="1" stroke-opacity="0"></use></g></g><g visibility="inherit"><use xlink:href="#d5b2kWy5fD" opacity="1" fill="#ffffff" fill-opacity="1"></use><g><use xlink:href="#d5b2kWy5fD" opacity="1" fill-opacity="0" stroke="#000000" stroke-width="1" stroke-opacity="0"></use></g></g><g visibility="inherit"><use xlink:href="#ac2Lda7IR" opacity="1" fill="#ffffff" fill-opacity="1"></use><g><use xlink:href="#ac2Lda7IR" opacity="1" fill-opacity="0" stroke="#000000" stroke-width="1" stroke-opacity="0"></use></g></g><g visibility="inherit"><use xlink:href="#a12TJun1Jj" opacity="1" fill="#ffffff" fill-opacity="1"></use><g><use xlink:href="#a12TJun1Jj" opacity="1" fill-opacity="0" stroke="#000000" stroke-width="1" stroke-opacity="0"></use></g></g><g visibility="inherit"><use xlink:href="#aIyxwbXXS" opacity="1" fill="#ffffff" fill-opacity="1"></use><g><use xlink:href="#aIyxwbXXS" opacity="1" fill-opacity="0" stroke="#000000" stroke-width="1" stroke-opacity="0"></use></g></g><g visibility="inherit"><use xlink:href="#gfAoU8XFR" opacity="1" fill="#ffffff" fill-opacity="1"></use><g><use xlink:href="#gfAoU8XFR" opacity="1" fill-opacity="0" stroke="#000000" stroke-width="1" stroke-opacity="0"></use></g></g><g visibility="inherit"><use xlink:href="#a4EnUuEUL0" opacity="1" fill="#ffffff" fill-opacity="1"></use><g><use xlink:href="#a4EnUuEUL0" opacity="1" fill-opacity="0" stroke="#000000" stroke-width="1" stroke-opacity="0"></use></g></g><g visibility="inherit"><use xlink:href="#b3gGEr6l0e" opacity="1" fill="#ffffff" fill-opacity="1"></use><g><use xlink:href="#b3gGEr6l0e" opacity="1" fill-opacity="0" stroke="#000000" stroke-width="1" stroke-opacity="0"></use></g></g><g visibility="inherit"><use xlink:href="#attBI6vDl" opacity="1" fill="#ffffff" fill-opacity="1"></use><g><use xlink:href="#attBI6vDl" opacity="1" fill-opacity="0" stroke="#000000" stroke-width="1" stroke-opacity="0"></use></g></g><g visibility="inherit"><use xlink:href="#a1EYVOY9J2" opacity="1" fill="#ffffff" fill-opacity="1"></use><g><use xlink:href="#a1EYVOY9J2" opacity="1" fill-opacity="0" stroke="#000000" stroke-width="1" stroke-opacity="0"></use></g></g><g visibility="inherit"><use xlink:href="#aakv4hqST" opacity="1" fill="#ffffff" fill-opacity="1"></use><g><use xlink:href="#aakv4hqST" opacity="1" fill-opacity="0" stroke="#000000" stroke-width="1" stroke-opacity="0"></use></g></g><g visibility="inherit"><use xlink:href="#aPmiXpw9y" opacity="1" fill="#ffffff" fill-opacity="1"></use><g><use xlink:href="#aPmiXpw9y" opacity="1" fill-opacity="0" stroke="#000000" stroke-width="1" stroke-opacity="0"></use></g></g><g visibility="inherit"><use xlink:href="#e10V6wLO8" opacity="1" fill="#ffffff" fill-opacity="1"></use><g><use xlink:href="#e10V6wLO8" opacity="1" fill-opacity="0" stroke="#000000" stroke-width="1" stroke-opacity="0"></use></g></g><g visibility="inherit"><use xlink:href="#c4ujUvVvMh" opacity="1" fill="#ffffff" fill-opacity="1"></use><g><use xlink:href="#c4ujUvVvMh" opacity="1" fill-opacity="0" stroke="#000000" stroke-width="1" stroke-opacity="0"></use></g></g><g visibility="inherit"><use xlink:href="#b18E9TDPrr" opacity="1" fill="#ffffff" fill-opacity="1"></use><g><use xlink:href="#b18E9TDPrr" opacity="1" fill-opacity="0" stroke="#000000" stroke-width="1" stroke-opacity="0"></use></g></g><g visibility="inherit"><use xlink:href="#b2ypq9bMTj" opacity="1" fill="#ffffff" fill-opacity="1"></use><g><use xlink:href="#b2ypq9bMTj" opacity="1" fill-opacity="0" stroke="#000000" stroke-width="1" stroke-opacity="0"></use></g></g><g visibility="inherit"><use xlink:href="#a7Fzhf0dn" opacity="1" fill="#ffffff" fill-opacity="1"></use><g><use xlink:href="#a7Fzhf0dn" opacity="1" fill-opacity="0" stroke="#000000" stroke-width="1" stroke-opacity="0"></use></g></g><g visibility="inherit"><use xlink:href="#b2P9GsnbjC" opacity="1" fill="#ffffff" fill-opacity="1"></use><g><use xlink:href="#b2P9GsnbjC" opacity="1" fill-opacity="0" stroke="#000000" stroke-width="1" stroke-opacity="0"></use></g></g><g visibility="inherit"><use xlink:href="#dD3gl1ueR" opacity="1" fill="#ffffff" fill-opacity="1"></use><g><use xlink:href="#dD3gl1ueR" opacity="1" fill-opacity="0" stroke="#000000" stroke-width="1" stroke-opacity="0"></use></g></g><g visibility="inherit"><use xlink:href="#g2gtF8HZwf" opacity="1" fill="#ffffff" fill-opacity="1"></use><g><use xlink:href="#g2gtF8HZwf" opacity="1" fill-opacity="0" stroke="#000000" stroke-width="1" stroke-opacity="0"></use></g></g><g visibility="inherit"><use xlink:href="#b2b2iYY7zF" opacity="1" fill="#ffffff" fill-opacity="1"></use><g><use xlink:href="#b2b2iYY7zF" opacity="1" fill-opacity="0" stroke="#000000" stroke-width="1" stroke-opacity="0"></use></g></g><g visibility="inherit"><use xlink:href="#c6y3zwPds" opacity="1" fill="#ffffff" fill-opacity="1"></use><g><use xlink:href="#c6y3zwPds" opacity="1" fill-opacity="0" stroke="#000000" stroke-width="1" stroke-opacity="0"></use></g></g><g visibility="inherit"><use xlink:href="#a1J98mIDVT" opacity="1" fill="#ffffff" fill-opacity="1"></use><g><use xlink:href="#a1J98mIDVT" opacity="1" fill-opacity="0" stroke="#000000" stroke-width="1" stroke-opacity="0"></use></g></g><g visibility="inherit"><use xlink:href="#g96b97g18" opacity="1" fill="#ffffff" fill-opacity="1"></use><g><use xlink:href="#g96b97g18" opacity="1" fill-opacity="0" stroke="#000000" stroke-width="1" stroke-opacity="0"></use></g></g><g visibility="inherit"><use xlink:href="#cW12xvcDd" opacity="1" fill="#dfb945" fill-opacity="1"></use><g><use xlink:href="#cW12xvcDd" opacity="1" fill-opacity="0" stroke="#000000" stroke-width="1" stroke-opacity="0"></use></g></g><g visibility="inherit"><use xlink:href="#a7GrRISmA" opacity="1" fill="#000000" fill-opacity="0"></use><g><use xlink:href="#a7GrRISmA" opacity="1" fill-opacity="0" stroke="#1e1e1e" stroke-width="1" stroke-opacity="1"></use></g></g><g visibility="inherit"><use xlink:href="#aswE7IeoD" opacity="1" fill="#ffffff" fill-opacity="0"></use><g><use xlink:href="#aswE7IeoD" opacity="1" fill-opacity="0" stroke="#ffffff" stroke-width="6" stroke-opacity="1"></use></g></g><g visibility="inherit"><use xlink:href="#bf7kcP7zh" opacity="1" fill="#000000" fill-opacity="0"></use><g><use xlink:href="#bf7kcP7zh" opacity="1" fill-opacity="0" stroke="#1e1e1e" stroke-width="1" stroke-opacity="1"></use></g></g><g visibility="inherit"><use xlink:href="#aC9bkC5Q9" opacity="1" fill="#1e1e1e" fill-opacity="1"></use><g><use xlink:href="#aC9bkC5Q9" opacity="1" fill-opacity="0" stroke="#000000" stroke-width="1" stroke-opacity="0"></use></g></g><g visibility="inherit"><use xlink:href="#aprDYRxFI" opacity="1" fill="#1e1e1e" fill-opacity="1"></use><g><use xlink:href="#aprDYRxFI" opacity="1" fill-opacity="0" stroke="#000000" stroke-width="1" stroke-opacity="0"></use></g></g><g visibility="inherit"><use xlink:href="#c6gW3SCpzm" opacity="1" fill="#1e1e1e" fill-opacity="1"></use><g><use xlink:href="#c6gW3SCpzm" opacity="1" fill-opacity="0" stroke="#000000" stroke-width="1" stroke-opacity="0"></use></g></g><g visibility="inherit"><use xlink:href="#d19qINzxht" opacity="1" fill="#1e1e1e" fill-opacity="1"></use><g><use xlink:href="#d19qINzxht" opacity="1" fill-opacity="0" stroke="#000000" stroke-width="1" stroke-opacity="0"></use></g></g><g visibility="inherit"><use xlink:href="#jzcSKFKhD" opacity="1" fill="#1e1e1e" fill-opacity="1"></use><g><use xlink:href="#jzcSKFKhD" opacity="1" fill-opacity="0" stroke="#000000" stroke-width="1" stroke-opacity="0"></use></g></g><g visibility="inherit"><use xlink:href="#b1Z8ivu823" opacity="1" fill="#1e1e1e" fill-opacity="1"></use><g><use xlink:href="#b1Z8ivu823" opacity="1" fill-opacity="0" stroke="#000000" stroke-width="1" stroke-opacity="0"></use></g></g><g visibility="inherit"><use xlink:href="#b4GGPSdPeC" opacity="1" fill="#1e1e1e" fill-opacity="1"></use><g><use xlink:href="#b4GGPSdPeC" opacity="1" fill-opacity="0" stroke="#000000" stroke-width="1" stroke-opacity="0"></use></g></g><g visibility="inherit"><use xlink:href="#c2kjiBv6we" opacity="1" fill="#1e1e1e" fill-opacity="1"></use><g><use xlink:href="#c2kjiBv6we" opacity="1" fill-opacity="0" stroke="#000000" stroke-width="1" stroke-opacity="0"></use></g></g><g visibility="inherit"><use xlink:href="#b6Jecaq1i" opacity="1" fill="#1e1e1e" fill-opacity="1"></use><g><use xlink:href="#b6Jecaq1i" opacity="1" fill-opacity="0" stroke="#000000" stroke-width="1" stroke-opacity="0"></use></g></g></g></g></svg>